<mxfile host="app.diagrams.net" agent="Mozilla/5.0 (Windows NT 10.0; Win64; x64) AppleWebKit/537.36 (KHTML, like Gecko) Chrome/137.0.0.0 Safari/537.36 Edg/137.0.0.0" version="27.1.6">
  <diagram name="Page-1" id="l2XYEba6QxkaqILQxM0v">
    <mxGraphModel dx="862" dy="475" grid="1" gridSize="10" guides="1" tooltips="1" connect="1" arrows="1" fold="1" page="1" pageScale="1" pageWidth="850" pageHeight="1100" math="0" shadow="0">
      <root>
        <mxCell id="0" />
        <mxCell id="1" parent="0" />
        <mxCell id="-pFcmsq36QsAqHcXGoiX-47" value="" style="rounded=1;whiteSpace=wrap;html=1;strokeWidth=2;" vertex="1" parent="1">
          <mxGeometry x="300" y="160" width="260" height="80" as="geometry" />
        </mxCell>
        <mxCell id="-pFcmsq36QsAqHcXGoiX-37" style="edgeStyle=orthogonalEdgeStyle;rounded=0;orthogonalLoop=1;jettySize=auto;html=1;" edge="1" parent="1">
          <mxGeometry relative="1" as="geometry">
            <mxPoint x="300" y="202" as="targetPoint" />
            <mxPoint x="215" y="202" as="sourcePoint" />
          </mxGeometry>
        </mxCell>
        <mxCell id="-pFcmsq36QsAqHcXGoiX-1" value="" style="whiteSpace=wrap;html=1;aspect=fixed;strokeWidth=2;" vertex="1" parent="1">
          <mxGeometry x="135" y="162" width="80" height="80" as="geometry" />
        </mxCell>
        <mxCell id="-pFcmsq36QsAqHcXGoiX-26" style="edgeStyle=orthogonalEdgeStyle;rounded=0;orthogonalLoop=1;jettySize=auto;html=1;entryX=0.5;entryY=1;entryDx=0;entryDy=0;" edge="1" parent="1" source="-pFcmsq36QsAqHcXGoiX-2" target="-pFcmsq36QsAqHcXGoiX-1">
          <mxGeometry relative="1" as="geometry">
            <mxPoint x="175" y="250" as="targetPoint" />
          </mxGeometry>
        </mxCell>
        <mxCell id="-pFcmsq36QsAqHcXGoiX-2" value="User" style="sketch=0;aspect=fixed;pointerEvents=1;shadow=0;dashed=0;html=1;strokeColor=none;labelPosition=center;verticalLabelPosition=bottom;verticalAlign=top;align=center;fillColor=#00188D;shape=mxgraph.azure.laptop" vertex="1" parent="1">
          <mxGeometry x="140" y="340" width="70" height="42" as="geometry" />
        </mxCell>
        <mxCell id="-pFcmsq36QsAqHcXGoiX-5" value="" style="shape=image;verticalLabelPosition=bottom;labelBackgroundColor=default;verticalAlign=top;aspect=fixed;imageAspect=0;image=https://www.linux-magazin.de/wp-content/uploads/2017/03/gitlab.png;" vertex="1" parent="1">
          <mxGeometry x="144" y="176.27" width="62" height="55.46" as="geometry" />
        </mxCell>
        <mxCell id="-pFcmsq36QsAqHcXGoiX-6" value="" style="shape=image;verticalLabelPosition=bottom;labelBackgroundColor=default;verticalAlign=top;aspect=fixed;imageAspect=0;image=https://d3g9o9u8re44ak.cloudfront.net/logo/106893ee-a3f1-4d64-8aad-3598cd442c18/97c84bc1-190b-44e3-aa5d-0dfc8de149d3.png;" vertex="1" parent="1">
          <mxGeometry x="408" y="321" width="61" height="61" as="geometry" />
        </mxCell>
        <mxCell id="-pFcmsq36QsAqHcXGoiX-7" value="" style="whiteSpace=wrap;html=1;aspect=fixed;strokeWidth=2;" vertex="1" parent="1">
          <mxGeometry x="646.12" y="160.5" width="80" height="80" as="geometry" />
        </mxCell>
        <mxCell id="-pFcmsq36QsAqHcXGoiX-11" value="" style="shape=image;verticalLabelPosition=bottom;labelBackgroundColor=default;verticalAlign=top;aspect=fixed;imageAspect=0;image=data:image/png,iVBORw0KGgoAAAANSUhEUgAAAj8AAAIyCAYAAAAkMqvpAAAAAXNSR0IArs4c6QAAAARnQU1BAACxjwv8YQUAAAAJcEhZcwAAEnQAABJ0Ad5mH3gAAP+lSURBVHhe7P33dyRZliaIXTNzaC0CQCC0zMhIWZkls6qruqpVdc/09ojlLnl4yHP4C8k/o/8M7o/kObvL4eGemZ3l7HTvlNapRaQILRDQWsPh7mbG77vvmYdHZGRkAHA43IH7Zb4wd3ODu4n37vuuePcGKSAGg8FgMBgMRwSh3xoMBoPBYDAcCZjlx2AwPI4KkZDiP/7v/3Eof165z//ztM92jED/fwS+4b7Hdjo8tu/RMcHTjjUYDAYPIz8Gg+FxqEhwRCZNYmwTty/bn+A9G/crcBxf634e79qu6AdJSxBKioYXfl+kLQixzcDjQhzD4/Rv3N8Jj0Ez8mMwGJ4FIz8Gg+FxKNlxLY1LjtBkZAfbNMb7bH/gCFGa4H0JTfcXJOB7Hr9TKHnJ6TYtW3zwPmoC/2l2xxAh9kc57OOxngDxb3lMrtnIj8FgeCaM/BgMDQwdvtoyckKi4hvJS+V7JTCV2xh/+vh73Wbfpd9Xwi5PZPQ9fkv3+eNoCVJrEN6XiZLbBvrZDkEiQ+JDaw/Br+BrkB+SnTKC0FmCIjS1+JAkRfgfx4H86D4lTiRGOEZJlTs2KL93JMuRJ1qW3G+XLUp6vDtWPytbooxYGQyNDiM/BkMDQ4dvXHTEIy5IWsyLFLZESny9rU0KeUkLm7pPSniPpseV2Pz7OHuPlhEgycgTyQ/FBJonW2XSxX3kAnytJCr13GC3BAF/xy9gwzmoO61MYkhAPPj1SmT8sbqPhCWHDQgQSUtGcnJtIk3t2LZKQGIUNUvQhH0tHdi2Yn+LtqAZjZ830Xrk9/G4Jm7xvnwe/vcMBkPDwsiPwVAnKA/FjFQ8tuVLvnYEo7yfBMETGAGhSbc3RNDS7S0QHpCg7U3dl+bXQYJAgIrZfuwr8j0a9rvXOIbb9BHZSfU1yRDfPyfopqK1RBnK7oBfdr9L8sXXzwWSE2+p4Tl4d5k0d6J1gcCAACmZaZOgpVOC1m5HgJqxr7kd+7gfBInveZzu63h0TEamMhKmJKiSEPF1tp/7sHH/YJfbGgyG+oCRH4OhTqBDUa0zRfCPCisNLTvYp9YcT2Akxn4egy0JS1qitYfH8zh+RksQWvZdtADhe/S79Pv4t3zvv0O3/AxbyQgWN84C9NzkR+d4TvwhXu5+wnfkh7+5k9/m76Hxt5WQkKigaRxQqyNCtAypa8xbddQS5EhS0NQMvuQJkza8bqK1yFmBJKJlyG31O9n4Oa1HtA7pd3qrEff536NrTs/HYDDUDYz8GAx1gpRuI7XUgOBwm18tW2xorUm38Xp9QdKtJfe6QOsNt2sgM3hN8sLhrNYhUg8QAbzXIf5Y01/zr3msbwr9sGLDF/7Nc8ORnj2TH/9qZ/C/nREhtkqrTLYtW3F0J7Z014GgMHbIH8NzCEhelMCQGNFyRCsSLUEdalFS61F7L7ZdErR1SogmeC3Yr1Yjkiu0x1aqGQyGA4eRH4Nhv6BDy5MPtarQGkNLjLewqIWGFhe0hPvwfnsLZIZEx5MdkiAfx6NWnw0Qn/yKJz78DPtAfISWH7qJ3MyO/zPrCy0O/r2CryuOqYS+zz4/JPDPwJE7bv37DPq+kvzxU398dj9BlFxwNS08JEDtzoVGEtQCstPWA/KD11kjMWolSXKWJV2lRhLEWKSQ8UbekqRWJG+J0u9vwu/4Z0AcpudgMNQZjPwYDPsFnUAxlZLw5EFQaMHJr0u6tSaytSzpJtrWEgjOKogNLTjYlklS1mLsY+yLf88gZnVR4TVXXZE0Za08lDMC460/uiubSCu2X5pcnzz2EKB8T7glqcleV4L7H+1zVqeKfSSRvCdqLfKWIBIZJS6e2ORAXNC4VSJD95ke54lTEy1FXSBG3RJ09Iu090tAixHjiTxR4la/4zCSUIOhzmDkx2DYLzBYFwSIAcnp2qKkGyA76wuSrM5JujKFNok2gf2zIEFzIETz/g8JTn60BGACVVKCCTGbgLXxvW+G/YeKSW8h4mu1FFVu/eekTgwSJ1nV9x4tfRK0DYLwDEnQd0qC3pNoJyTo7JcQLWjvkaBrwAdWZ8/WyI/BsF8w8mMw7BJqpWEgMckNt7TK0EW1ve7cUQxMLuXxekvS/Br2c9WVa7K1CsJDyw9dWGuSMm6H8TtlOKKjOWnK70l0/FYnRpsgawYVkxnJqdiWXxPuvQaJq8usgvzk2kFsupz1hxaf9j7nLmvhfhAedZnRMuSW5Gtr4mozbxXSYGoGUjt3mS7JNxgMu4aRH4Nhl2AMDl1XJDLJxopzY60vOovO+pxIHp9tYz+JTVxwZIlJAjnkNFkgJke1DjHZICfMislSUem2cptHL7L9Rn5qgsfE5JMi078vb/jiiWNAWN0KNDTvDnOJGfkZ/tfVZc0gP1xa3wsyBGLUcUyCnuMSdA7iNd6TNLV1uy1dZQaDYdcw8mMwPAk/JDT7scbWcFsRqOwbA5LpypKtFUk2V0F+QHRIflanHPkB8ZE89mnuHEdynMuKifgq3Fc6+/mJ0XA4oeSW/cqTXDTnHmO/wFaff4Su0Qby0+PJD0hP9wjIz4Bzi5EAKfnpA/npVrKkjUHVPu7IkapKiyFgBNlg+BKM/BgMT8JPVJo8kASHrioQnJQEZ2MRZAcEZ2vBfUbrD91bRWZUBjliNmWu0uLKLM2avI2vy4KRadlxJEdXYemkROJTuTUcSujz982/fmTtY+PzR7+gVYh5hDRXUIXbqwnEhnmImJtIky52ggj1i6ApOeoAIerodS40Jmfk31u/Mhi+EkZ+DIYnkQUqczn52rwwt06yPK0tXRyTdPmBJCtjID9rOAxau7foBFJhySk3TnNP4isy4NgkdXjxFDHr9jy+/1EP4H7f8LepZJZDECS19oDg9JyWoPe0hIPnJOw/oU1zDtFKRNKk1qSMZBsMhkoY+TEcPVRq3gxSLuSxZf0rLkfna+bOYZDyqrq0UgYnM7/O+pIka3MiG3N4j6a5dai94/u8G8tZdConHZt8DDuA75vlfgXSUw6gZiM9otuUBIgxQeoaG3Yrxrr6hQkWGTgtLd3ichExLxGzUPM1t7QoYcv+qt9lfdNwNGHkx3D0oJNJgrmk5GJ01hawRVuewutZSTeZRXnBBSyXGN8DgsRyEVmpCM3FU/CTkh8+Oon4AOXyhOK3NsEYnhdlcey3eM//9D0/067k8w5pzE+TxvoErG6fQ4t8OY7WXiVG0g6C1DkoIQiSuse4nJ5EiSQoI+kGwxGEkR/DoYaWjKDGrEHLDDBF0+Blb+1ZnfN5d2YkXXwoycq0CPPubPiA5fKkw1nHWXcyK4+RGsOBgX3SW4PKiS41cJr9MicBg6Y7SXjQaBnqHcV2CO2YhD3HNG5IiZISqEcJGSVk3BG2BsMhh5Efw6EG8+5orSzNrMyg5WWRzSWQGyYWXPSfMfcOPt/k6izm3Nnwri8QpEwDV5UbzdxZhnqAim0SIK4a8y4xWiK9NSdg0LRWs2f9MQZHd2PLZfTMJ9SO933ObdbmV5K1c3k9jtNg6jb3GwbDIYaRH8OhhsbrrC9KsjYv6dKEa8tjkizclnRtEgdwAuGB+Edz8NBS5P726aggPEZ+DAeFCrH9yC2GjXZJH1Cf9U9uNacQm3uvOYT6L0rYe1qCvpNoJ5xVSFeOgQgZDIccRn4MjQ3tvq4L04rD6udq5eFKLDRh7p2NBRewTAK0zjYr6SpI0OYCRoDXlLlVtxYnCG7dfoOhIaEkvqIJLUSPXgcMiO5meQ26xgY1Fkg6/LJ5rhjTZIu0BKExaJrWoMwtZuPCcAhg5MfQ2FCBji6MrVp3VuclWRqXdNk3lpBg4LK6sgraNN6H+XnibXyBqsIQ6G6rLXutW4OhAZEpBWXlwAdO+/ca68MVYDmuAONrNOYHYqB0S5fLLN096uqPdQ9K2HUMx7SA/HClGevNGQyNDSM/hoaB66pegGsgMxoDmDXgsyTJwjjahCQzNyWdvSnJHLb5FRCeNXdMwAy4vlho4AM8DYajCL8IwOWp8gHTtOiw9liuQ4KB8xIMnpdw6JKE/SclHDjp4oW05ljFSjG1lPrVZwZDA8HIj6FhwKXp5SKirKNFl5YuS18SyTOIGftYY2ttzrV1n4uH5Sgo7NWd5VP/Z8LbYDiK8C6wx3IIkcCELRgiUBI6GPvDZfG+rhizR7ez+jz3M1C6W4RB1OoS88vrDYYGgpEfQ8NAV25pNXS0+QeSzI9JOndLkuX7kq7ch/ZaYRXywcuPejc1VLf14aBO2BsMRxF+YLhgab7g1r3WUVEOkEajjoCtxgj1npVw4CLaKQn6T7oYIZbWYGJFg6GBYOTHUJfQCui08NDSw/gc1srKg/RsLrrgZZabWJqSdAkEaG3SrdxSS47PU+KtPCq5M/O8wWD4auhUQEsQtt4apMVX/eugfUiCLsYBnZKwZxhbvFfL0DFXVqO5Q4IWl1Gatcm02KrBUKcw8mOoS6R5rtSiK2tJkuUpSVZ8pXTNz4P921zVtYUti4iuu9w8SnCy4OWM8Phm5MdgeDYqrD/qFqNdSLeOEGlRVeYNYv6gllYQHZCcNmaSBglqH3SJFPvQlBD1SdDWo19lMNQjjPwY6hK6JJ05eRYfSjx9Q+KpG5KujGP/hMb3SAitEi3glhYeBjEbDIb9gxb8LYEXMUC64BqtPe0jIDwjEo1elXD0RQkHz7pVYj0j/g8NhvqDkR/DgUPz8+TXQWrW3NJ0ZmHeAPlZm1FrT7LCvDy0+OCzbXzG7MtcrcU0/uriopWHLi6DwbBv0OBon1FaV4mhRVBAWEqjpdu5wtB0WXwXCdGgBLQMafZoZphmxul2DFe6pw2Gg4WRH8OBQ8nN0pQkSw8lnb8rydwdkU2Qn60F585iAHOMhq1L5U9TvHNlueBlc2sZDPsO7xarzBekYzBbPRm5pu6xNhCf1l4JBy9IcOyChP3MJM3cQUPQU8xKazh4GPkx1Aza1RjIzOroxS1nwSlsSbI6A/IzKeniuCQgPyRAzM+TFlfdMvXMxaUWHt8M9YmyOHlyW4HKXU/lrNlOvzViW79QaxDpEJQSjm26wsJIguZukaZOkB/mCzoH8nPGxQPROsSiqk3tOAYkicvq0cwaZKg1jPwYaoaUMQOam2dFkmWQneWHPgszV3EtifjCo/qaq7y+lJ+HAhIToU2G9QuKk4ogWfyjux+Bn1fs02f55PP0+8pk15533cI/Y51G/KowPi/NIE2FhavA6PbSbb8GQWv26N6TEqKJFlVFy4EEGQw1hJEfQ83A5evq3uLqrYlP0T5G+wjzJDRGlpqge0snPqcFpuWJ0U1+5SnQJsP6hU6CJTxLTIJfRYCUHHEfnuOXyI9/r6SHgezepWKoT/jp49ETdq8wsfjXbHjetOxEbboEPhx6QcLRVyU8idYLIkR3mFWSN9QYRn4M+wK18rDIaHFL0g3m5lmQdN23NdbfGtOVXMzT40znnCyBbNLTSZGvKydGw4GhksR48uKWQWMfP9PnxgD0nE5wwhwvDIZlfAddG+XA9Ox58rsqni37iyanBEH2rlF1edICqKuL8Lm3KvDvLJ1BHSPrKzquK8a2LysTdDNH0AkJ+k9LyBigLhZX9ckSOwZcniCQIc00bTDsE4z8GPYFaQkTF0nP5pIkM7ckmUWbvyfCauvM4bO97uJ+Cnkejf99N6yczAib0OoD+nw4kfFZOSJSDj7nNiTBYWI7TFwsgdDW66qCa+K7jnJsR7memj5Xfhc3+I4sFkwTWm6gf2zo6j5h+ZLSprcMok8pgWItKZKprGGfEeX6QXlK0Yf76L0+JzwjuriamrRfBG39Imhh3ykJh85LOHxZgvY+V2HerEGGfYSRH8OeoV0o0/KosZfymnwwXZ0RWZ2VePIzSdhmb2MSA9nRauqATpjN7rWhflAhEnRljzZOW5i4SDC06Y5HryNae6CtN2FC6xwGAeIy5x5McJ0irSyWyc/5vLnSh3/DP2K/QaNVhy5RZvQG8SE5TvOrbsXfGvoQk1jGIMqs06anw797fKvnydf6vW4NoELfG+oJKcc/5QDkRdDcBSLUJeHAaQlHrkh04iURWoZoDWL9sMyKSOIUkvSSQBkMe4eRH8Oe4QqOOhdFwnw8i2OSMiMzszGvo61Mgwix0OgiD8Zkh+N1AoTWnlkCDPUDFQmuqcuJMTx0VzSxiGWnBMzZwompFa9ZzoBbLm/OtbptCyY0WnxAhlgBXK1BfM7avPZfBkkLmhKgEn4KEyNdXSDQJEJqKeSqwCLek1TnQYS2WeoEWwbIoyk50gK2ONfMtZJZGYz81B20kjz7FZ69BkaDOCtR7hpwq8E6h1zW6C40VpRnskS6wtC3rGSGoVow8mPYM9TFRUtPfkOS6esS33tPkrlb0NxBeNCUGCU8kBMRJyT+VfZa3xjqCWrFo1hIwFVBOhIQEsbvtA2KtA9LyHgNbccl7Bp0Exare+sEBU3dk9rHUhNkz/lpz1slkCdB3oLoqo2jcaJk/2FRW7aVGRczRkKtMWNom9jHrN8kSbRAhSBhlb9tqCu4KYfPt6I7BHyDFqHftLFW2DHh8vjw9OuaOVpIjtSSiH5mMFQBRn4MO4N2F9dluGRdi4yy2CjLUWxgUlp4IMnUTUmXJ6CRQ2svrOqxLk8PtXJORkZ66g0qBnwsD5+RBpvSLdnKmJ02N/l0HINWftxp5GwMUm3vlbCz3xEf/M1+LFkuWxbpGltnHNmyC5xfnXY5otanXWxQueYbY4QK4E5FR540LojWIOtzdYVMlijZ9dYg9r/mLpDpbu1j4fAFCQfOoK+BENEipH2uT5fHq5XPXGGGXcLIj2FnUI3cCaxk/j6Izi1JFh9gIoIGvoK2BcKzuQbig0kIwkxX7hCYgMquCH1vE1E9QS0tWVAx3RCMxUBjEKquyunx5QowIWmJArX0MManRbeZS0vLjVQZKVeBqbsUW28B0u32BvrZJsjPnFtNuDqLvjgmyexdECAQJJBvYbA048p4TSRBhvpBeerJVg7yOaOBdKs7jC5TkG9pRT/rPom+d8IFRo9c1vphXBFGAmQZow27gZEfw9fCWQUc4XE5edgKEj/8TBK6uGZvSrJ0V9Lle5RjmGggrGg1ULKDZkSnvvCUIa8BwyQ+KZ4t43o0YHlQojNvSjj6sgQDp3Upctg96P+ifpCsu+r/6fKk5o+Kxz6QdG1KZGteUpAgMDQlQIHPH/UYrG/WF7RvkgT5eLMERDfOg/yg//WgDVyQ6Cz65MmXnBuMBEhjyihnaAWy52l4Phj5MXwtVPNmTA8zMdO9tTqJNuUSFi48VI1b63ChoUvpZOMsABREfG8Cqa6gQ943vlZtGxMHrTodA9geQ2Pg6bCuwgl6RzX/CuMttDhlnYEWIC2OSzcsM4fTErk2IwkL467NitAqxC1XIpKQa3+0vlmXqOibroAqCVAJ/a5PpLVX+2E4cBJ9cgRkCP2ym+24ul8ZhG+Zog3PCyM/hq8FYy64YitZnJB05rpmZWZzsRj01VNTSyiu/F9wqXHFpGITTH1Bh7x7Zs6dhJbLSXj6OxKOvqYuBa3DRNKTLTXO4iv2wa21V2hCTV5LjC1jfbhajMVyaQmiG2ziE0nG3hZhfinGnek1OEuB9c06Q8V05OQJGvapRSdrtPLw0Q1dkfD4qxKOvCzhsbMS9oMUWUC04Tlh5MfwGLQ7qHsLjcuMte7WMiaTKUwkD13V9dkbks7e9BMHJhKdRLKtTSZ1Cx3q2XD3EwmtOW1d0Kj7JTz5hoTDV0F8GF8xWJcurudFur4kydq8I+3Tn0kyTlfYjMgWVyWuf/le6Mb6bt3CZ/guW4PSEvrpGRB1xv9clGAQr/tOaEC0ZKkYlLBHEEuQSwbDEzDyY3gM6uLSmJ6iW7k1exuE5566DZLVSRGu7GJulc1VP2dQsPiJtLw11CU4cZDY8jlp4ckmpzEzq+7wRQl7T4H0jLiVXSRFDaxFp4WtR/mA0G+1nAr6cTJzWzOOa+kMNoo/Je1G3OsaaqWkLYhb1wImz2yjuwstK5HB4PxjF9CfL0mgqRdaoZeZK8zwZRj5MTwGdSFwNU0hL/GDDyS++yds33fBo5vQnNlbGNDMBHaGxgKXfZMAkfw0degqrejctyV64c91qzl6mM/nEGnKuoqIJVRAhphlPL75G4lv/dYnTtxwFgVNjEjLpZGfhoIuviCBxTNs6Ub/7ZTw+IsSnf+uRBe/L5pZnI392mB4AkZ+DApdLcOm+VOmJFmbgqZ83wU0L0/pkmFdOkxwKaqVpWgMcHirpowJQrPpgtzQLQDNOBw4K+HQBTRoyQNn8Jl3E9AKckig4s1bMtmPk7nbkszecVag2Zvo84v4zOeYUculWYAaBuoKw7OjNUiTW6JvM1h/4KSEg+ck6GFgNF24Q26lYlfjunEN1YeRH4MimQPRmX+A7V1MDDewva6xPlLkxAEhA0HjcnEAmCAssViDgM9MywmgsewENOSg57jkLv1AwjNvaGwPyRCLkLpJP6uYfjig4i0jgMUt0Zph+TXNQh7f/C3I/X1nAWIpDZIfBkNb324M6NRFYo+Ndln8E+H5NYHEt3RIeOxFEPsrLibo2BmJRi7xIINBYeTnCEJdW4zt4aoYrZ+0qbE9ySy04XmQn4VbmBRuYVLYdtoUrTw6IZpW3BAoD2lu0fR9+mhp8OB5iS5+T6Iz33DJCtXacQQmfLWAsaUS339f4lu/d9afVdaem1KC7+5DRR+3/l7/KJOgLDdQQR9hMHARxOeSkp/w2DkJj78AUsQEnXT5MjeQI7qWG+howsjPEYSrnp3XnD3UfFM0XcnFSYDZcreWtLnJgG4QCAmdEChRTFDUPcqTARonc7oEci0Sjr6kCQs1Qy5LBuhSdrovj8hz1fuChm2yNKEZylOQ/phL4SeuYUxsuj7Pe2f9vXGQPVd9ieencW0g+20sg4HGsiysFN97AkToLEjRWQl7hjXmTbNIHwXib/gSjPwcQaRc7ru15spT3H8HWvA7IuszvhxAHkeEklYQnsfEv00G9Q8OaU4AnMi50kXdXT2Su/xnEr3wQxCgq24/43uyp3tkyI+DVhaPS5LM3ZH4i19IfP0XPv6HJT6KuB+cENGsv9c/Kp9r+V+QH5J/4RgAwWe9sNZeic5+S0K2kRfccvjWTjxqyjrDUYORnyOClJYe5jfZXpdkedxbe8YknaOr6x60Xnymgh/Corz6xTSihkSZ/GCCh+YbHrsIYX/VWX5OYNt/yh9oSFZmJBn/xLWZ6zouaP10/Z/NyE9DQseAj3UrWz9bneVHEyKelqAPjW5gZodu7wE5qr/s5Yb9g5GfI4J0YxmkZ/pR0reJD/B6UkmRsBK2mvspMNCU9EDom+BvTFSQHyYsDM+/Jbkrf+mCm7kahhqvQaGlMVieZW1W4tu/lfjuHyWdvYW+D+KjSoApAA0JndY4Dmj9Afgc2VpaJWhuFWFSz5FXQIZeENatCwdOSdg74o41HAkY+TmM8I9UH21pW1e5UMNNuZqLbfoaNN13QIgWIOC5RNRXvCbZMWHfsHBD2Ql7rYqdYxLDixJd+YnkXv175+pCsyrYj6DB/1wKXypIfP1nEn+BNvGJusS4ytGVWOAKOBsXDYtsXIAIpWrdRmtuA/lhKZcrEjLtw7DLEu0SI1ImQh7qczcF8LAi+kfAvzYcJlDjYW4TBnZOfC7p5GeSzGA7ex2a7qTG/KhQ0OrrWW4Xs/Y0NDTYk/lqEmixJyDQIdgZ4DzMAOfTzpLBOB97xl8G+7+WvUgwHDDxcfxsr4AUMf6HkyAnQ0NDQ/s9ZRyeNccCY7qgGDLNAVMgsDCuHqYrwWj1M9J7mGGWn8MICm5qOdsbEt99V+Ibv5Vk/o6k6yA9axMY2CQ8XL7utBuiPB3axNiwUK02hjCPQoku/FCi8z+S8PhVCbqHJOg97o/iI7ZnnOEx8bc84Yqhzt6S+P4fJL73B0yKG7ifbRgqmBANjYmKZ+xe8V8GRFNZQGN5jPZBjf+JLmPcnPuWuodZ0NethjQcRhitPSRgTa60mFftJVkYk3jsI41hSCY+lnTxgaQbc9Bkmc4fA18lgNNqOBHqZJg1Q2OBgp1kt7yyq0eCzuMQ3mg93B6ToKWj/JyN+DyOx+4LEz0yG7AWdsW9ax/SVUKqLKhCwXutg8fQSOCz9c09a8g9qnvZ2GEduM0lSVcmJJn6FArj7yE/39eFIJSnWidOYyINhwlGfg4LoMHoIGVg88xtie/8UUqf/rMkHMSrE7rKSxMbsiaXJi20R39ooBNzjEfaJEHbAEjPGWixJx4FN9OMb/h6sAhmRx/u27AjP12jErT2Q/tvcffY2w0MhwEkQ3QDQxaSBDH798YClMVPNPYrgeKYTl+XZH3RFchlDJjhUMFmwAYHNZKUAZtctaUruqbUbJ88AOm583toMp+LrM+6FP4Q4DTf6yRp5OdQgNMxXTea3I11uzoGJehnXSNM3p2YuNussOPzgrEeASvakzR2jYBAnlJ3CJdIs7SLNn+socFBSxCDmtWqh/dcGJJflnQOsvPenyS+/64k0zc0ZlLzPxU2JS0VzAJ0iGAxPw0O1UzYmJ15gcUaMWCXJ3RZu6zN4QidHtGo6YDwGOk5VNB6a7qCpSBh/1kJT70p4dnvaYBzOHhac5gYdgbmw6L1VEu+PPwQCsQ1STAp6kQZWUbgQweOIW2Uk97Cx8zQfSd04UBw7LKOLS0P0zXgskMbGh42ihsdW6uSLoLsTF6XeOw9iW//QoW1bMx7sgPtJmskQIbDB1p9mJW4GRNz36hEo1ddgDPT9xt2jlwTJrohCY9f0Qrh0oL7yOXRTJpnuuIhBBVDWoG8JYiusO11SWcgU2/9XJL7b0s88ZmmCUk3lvzfGBodRn4aEKzNlazOQTu9Iwn90kxayOy0zNiMwamJ2+gKKwf6kQT514bDAU7C2UTMOK7WHgna+53bC9qpZqs94Hw+6iaKS85dkEefpFt2bQF9dx5t1m3xXvtsHpMN+rUez9i0gwQmwqCl07m/Ohk31QsiyfvZgs/weeW9NzQ+HpOTrukCEg2EZijBuKSzNyBnP1dXWDJ9y+VNYy04Q8PC3F4NCLq5ktm7aCA/9FEv3XdVqfNrkm4xVwUHMgS45rIwHErosCVJwLPmKqXmDolOvCLRCz9C+3OvxWb5mw4GJDKaQJD5prbQN5lHp5jHaccaO6E1ldi4pJhko61LX6vlhSvXDghKvvx5M+NzfP2XEt/7kyZC1NiQSjey4VBCY+hYGoMLCVq7dYwFXUMS9p+T8NhlCYbOSzh0wVxgDQwbvQ0IahzJwgMI5PclfvCuJOMfQDP5Aho0MzZjImFcghGfQ45H1oegpdstb+8c0eKNGrjLTM4HPTlrPBJIBC06G8uSso4WXbTzDyWdu4/tGPoxtGqWXaH1B5q2Hn/Alp8gDDVInNYztfq0D4i0DSrBVAuB6YuHHkxqqXI01w7SviLpwm1JJj6CvH1P4jtvQ97e1ZADQ+PCLD91DtVCVQtJJJ2/J8kSi5I+cMGYs3cwacxJuo1ByGrs3l9tuVyOALxWSstJePxlp42OMKPzixKduOoPqh1cmQicE11crB/HYHuQ8XQLpGZrUWR7E/0U5IbWkyctPyRqjKtpaQfZ6APZ6JcAhIO1yMJuaNbNTM/Ayaj2hD6eui7J2CcST1yTdPE+xuBNZ73SZdKmYBwFpDH7LEg5+l/APFqtfRLQ6jN0UcLBc65+3uBZEaZEIHFmnzbUPYz81DkeuQ5KEt/6LTSP96E1k/QwVmJBB6Wu+OFTVNLjEhcaDjkojL1Aji78QKJTb0IgX5Kg/5QrZVFjMK5HiQ9XSo1fk2TqpiTLYz6r+KT2z0ATbLKjcml+6vspGrdhIClfdjLHzkkJenAdw5eUyDH3jrrGDmDJPi1TydxdF183+RGI0NsuZ1YWGGs49HDy1Vkj1ZpKgkNy3oHWh3569psSXfoBSFGXI0gH6LI1PD+stlcdQvmougxAfFhzZm1W0mUI4bEPJeXEAg1U8ivQQDd5MKYPF9/DgWnE52hALS1pUV00XN0Vjr6kS3ODdmimze3+qP2F9lOeBwk43VasGbdwHyThc5CFm5p6ISUBWnno4tGYYZxBooXKra+rtLUssrkoaWHbWYfQAo4Beu74GyRJ1KyVRXESqk0/d1p/oueSrmMcLt7Fbd/CCVhM3VEB+5rKVr6hxZVxXyT6JMHFbZBykODmDpB7fMb+qf2C/dRnDjfUJYz81CUwcDgBMLZnCaRnkinX/yTp7C1MMDNu4uDEwIFFTUSbDbIjBS67BukIolDCk6+B/LwiYc8IhHB77eoRsQ9yEkB/TOfvSPLwA0nuo5/SMol+SlKjOYgItZQwDgkTA5cVVza6CXTLz0DiOW+U8phcQPDXprBd08/oEtNeThcYSF9NoO5FnBDuN0lcMnvdKR16DqbhHz1Q5nq5SzmtSirGAK3wIMVqGWpqc1tagfQ4Qz3C3F51CNXqqSmzTtf4RxLf+AXaL/FJRnaywedfG44cUhYwLaE1N0nTd/8vknv930rYe8r1ixrFHGg6Bd9P49u/kdL1f5Lk7u/x+4x9aHbkICM1zwu1aHG5Oy1KtLpsS3jiNYmu/FRyL/6tSHu3C0Smtl0DcPk9Y3zS9QUpffofpfT+/6CvJSLJrI2FzVCHIOnJmidB4ek3Jbr0Q4nOflvj1TRRohVGrVsYLa0jaD4ULglmDp+pLyS+9Uu3mmtlEp9mxMeTHqcDG44SMncoG+NNmrtABCBkmzocwciI8X4jOw9aJufvuQK6LKOysYLzcMRn1+ejxN5bg0ieohZhbaVk7o7+Di1MUlj3B9cAtDAxhoMr6JpAdjTfDwOwd0DoDIcTZSWUfTyQdGNeksmPpUS5PfGJpEsPsY+uXCgphroDn5yhXkDyw2Rva3MST5P8/ErisXclXZlygyybTHRCYTMcPTjiofXZmrtFC5lyQlYrS636xSPywxWI8e3faZwPLUAStfpzIfmhBWqnIob9m/0cf8/vIZniSrFZR34YfKyxQ7UCr4HB1s24LpAfvde0+PDcDEcYHGeZTHYtXYfcZmHUW7/AeODqQJKfJXWHGeoPO5VMhirDZcEtqnaQbi65ulzQcpOZGxJPfqqTC7OMPiI92WDL3huOFDKrC5d9N2Mibu13k7GSDd8v9hmV/TWBdkurT7o0DjK0hVMAKQsZ6wDSsJvz0X7NwH00fg9JBvMErU7idz5z2jTHCX+f57HPXnvN+cN7HTVrLIda20iCeF76LHwzHC2U5a/fojEAOl3GeIDiytIYTECbLnHF47wSdlcYFWPXUBcw8nPQYGwDXV1LU5o6PX7wjsR3fg3ScxdCFZ8zpT5N7JxIzNpjUKBjkBgwuLm1G5MxK/XXbijTNZssgYzMU7AvaMCnEjKi2v1UJxiAgccxCdcixgp+e3lKz6P8u/sNnEeQw31u7VECpK6wrAim4YiD5IdEn5bKVt0my+ijY+9KfP8dt/pRx8qiW8hiqAsY+TloxCXRmkcL0BjGP5H49q8kZuDo7A3IVghWdSMwaM7IjwH9IbP80PLQzAzEfc4ioaSjNkg3VzVLczzDVV2zfkUXl6MT1eyn/B58H6+ZBKu4qS7hZO4BlAO6FJYxRmpHfvQ+t/U7AkSlhM/BrD6GrJ9yTFJeB82SLI5J6c5vIc9/LfHYB1Bsb6PvzoP8+NWPhgNH7SSm4TFoMjim+5+7J4zvScbfc2ZSagcxV7pQqPv8Et6sWm6GIww32ao7hitJmkiOc9yj+2sC5uZh7qmVKfTjNezgb3vSU61++uT3qGYdupg4LqNnygfmWamV5YfXRmtbDvebLjBa2vS3+TyMAB1ZVPTTLB+Q9hV2jTiRdAuKwuJ9yPf31R2mCTPVammlMQ4aRn4OCOo6YJ0jVgnmcvYHf1TyowJdV5PQ2uMFv8HwJChkWRZCU+rTLVq7vpKS/DDh38q0khEVIxrcvE/noNfG38B1MtaHxGsVjcSrZuQH4Ao0Bj/zvvP+W7yP4alAf+WYjFo1VQLjfuLxdySZ+FjiKch7Wi25OMBwoDDyU0O44OaSC3xjeYqFMUk4GKY/l2TyE5cNl0GjGDQaOKpahMHwFLBvqIBlPp19JB5PA5NsrqP/rnnrC89F236dA75Xl7/nMD42XQApyJdmiK4Z+fDnQKsP432U/GSWH4PhEdQCRPlNF1ipCKI+Jen0p5LMfOGU3fn76r5VYsT5wIKgDwQ2u9YShTwIzpQk459LPPYhGrSBqQ/dJKL5Uegv5kRmMDwDnPBJNEh6uBKJLpgach/NaFtYA/HJMjiTGFCU7NdJ8Pv9b5QwYeSXtbklxDWaOPTnI2dpU/LDayXxMfJjeAaUMKPP5DqdwjtzTevDaRzQw08lXRzHOKph6gZDGUZ+agkK7tVZaAC3dXlwMvWxJLNfYFDMY5BQo0Qz8mN4JiomXJIBdXntJ/F4CpjZmSUemGyQgcj62/v9+/x+XCd/j+Uu0FIGj9bS7aRuLwa1Zvccv62/X8NzMDQW1GJJ2d4mrF+XzN90cn/qM+cCW55Wa6ah9jDyUwMwNkGDm+cfgOyA+Ex/Bsb/QGRj0WmvDHCGMGVuFHN1GZ4ffvKt+QSc/V6tf5u/lwjTQ2j5i1pZfRQgX976VF6A4HcbDF8FFwTti+DSvUVXF/NUMT8W5oFk9qak8/ddEPTmqrnAagibaWsAruBKZu5KMoHOPnkNrP8TSVmwkVXbNbgZ2qRJUcNzgf3E9xUKSi28WWOBqdos+iwbyboSoP0+B098CE9Cyveh5sieQWUzGL4GDNhnHBC78vocyM8nmAuuSTyJeWH6lsYBYVLwBxv2G0Z+9glk8JqBVqP9JzXRVfzwIw1sTqY/1SA4KZUwj7RBjjO42QSo4TnBvkLCQeuHZjkGKVACUiOo+6fF5b2hC4jEZ18tQJwt+BtoJD1cccVl/tSma0Y8eA7uPNLsOg+UgBkaDeUg6AQ9aGNO0mkowhOYD8YwL4x/KsniQ9FSLgySVsumYT9h5Ge/wOXAJD0TID2M75llav67kuZXncZMP7AKT4NhFyARSCAkGQND68++EY+noKnd1RTrOOZKbCj4+/t1Do50qFbc0ilB13EJutFaumo7hjghMUMvY55MQzfsFuyznANo9efqxZWHkswwBhQN8wVrgonmzzLsJ2z23SdoJepFkJ9xdGj6dtm5l+558kOt1ciPYfdQzZCTMIN++bqG3CdoapOgvR/kZ0gCJT/eErWP3Ef/AQEKSH66RxwBau2u3RjiOZDwkGwq4TTyY9gtPPnJtWmwc7I8BuWY8wQUZZAfZvvX0i2GfYXNvlWE5vFhATvmQFmakHT+jhIfBjdrXhKuUuGEpQFwFtxs2A3oZiHZQF8j8eFKEfapWgb/tnSAgAxL0Dsq0tqFHTgXEIOyO6jK4Pfq96cl/9sgPz3H3W+HtXN7OTf2lnNlG/kx7BKPgqBBgGi1pZdgY94FQWtB1DuSsjbY+iKUZXxmfW1fYLNvNcE4n1UGst1yxeyYvBCMnvkddG5iHh92eIsTMOwK6Dca7ItGoVnMu0rSTKFQw5gfLabad0LCgdMStPeAFjDomm2/CBitPpgAkqIELe0gPiQ/aCQ/NVMgcA5xQe+3LvPn/edvW6yeYS/QIOgWvAgl3VqCwnwDBOgLiadBglgPTGvnUbkxVBtGfqoJMPR0eVriLInh+IdSTmII2RnkILhBfiy42bB7kPxg2LKvUWPMr4iU8vtIPL6MoL0XxOesBMMXJejqw2+DCICYQEq7A6oNXpuSq4JIW6eEJF79pyRo68XJ1CgvFsklLW3bq3rfnQWX4pNj2cazYXfgEngNgpacKsm6AmySAdDY0gW2zIUxRn72A0Z+qgAtUro0pRafmGZLBjevjKk589FSdrvVhipAiTP6EidfJhnM+1xRtTSNRxDYLW0SdPRK0HtKwuGXdRs0tYKjbIKr+BVoewAtWfo9Ma4tB4Wh54QEx78B0nNOgs4BEfy+JhysFe/g+ZS2oJ0v4J4v4/5XZrY2GPYIjmuuXiQRYv26ZeYB4spgehBuah1IK4ZaXdjIrQIY50OGrpmbZ0l+Pvd1ujYfkR+z9hiqAk64aBorsK6mcgHhqKXlR8s7NDPouU/C3tMgP6+AnJxyFeZJVtQKtFc3HF1duEZ8X0Dy031CwtFvSODJD91fSn5qxn5wf4sgdiA/6fYyTg3kp2z5MRj2Co5r9GfMFynd2VCek+mPlfzEM7c8+bEg6GrCyM8uocHNLFDKvAwstLjwAB31Orb30HHZUaGRxwUJtPAkNGXTEA17BUmPthD9jwVyQTQKaxqEq6VTGJBbAwtQEEWQ0+jXrZ0gPaMSjlyVcICkZNDl/mEeII4PDVLG+ajbio2E5quaO0bHVfY3/B5+XwfITv9Z/M4rIFsnJWjrwe+34Dw4rvaXfJTzdXGs8z5z0cKTMT/7fA6Gww8NguYiGJY4Yn9jFujlcUkW7kKpZjFUzCsshkqrkOYBwvgw7Ak2I+8WrMbLzM2z6JwMbh5/X5KJd118D28rLT4MZjMY9gNKGEASaGVh0DOEpdAsTotErcBkgz1DEp4A+Tn1uoQnvynh6BsgQcfwIc6NFim6h3iOJAuPEaHKxv3+Wng8SV0KxaF9QMLj35Do1LckOvk62lUJekechalWIKlk2YHVeZH8ujtPg2E/kWWCZrHrDcwxkx9ibsH8Mv2FJHMPJGVZJKZbMOwJRn52C5KfzRXNyZDM3gI7Z4rya25lV8r0/+i4Rn4M+wZnLUlBKuheZV9kDTlNwlcrRE3qggpHLqK9iPayhMMvSdAxgA9BaugCy8hPRnx02eMTjftpsSJBSphHh39D8tMr4RC+9/iraPx+BljTugTtuFbg/QTpSTegiW/T4sNzNhj2EVo+xuWCYzHUlMWvmSuOS+Dp/sJYtyDovSP6R8C/NjwHaP7WgDSQnHQOpGf8IzVNarkKTj7026qbi3l8zBxu2CdkZCLKSchg4/YBdL02tYroEvAawJnqQzXXkxRof8/h95tAito61QIUtA9K0NIt0tyBz6AQMP6NgZ10GdHEn8M58zMun6d7q+e4BANnQHoug/CATI1claD/lITdQxIywJq/V8NxpaRyZVpSKjkc5yxIzGBzjnFeh8FQZei4yvq4KgZQCujixThLS3kXA9dM9zJj3gC6y2o4Jg4LgrSWCUIOAZihmRo2kxjG99+W+NavnBmSsT/FPO4oJgIlPmZUM+wfuBKKFhVOwOHpb0s4+qqEwyAMQ+exveCPqh009o0WEmYwX5vBmJiXdG1ekjUoCWiyRcsUPqOViq45Ls9nPBzIEuN6lLC1gdx0gwB1H5OQFp4OEKfOIRApECMmN2zNSmnUDsncPUkmb0o8fUNSZmmf/FAXOHDi0fgMg2GfoFOzKjkljXHT0i6tHRJd/HMJz2DMD553Y4Kxd1RADDuCkZ/ngOuENM+nmnkzXZmEULwtyf0/SunmL6AJUgOHxqv5GgyGGoBuIgpGan2DlyTsOwMCxNibVyU6/Zo/CKixRqhL3AsgNoyVIflhiRdmO1+f1/gFJUAaoL2pViKtE8YSGR39GjDNHD7BwEkJGdvD4qW6YKDGikSFSIwnPpP43ntafDJdxdhffuBcYeqasAnHUBuk6g6mGzkv0aW/kPDsW87V3HvcZVrnCsxKi5Hha2Hk5zmQxphkKPCK2xJPfgzt7xNogdch1Mc1Cl9DF9QM7s2QBsN+Q8k4WhC6GJu2XolOvALB+ANtjvSg1Zz8QJzQLcSYOJZ6YXwCXUfMjKxWHxAjrY/lXEfO+gOttrndabbtPS5/UFu3IxccV7UW6CoSqfCkEt9/V+Ibv5b47ju4hjWX44fEU1d6mXXXUBswtk9SWntLEg6ek6DvlIRDL0h48jWJ0Dh2MteY4flg5Oc5oHE+eQjurXWJb/1c4tu/AAH61MlHEh/N9UHWbcLQUCOUhy22JAdo4elvSO7lv0X7O7z3k/NBkB9PHFwQMxqIUGapUssQP2Pz563jhs2THQpx3eqpH4A2q+fnyGXp1m8kvva/Ytz/xn/Gf/z51Pq8DEcWblz5scN6dhwuxy5I7spfSXTlr6Ew9GtMHeOBDM8H3ELDVyITgtBYk+UJSSY+1oj7hAGQjGEobuMgBmBajI+hxvDEQSdiWlKY7Zl9kktj1+Zd/A1JR41BosKxoDlLuBSeyRDbupw1hyvDuo654OWeYbfFe01a2NHnY3va3d9pYHNtg5szMFcSLVV6H9m2lkWKLGmB+0yU773BUBu4cYUxRaVAlfE1SVdnMB/ddaUwFsdcDqpK5cLwTNiM/Uw48qMBznO3oP39Wpe10wr0aCm7CUHDQYOCLtUkfAwu1uWwG0uPJmvDzqA5vJYkmR9zK70Y4GwTiqFeoPFmzVB4tjEf3ZH4Jualyc90BbKSH2eeNHwNjPw8A5rVlXEKa2DY01+gk/1KUpKf7U30vxZl4UZ9DPUBCDxaKDFZxyyzsjqrqw9pLjfP9vOhfK9AGpO1OUlYVmDhIZQd1lSye2ioD6hVleSniPlpzpOf8Y/cYhzG2XGxgfXXr4WRn2fALWf/AO19SRYhBHXZoe9U6uYy6mOoA3hNUFPfLz2QZOIDbO+rG0wDi9lvDV8Pas0sLcCM2SvjID+fYkK57yw/mnTOgkkN9YAKtyvnI8bSLU9JPPaRC8yfZy4qG/NfByM/zwCX6CYkPmgpyY9G3JP8sOMZ+THUCZT8NEETzIP0jDnys4hJmxYLkh/LSvx84H1inFQB2jPr8zFrO8hkivdKfszNbagL+PlHCRDmI8aoLU9K8vBjkJ+3JVkA+eFcZXgmjPw8AXV1ba5IssysrtCiWbpiARPJ5qI/AsgCHrNmMBwUtA9SEEYa4KxJOOmmXZlSy2VK9xdrUhm+HnQZ4H4li+Oay0vr9GUEklYfvc823g0HjPK886gvctwz6FldtfOYr5Yx/lmShYl3DU+FkZ8nkG6hE83ckfj2n1yV9tVJCEXWUingbnEJLm+ZCUBDHYKTM/sohnW6Mivxw2sSj32sgtDw9UhWZ3DPPpHk7ruSLmLcx9CqWa6GljWDoe5AEkSrLxoJegFEfR2kZ/amxHfekXjqpgbuG54OIz9PAlpysgAG/eAjXUaYrkP7K6xBMlL7w8TCzmban6EO4ZbDMggf5Gd9UZKpG5JMksDP+iMMzwSXteOekTSmyxj3SQo+6e6nwVB3UAuQV3jo5qK7dmNeLT8k8ensPU3JYng6bFQDaZKg0yxLsjihGZuThTt4Dda8tYBOlaCDkfTYrTLUO7ww5LBWQTiDSRxEfuGexNO3JVnB+8KWO9SgoFsgoZWM92fhviSrEyJbIEHFTXeAKTuGRkDZ6ksX2LKkS3cxh92WVOezh5JAGTqIvF/1DJvRCebyYZyPkp/7koL8pIu3IAQX9TMNJjXTt6Hu4chPisk6LZL8TGNif6DkJ8HkTleYkZ8nUNx2cT4kP5goNNB5E0oPa48RSiaN/BjqHOyndNGyr+ZXQH6gwFOJ9+TH5f0y8lOJI01+mGpfa6ZoEUYIQGZvngfxWR5HZ5lzOX64ukvdXcYTDXWOzAxOAcgEh9trrh8zEHL6Cw2IZAZoXRLPJd1Z2oYjCA0O533YpJYMpWfmBu7TA9yfeRCidRdDkVnSzPJjqHewn4aRpOizaYn9el6JvCo+s7dA8KfRrznu0e9t9aci+kfAvz560LIAeRWAycP3JXnwtmZy1pVdzJPgc3tY6QpDw0GJEF026LucyOnC1cRnnMzd/qC59cj2bUd6GBx6S+LJT1x6gJVJdRdqOovs3hnxMTQa/NhnDCAVePVgsGQMS8lETNkQYOtcZEcZR3tWr9D+koW7kkx+KMkcNEAub43aHfkxz6ChEcE4tahFY9bS9WlJptC3pz931k2Wv9hiEP8R1gBZ+2xpEloxxv3MF7g3n0A7xn0pbbtxb25uQ0OCxKcJY79N0u1NDeGIJ96TdP62iFp9QYbUqmk4ejO7ZsSE0KfLi0UgZ29KMsYkhuMi21u6woMKclZU8SAKKxoMe0HWb51VB/2XBh92+Y0FSefQ3yc/UjcP49uS1TkVkkcBaSGP650HAcR18/onP8b4/wLkcM5ZehWcPCqawdBAeGzsc9xzvisWJV2ZkpgFUOneXacV2HA0zRqeAFHoJROfSXznD+r3V+JjWp/hMIFCkH061ybCHFYkP+PvYeL/VJLpWy4ZGss3HAFoDB9rn02C+Ex8isngAyU/1Iidi5tj/2iKRMMhBOcxP59RyUkevI9+f80l7zRIkB6xqMc0gYZH019hS+K7f5DSFz+X5O6fHCGielwOcjQhaDhcSOMtEbamNgmPf0PCoRclHL6EdlHCwTMgSC0uNiDr+41s+fBiTcUbXVloupoThC+ZAQGcu66uLtlaVheBREc3/slwSOE9HAomQgxzEp54VaIX/0JyV/5Cx7o0od8f0fifoxfwzLwe8z4N+NQXEIJ3RdZmlfOgd3jSYyZvw2EF+reWakD/Lqy7lY5FkINiAbsCCSgM9XMc2uhjgIKfq9pWpkF0QHgw3tOZzyWZvS7pOsa8WrxwjT6VBa/fYDhUYJ/Wbg0lgAWOqeAwFpBKQRJL0NKBMY/3RxBHT9Vh7a7FcYmZwXnmtsZBlAuWqvAzAWg4pKAZXAVf5Op/TV+TePxDSR6ijX0iydKUKgcqKBsevAY0kJ+Eri5e34P33fVqcDOulW7uqBX3xVa+GA4r/JymigDmPo1zvS3x3Xeh+N9zAdBHFEfG8qPaLX3+a3MQgB9LMnnNCcBtFi5k3S5qu97yYxqg4RDiURA0SQH6fGkbYhF9nSSAK0ACt1WBSBLE1WBeKQi0pl19Q13aHOdb65Kuz0vCfF3zXMX5haTMc4T3sjGnSeBwUWrx0fIVel9szBsOGdiny/0a41jHMl+60I+gtVOCriG19qqugDF+lMbBkYn5SdYWIBAXtVJ7fOsXEt//owv0hIAPKPzN3WU4ItAhn9LaGUtAS1CuVYLmNgk6j4l09EvYd1KCwfMSDlyQoPsY9vdL0NLu/7p+QQVHxziDOxeg1c5zWf89EJ4lHf+aw4duvhjEjlYwdXXVP6kzGPYEneI55hPN/q7FucNAonPfk+jSTyQcuuzGONsRiv851OSn8tJSFitlrI9WvP21JA/f9mZvCH2avg2Gowi6fNXtC22QsS+0hPSflXD0FdcGT0vQNypBWzc+A2EoW0hpM6pQFGqlNPgxnWaaLM35tPig6Wou5u6ZfyjJ1KeSTHws6ewNdwyP5Tl60lOGKTuGI4Q03hZd9IAWnvqORBd+JOHIVSg6GOcY6xKxRAaHxeEfF4ec/FAwOuGYPPxIYrRk8nMQoduSLI05gRg2Q5a7B24wHDmQ9Cg5QMuIQXufhD3HJWDrHpaga1CCDrYBzRIrDJLMAiVVSJJU1EhYeiLD8hyS31DrLUvTsCwFXV1q+eH7lSnN2Ew3N/5A/8ZxtexcfTPyYzhC0HJOSQGtCKXmNJSbCxIOXwERel0iNKGFlxbRBnBz7xWHm/xQI6SQLBUlvvFztF9ooie3wgUdgIAWa6Zvw5GFDv+seUIQgQBBAwxyOZG2PhCdHpAgECG6wkZexOtBCbtAhGgNUiuQswTVBBzTtPuQ+KzNS8I2/YWWqUiWH4psr2scX1piTBPGviYvzEQctuXrrfF5Gwx1ADUIsGEMBLrUvUXCYxcluvITiV74CcZ0rxv7R8D9dbjJj6/bxRVd8c1famPg46OEZib4DEcUauXB5J/GThukBUgJQQChAOEIzVDjgnLQBJvaJegcgpZ4XoLhFyQE+VFrUDsEJQUo3cY0l0NgMoD4MfcYNUhuM+iYQ+NGJY8nI5kUyoSzBlvjnOjOYjVqKjGqyGxjX0HLc5D8KAGavi7J3G1Jl5moFJ/zGP3tJknVxcXvx/fx2jLrloo9/ob+qoPJA8NRAhc9YCwF/ackuvxjbUHvCR3XtOwedhxq8uO0whuSPLwmrN+TsrF4ocY2oJmwMxxFkBjkSFhAXFgBmlXMi5vlceFieUgY0JTIgNAwKLqtG4KxR6QZZIjm8ZYuCVpBgNpoBepxlqBWHMPPGEDNnCJNzU7D5G9yvFUSojLJYXO/5yw2bNtQXrZEWJ8ov6pKjGwugfQsSrq9ohYe/TyrzL7Ffczb479Th3aAq8ALEjma+nE+QTPOsblLr5t/q/FOZUKmf2QwHA3ouEBr75dwmAlP0U6+KuFxKDh9o/6gw4vDTX4WxiS+9QeJP/uZpBtzEJLzEHgQ9BTmqgGasDMcQbDvg7hIM7Q7EIl0C+OChEItOCAIzHujZIUEJfbkhFYYWojQlFngsyauEDsu0n1Sgu4RCXsYHzQkQQcJEUkQY4NIlPA7GenRhu+nWV3d0vg+bj0R0kLDJDwkMluO9KSrs2rVSZcZw4PtxgzIGomOB8+3PKbx/Zq+jGQK38fz5uouBnmC9ATtPL9hECpc79YS9nsrkbd6GQxHBhr/g8Zx3D4IEjQouRd+KNGl7ysBOuw4dOQnpdbHVR8UoHN3tW5X6frPdJ8UIQBpOs8Euwk7w1FCRmRoxek/I0HPSewkOcC4oAVoA0Rjc03HiVsVUsDnGCMYJzpSVFRk4gJ7aDliPFBbn0griEUbWkunWn2kGb9Biw9a0PS8lh+QFcbplArOAlTAORTzzsXFMhSbIGrb2Ga5ucpw56hWHn4XzxHnpsv4mbG6HUSMhKwJJExLWbSBSI1pxWvZxvUq2TNlyHDEoAoNxgsVERAgtujiDyS68BbIz1VvwYXyckjjfw4f+YEmWY4FmLkh8b0/SHzz5/iEgi3EvxC6+pobE3aGIwQ1c0PTa+mQ8OSbEo68DAFHMoCJPy1JMnVdktm7zkpKS1ABLaB7mIkAvVWFLQNfa6wP3WWM9+F7TyJCtIzosClB0T9yn+sbEh6KH275Gf7JyBDTUPiPaB16LO5HLVAkOR6e8KiVRz/DMbTytPSqRhsMX5Bo9EUQMVwryFVaxLVOX5Pk4Xsi6/M4P+fuM3lgOFLwYy/VmpZ8nUh09i2JzoH8nHjFxfWxHdLyF4eG/OhlsJW2tWwFU3hzFUgy9YkkY+9CKOMBsnghhZzBcBThAxxppYnO/ZmEp96UoNu5qWidicdBCKZvSroyoa4wdRPHEIxsJCUMPibBUGRZfvy4U6uS/5xkJLPAlNvzIiMgIEwkXCRVSrj4ns0Rp0ffmGIXj/MtwjERzq2tH9eFa+s8Di2WS3lfw7H4Oy6FR0sevivJ3d9CSZrB3zW7ZuTHcAShCx5o6U3yUIiY3+tVbF9yBY/RAsgLxSEbH4eH/DBugC2/JvH9dyS+946kszclWYMWuzqJK3VxASooDYajCCU/RZGWTpCBb4EUQNANnJFg4CQ0vAEtAMq8OJozZ2PBtVW8J2HYXPLxQYsYS46IOCsqQaHoSI4TJpUiZTfiJROyjuhkNMsh+wVslWAlauGRVlp5+lyWWq5GY06idjTmJyLB6zmO89+QZGFcq7unkx9LPPYnkfU5yAVafoz8GI4mXD48WkxLuqqTcXtc2Rmd/w7ad3Us6dhQJeTw4PCQHzWLu8Jt8Wf/JPHn/yTJ3B18EkJM8qE5wWY1fAxHFtnqjqZ2EJ9XJTj2ggY2RqNX8PocPnMKRAoFIl135WDKrrClByBG4yBI9zCIXIxMedl42TLj424qLDR7grce6dJ7FVMkPM6y5CxMrgXdp0BuTkvQe1rCIQhtXBPJHFexcBVaZhVKV1jM9ZZrrO4+8YEI5IUGS5vby3BE8YgCcPS610HPiORe+RcSvfJ3Evae8GOa4/zw4PCQH64MgdaasHbXnd9Lcud3krKQIYUaXV4Gw1FHFvPD1R3HrkjYf17Cky9JeOpVEIbL/iCMJa64yq+7tjDmV1lNQ7GYxXYCSgYIUonKBhpjaBiczNdqPve/gaYapQpTbivxJMmoFEGOOKlVSUkJGmOKGDjNAGsGX2oSxhw4GPZzKX3HsAha2DUMAnRcQlqyWrvVwlVZk0ytPhOfS4yWzpMEXRNhIHV5tZiRH8MRRyYjOvoluvQjbeGxCxhjvU6ROEQ4NOQnWYRgm/xC4rGPJJ27KQka84KUtTqD4ajDkxLNdwPiE/SckvD0axKdfUOiE1f9QaAitABpcDEIDJecc/UkV0sWSIi4/HwFY8tttdEtxlVT/JwZlgur7rWuyPIWmsdQSTKeED9qSWLwNIlNhwtc1hxCfWhcQs9A5g687pag07m5SHI0ESNXrDC/EJfWZ0HYFStVknkoRmMfSzL2iaSL9/AeMgLXo5YhtWYZ+TEccWQygq7xEeb+uQoF6RW8viTh4Fl/0OFAQ5MfPXX1V8aSzNyS+O7bmteHq1UEWqoubacwJQEyGI46KNRIRLgMvPuESOeIIz707Z9+1R/0dDwqFVNwLrE1FzhcjgvaWlZipKUl8otuOXopjzFKYYq/I8l5TNJkRMPv1Lf4R+NvmkB+WiCAQXA0iSJIDmN3OtHaQYSYSJHEhxXnGc9DC9BzmOWT2TsS33tf4vvvu6Dupfs4T+b9IvlhM/JjOOLgOC/LiOMSdI1IePZNyIlvSnjiJYwVjjO6vBt/rDQ4+QHxYT6fwpYkk59JfPt3aL/R3CDa+CAPoa/SYNgVMsFGZYBLwEEqonPfkoiJzSDgngUXFIm/RVNrUJaIUDMwMzcQiA6zJnPclTYd8WGZCVp/QJpcCQ18x9PEDeWoKikQquraagGh4bZVXXRq1aG1p5k5hLivFa+xrxXv2zoxvKnc4Eu+RiBzJVt8+4/adDn/2pRXkJxAN/JjOPLQMYpGkoMxxhad+aZEF74PBekNtaxq7h8qDA2OxiY/FMSqfS5LMv6hxLd+CcH2S1wVNUEwVwo0woSawYABQ/IDwcbJHkQiAKkIL7wluat/AeH2PX/Q0+HEBJpuHAnKlr87UsUgZC84s99hLBDLVBQzEpTFAT0BjE91c0VNLqcIyI3WDMsUF2qamXVGNU80zR/E9/jMmY2w/9njnLE+8Y1fo/0GxI0ZnhfdefH7fKyRwXCk4emA5v5hviy06AwUpMs/0fw/WsKGCwlobW1wNDb5gXBlTh8GZcaTn2jSsmT8fcgxpulnTh9zdxkMZSgxwXDnHO/JRnTpzyT38k91W23oCkwlQAW89oGUTyU/JDI+PoeWHwY374Nwjcc/kfjzn0kJTS0+rGfGc1Lyg5ti5MdgUDwqC8PcPy9qaozo5OsSDJyRcOiii6trcHDUNy5o+VkE8bn/rqSTn0u6vgTh2eYEuwkyg+EJVEzwTGpWWAMx2QQfAQHYD5BUkMQwCLm10wUps2L0k4376cKimZ0WH80IvQ+g5YmB21uQEyQ/SgQ98TEYDBWgrKCC1Crp5qokmF9Lt36ryYPVtX0I0JDkh/W7VKtknMHKlKQz1yWZvy+SX4cso7sLWmSD8zqDoeog8cFkr56rhEvUGZvDzK50R7E8hGvVAstdBN6VFfhVWF/Z+DmPA1mqajwBr6fcaImCzNCVaNjyTpD86H0xAmQwZNDUonQpM/lnHgrSwgNJJq6psSEtbOj8q3U0GxiNyRC49HZ1VpeupmuzbpUJizNqxWkvzAwGw1dDyUDsrD5+FZfG7hxK8FohqDU2ie43XKvGJWG/wWD4CjhlSccPV2wWMe9uLEiy8FDS5Wk1NjQyGpL8aMX2FZIfsFCSHwYvQqNT4WZmbIPh2dA5n/E/GC8Z+WHgr5KDQ0gIlOhVXC/Jj7r6jPwYDF8NzqOYT1VxwJhR8rMoKchPAvLDJKiNjMYhPyrAvBDbWgb7vKdmuGQFDJSm+0xoZyZss/4YDF+NbDwxbo4BycXM8uPH0SEBr4YrzFz5GxIfkh7IEPcJmsFg+BIem0fROFQoK1hFYeoLSeduqxXIKRX4MJt/GwiNZfnRGw1BtrUE9nlX09OnLEyY4MZzZZdafQwGw/NCl56TFNDtFR9Syw9jE5hriHEKvF6DwfD84Lzq51cWOE5mGWML8rOZkZ/GHFMNxhbIMEl+lpX8pFPXRKsyU2DrCq8qBkoaDEcBSgxAfoqMhaHl57ABsoHXVaJrj5YfIz8Gw46g5IepJzC/gvxwgVE6f0cks/w0qBW1YcgP84QkK7MST92SdHG84f2NBsOBQS3ZGPqZskBzdlyAHDuElh9eDi0+LNaqWd/p9jIYDLuDIzpMGZGszEg8fVu36jZvMDSO5Ydma9zkZOqmJIsTLqW+wWDYHdSfz+zIEGUkPQx4ZkBwA2pwzwYENWUHyI/mJ6H1x2Aw7A7KffAPV1xzPgb54eIjjbttMNQ9+dFgRWqm1NyWWbn9mqTz9x350Rgfim+DwfC80BweGPoBxw/dQCxBQXLAuJ9DZ/nB9ZDwlC0/JHgmMwyGXUGtxoHW9UuWHkoy/pEkmvtn0421rDUA6t/yk8Uk0My2OiHJ3BfYjuP9Bh4C43yMABkMu4Xm+SmAFOTXddWX8+EfMuAalfgw7oeCme4+kxsGw87BccPgZyYLxTycTH8s6fKYSBHzcTn+pzFQ/+SHN1TN1hu42SA/819g+xDCDEzTVngZDHtDFg/DGLrDaPmhMKbyxOKqvD4qU2XyYzAYdgaMmyCH+RcyYwXzMcnPygNv+cHYaiD5UfcSIN1alWRpwrm6WLurBEHGpe28x4/lIjAYDDsDxg2FFeN9NB6GlpFDZvmhqChbfljKI1F3n3P9mdwwGJ4bT863apiItfYXFyFpLO7WCkRKY8iQ+ic/64saVBWPu8KlgeRw1pm7y2Aw7AqZEAMZSEtFHw8DxaKBzNbPB5I7kDoGaBa2Ia8Z80PZwevXAwwGw47hLEASNrvCp1O3dDFSujoPOcIxVv+oSwahBRYplHkTmVdg4YGkc3fxehWfRpDZVrjUYNgbOPNjDFFLozuIZmy6hw6b20stW961Vy6Bw2s35mMw7BZqN+VqUcbdbq1LsnBfkvl7LuszxxvkSjWLJO8H6pNBqMCCtgZtNN1c1BifZPm+pNsgP6qxknWa8DIYdg9PABgDo6u9NjHmDmPMD+AtPxrYTYLH6zYCZDDsHjoPR2AQTZiX1yRdBPFZvC3p+qwqUjrOjPzsAupLpMAi+VmQZGXMBVWB/KQquJiczQSXwbAnQICpdZWxMEp+GPNzyMgPrkdrl21veKFMk7wRH4Nhb8jIT07JT7J0V5KFO5KA/KiFVclPfcf+1Cf5obBaA+mZB+FZBZPcWvXBit6XqKzThJfBsDtk4wcNY4pWnzSPMca4nwYJVnx+eCsyU2MwlxHjmjRe0OSHwbBrZHMwxxKTo9JLk1/R+TqZH3PzNuVJHaN+yQ9v4uxdbOfxHsKLwVUmtAyGKsELLpIBCimarlni4tCSHxfzo5YuU54MhioCcoTzc4lV3xclxbydLE9pnF09o27IjwY5Z00TKJH83NYS+mmxCFnlgpxNZBkM1YAnANDa0hKIwTbz/Gzj/SEjP/TiJVzNtumvj+QnE3smTQyGvSKAHAnCyLmU1xec0QLkR13pdKNnrc5QN+RHQcFELY0+xJUx3MTPQH5wE+lDtISGBkP1oJYPjCfmzPKrvXTsKVs4TMD1MP6A11e+RoPBUD1AjtDyQyVjY1aSueua9TktQKFSZao+ZUp9sQmuPIFwYt2udOWhkp8E5Celxmbkx2CoImj5wXiicKK7i5YRCK961ND2BlwPrwvX55a6gwgZDIbqgXKEgc9QMhjwnMzfwPw9JpKRnzqVKfXDJniTtjckXZvHjZuRdH1eZGsRQos1Q7yp2nz1BsPekY0jtDQtqdtLiusYZt4tVMcCa8fAdWgsE+UIr1PJj8kRg6FqUFlCRQoyg9bVrSVJNzCPM3SF8/k2ZEu2WKmOUFfkR0tZLE5KsjSFG4abyARKzOhsvnmDYX9AMhA78iOxt4wo8Tkk5IdQy48nP+WYH5MpBkPVoUaKnDCbOudxXfnFslSaX6u+UD/khxmdWSNkaRJtSgTkJwibQSojiKn6OU2D4VAhhVDiAoMSyc8htPxkbq8SA55J7jIrMpsRIIOhWtDAZ87XDFFhjr7laZCfh5JuLDulqs5w8KyCQpbClsFSTGi4eBfkh9mcIYwZRMUochNSBsP+glyHqzVY5wtaWqMveaeZnckNdRl/iTW9cF0gdqk09nUZDPUL7/5i/E9hU5KlMUnnb4H8zEG2YCzWGerApOLJDwOdmR1y7oYkczdF8isiEQuYWjZng6EmyAgDV0Rx8UEjgxYeXIur6bWtypVauRqc1BkM9QuSH2Z9xrzN+N35u5LMfC7p6rSTK3WGAyc/qqHRRMYszixiusFA5yUVXHojzTxtMNQADAwGOShuS1rE2CN5aGRozTJcBy0/JHNKeg6LK89gqENkgc+ct2np4Ty+Pqf1OVmlId3ehIzBWKwTHLzlh9rZ5opb4YWtCiwTVAZDjeAVC3V7FVURcYSh/nz0OwJdXJQtZfLDnaZEGQw1gYazYAzGUKY2lyVZmZZ0HSSI8qVOcPDkB1omSU+yDPKzRfKzjZ0gP4cm4NJgqHeQFKCR8NBNROtPo+fDoeWK2mdG5EyeGAw1hCM/Op9jXmfwM8mPKiN1goN3ezH52MqUpLO3XCkLamnm6jIYagSMM443JT/Q1CicNEamwd1ePo6wfC16jf46DQbDPsPLFYa1sOTFHEtejIvk1/znBw9Kg4MFszkvPpBk4hPcnEkIK5If5vY5+FMzGA4/nJDiElVdjkryUwRhaHS3l1p+SH6y+CXIkyyG0GAw7C80/gfzOFPYMNnh1KeSzIMA0btTJzgQSaDFS8kIuayW2R/XpiVZvC/ppk+GpELKNDSDYb+huTmUGISScqk7Fx+QADW624uWHxIfdXuR/DAHCQsjm1wxGPYf3vLDuT6/IunSOEjQlHvNWDzIl4NOp3EwahAvWtNg40ZwhVd+GUJ3FUKK/sCUEhlbE1IGQ03A8ZaiURlhJWYlDI1NfjRXUWFLki0oV7RkKUymGAy1AcZaZmVl8tTimhIf2cJcv8n5HvO/WmQPDgdDfrgMVZe3u5tB8pMWQIRAfhwbPJjTMhiOHkgIPCngai8uR2XQc6O7vUh+tnEdGflhwLOa4o0AGQy1AWsHUhFhvq01Ec7zID4671PJOprkB4KJy98WxyVhFHh+3e3XBRleQJmQMhhqBI41CCq6idTyQ62s6D5qVKhbPVvqDiKXyRaDwbD/yObwiiGnihXjf+bHJGG9L8qbA8TBkB9qZWSAixOSrsyKbEMzC5rRInxoAspgqCkyRcO7itRSonEyDQxd7QXSQwGrGiavMWsGg6E2wHjjvM6sz0xrszovycJDt+z9SJIftfysSELyAyZIF5grYppDM+FkMNQO2XjDNlvtpQVAG9ztRdd65VJ3wmSLwVBTcMTpQgNWegf5SdbmJV0Yk3Rj0Skm6hdTs2zNcSDkRyO9GeuzOg4GOIObsok7lC1DNQFlMNQMOtww7kgMSBbo8joEq700SSOuRVeTauJUClgVxfzYYDDUBBxvkC8sUF7CeFyflmTprsjGrL534/JgcDCWHwrZrQVJl+6BAE2IsIK7Vm8/mNMxGI4uIJzKbi+u9tpwBIhjtJGRXQtrBpLMKffhtbqPDQZDjcB5nZYfjEc1eMxfBwmawrjcpJaCA46A5UcDELfWJN1YwhZCqQDSQxM702DrDaoQxAaDoUbgmAt0VYZQQDHresMHPJdwLbT8QN5Qxpjlx2CoPbI5nU3j8Fg4GTKGyY1Z05N8oJyKoraoramFy9sZ6MQipqzySu3yAH1+BoPBCyZudUkqFBKu+DoElh/VLEF+nOWHGqbBYDg4UNb4RKNUTBj/o8VO6f6qPWpr+aEPnuRnedqZozWuwIiPwXBgUK3MW13V8rOumlnDkx/GFdKCtQ05o9ZlIz8Gw0HCZZPniu5Qc3AlqwsgQGhHgfxQo0zXZiVZnnBuL1p8rJSFwVAHwFikMsJsrCRBfM1VUiQNjWiZ5bnzOsor10jyTM4YDAcHr2iR/OQ3tKB5sjqtixIOArW1/GzjgpcnJZ33dbyojGlun9pyMIPB8ATIb8rkh8vD6ZJuUOIDpCmuhcTnMSsW5YwRIIPhQEDlI/RFyxn2svhQa36pF+gAsO+swxUxTdCgiZH8bMyJK3AGtqeWH5yCaWQGw4GCFCdNYxeH55vWxwIBwgh2B9U5VNbwfClr6PZKCriGbezDax5AOWOyxmA4IHDsOQVEV36tzagnSIOfKWswbjmGa4V9Jz8qVqlRcqVXgRHeC2iz0MhIfqBZqhnMBJLBcLDAOFVLD4UQiQ8IEJOQMUtyw1h/KGtAfHjeeu64BrVgYV+DEDiD4fCiQvlgPN7mnOMC2ytuUQLHK2VQjbD/5Icyx/vfuZIk3ZqXdAOMj6/1QyM+BkNdwJMfJQwZ+eHYbRTyUylrNG6JzZMf4z4GQx0g0KGoixG2QH7oCWK19wLIT4ljtXYDtQbkJ1YXF2t6yKZneO7y9WMzRRsMdQaSILqNlEA0EPmhTKH5XGuT+XPnvoY5f4PhEOOxud6Py9K2aKmrlWndqtJVI+w/+aEAAvlJuKRtkwnHoFlakLPBUL+AUNLyEOo28gSiEUBhqi52kp8i3vLcDQZD3UFjfcED4tglOvS5/9TNXiPUhPyUL25zWU1bAS7arfk3i4/BUH8giQBxoFZGMlFDP/ze4MkPLT80oSckbWZZNhjqCW7mx39KfkrgBauSLE8pP9BYwxph/8kPL25jUdLFMUnX5pxg4kVroLPBYKgbZNoYOQPjfTTTM7aNQn54nhSePG+cf8D3vB4lQO4Qg8FQB/Cyhqu8hKRnaQLkZ8mN3xqhBpYfkJ/1OUnm7khKvx6zOYZN+MALJYPBUCcgSSD5Afsh+WHyMW4bhvz482ZBU7q++N4KJhsM9QeOSeb8KdE4siDp/D2RtXk3fmuE/ZMKFDwQmjRjpfklSdcmJd1aBLODUFIha8THYKgXODM0G0SCkgiM220oKmX3UQMA5635Qgrbkup5J+66/H8Gg6FewPEIWcO0GvllSdcnsCU/8MqW8of9lTv7qBI58qPLTbdxcRtMbLgIoUS3F3/WhJHBUF/gmEQD2eHChGQ770hEA1l+UgZQckUpyRvIj8FgqEdAzkDZ4orSdHtFkvVJNZKocUTlzf4rXPtGfjSrM/15EERpflWY30dYZJB5N9Tf5y7eYDDUCzz5UcsPhZKLnWkY8kOBWbb84Lx1pZrBYKgrZHM/eQAXKBTWRDTZ4TLG7Zaz3nKhlD98v7B/lh+WrGcFd+b30aqtJDwW52Mw1DUolCh4GDTMQESO40YhEWXStuEWVqjlx+SNwVC3yEhQwPifosjGMuTOkuMMjer20iKmK7OSLNHdtQkR5MmPWXsMhjoFxyZN0dDGWHV5fQFCCCSoYcgPyA7d6kyqSuHJ886szAaDoQ5B8kNeAPIDhYUyJ2XgMxct7LPFed/Ij7q7qDmqAM3jQgLIoBCXaoLIYKhL6NDEPxA66osH8XHuowZxe2nMT9FZrUiClLTxokzmGAz1CLcUAbyAy94LkDlKftDocm9Yyw8IT7pB8rPoAhD1p9hMEBkMdQ1qXMy3oQSihB2NQn543iBrStqYoJHnbeTHYKhfYGyq64vkJy/J6oIka/POdX1oLD/ZRZogMhjqGxQ6JD0Z+dlnDaxq4Hmq5cfH/LC8hbm8DIb6hQ5P0BC6vsgZVkF82PKNbPkpbki6MSvp2pQTRhq7zYvUjw0GQ90Bg5Nkge4jBg5rssDGWe2V4jzVTVd2e+G8yzE/JngMhvqDlznY6uKK9Rm0aZHttX2XO/to+dmUdHMBF8KSFhBGhAkhg6GO4ccnNS7m5+K45bZByA9OFOdbhOLF5bK0/PC8TeYYDPUNjE8qKVzmvjkv6QZakQaTBiI/KTVGLpPV/D5bYG8rkura/W2IJRNCBkNdQ4coRAJJA8dsYU3HbsOQH3V70fLDshyZ2yuz/BgMhvoEyY9PeJgHZ8gvgzs417UuYNinBRfVtfxQSDJQkr47Wn7I3thS7PMXqFuDwVCH4Bgl+QFpoNWHGVehjTXcUncmU1WrVRbzYzLHYKhPUOZUyJ0Y8oZK1zZaHkoM44X3Sf5UmfxA82KiIp4w82yQ+JQohEomhAyGuocfoxQ2HLckPyQRKVd8NQAyixXjBWh51pVqFHEmdwyG+gXHJ8apLrKg0QSkZ3td0i20hiE/NFFtrkjC6u1bK44IVZIeZXgmiAyGukM2NtFS/gdBRDM03Uga/Ky1svZHCO0ZVLpIfKA5psk2zhkCNAYJylZ7Zc1gMNQXKsenjlG0JAEB4mpxcAiQIKfEVB9VJj8QmFurkq7MYAvtK6bwsazOBkNDoUwmWGMHCgxd2Wz1Sn4Y6Mzz5fkx4DmGtpg2UqC2wWBQOgK+EKTgC0xVwZqgTHbIGOJ9QHXJD7VFkJ9kddb560B+AsHF4Gcss7PB0CgAmdCVFiQUEDxqAapf8lMuolwmadm5GvkxGBoFmu2ZxhIqX1meQJbJagTLj5rFGaW9sYgtY30gfHgxRnwMhgYDxywaxrS6vUiA6EaqR1A4Ulgyvw/Jj5I3g8HQUFAPUeiUGdbnW5vT4sqaa2wfUH23V35N0tU5d/Lq9qIpy8iPwdCIUIWGwodmaI7negQIjyZIo5aoS9z9foPB0EAAT6CxhORna83FDtOQ0hjkBye5tSjpyji2YGw0P6vlp7o/YzAY9hPe6qOWn0SVGlVs6tbyw3OErOECiwTMRxUuyhxTugyGxgHJD8YtFS7m+1md1KSHmr5iH1Bl8sPVXotgbGNgbmBsFEgkP2b5MRgaE9TCSiA+JEAkGXUILWtBqxRbmrq4ASU/1RVvBoNhH0GeoJafWDTZ4cq4y/ZcYm3Q6mPP0kGzOvumy2K3lhxj48lTYIZeEBkBMhgaD9TCylaVOrf8sNHyo4ss0EzmGAyNA/IE8AVVZpjkcG1aZJNuL6atwL6MZ1QJ1VGNfFyA+ttZU4e5NjRCuz41RYPB8AyoBkaFJaekh/73NM+syftjft4zNOCZ5Ti2HAGyoB+DoXHBFBVMrAoeoWkrmLCUyQ6rPLarQ340LTU1LxAgFkLUYog4+SqyNIPBUEMo+YkwpjGOuYIzz2Di/Qk83DNU+QIx06BsKl0Gg6FxAd6g/AHyhslKObbVsFJdTrF38sOTodWnAOFIIanszGAwNCo03wb/IwGCwNEq6dS+6nVs6zlyqTurueMcKR/N42UwND5o1S1sem5Bo0o9kR9KGmpcW6vQDtdAhHCyNJdbnI/B0MDg2A1EE4wVML7V7IzX9Qiel9YT3FQ3XXbuBoOhEcGxS/4AHsF4PrU8s14fxngVs7ZXyfKDk2JMAFoAQRSEOfAeBh2aADIYGg+ePKjlJ3ZCh03j+OoPtPa4PD9ZkkPCX4PBYGgoOKszFyx48kOlhvyCrq96Iz8pNMNkY1XSjTUfF2CCx2BoaKjVFk2JxaZza9dtzA8ID6vPl8/R5I/B0PgIdMV4kt+QhIsutMJ7PZEfAfkBI2P5+YRZndXszK814WMwNC48gUgqYn5IMuoR5ZifCstPRt4MBkNjQYcu/lHLM5e9Q/5sQbEpMuan3txeXGbKshas5K4xP/haEz4GQ2MiG7YYw5qri8TnOQOeXS4OCCwmKiMp4WIIyocsIHnbBS9q+Rtu2WhZUoLFlR04ntYm/j20vOfK68HzIvEpZAsuTPYYDI0NP4YpQygrtlZVhtSf24u+OI35Afmh8CH54Ymb/DEYGhAcu2wYx+pSen7yo+DScx5LYUViQ8Voc0XSjSVJ1xe0YGG6OoPtLN7Pa/0ereBMGcLgRv4dSJCLMfp68uNifkio6HaHLCL0/N1Lg8HQSPCyJ4ic8qXyY8kpOPXl9sLJUKOj8NpCo9AL/Wovkz4GQ4PCC6CMWKhV5TljfrKkp7TmQGuTLRCfdRCcVRCdFRCe5Wm0CZHlKRGQIGH1ZnwuJEgUdExWqOQH3/Mchh8NhOTfsZ4giVPZ6mzyx2BoPHDcQvawOgTlDyu7Q2lSy24V6wsG6R7zRdNsHd/8HdpvJZm5iROdhyDCyWbCU0mQwWBoGKhIQKOJualdJNcq4fBlia7+pTS98a9dXB81Msb6qWUHQokEaRtEJyNKJWhp6sLCcbQexfguam0UXkpqYnAUJ+DSkHICgo7CLsrhJZSnqBm/3SZBU4dIc4cELZ1u28r37djfgmOatMVf/FxKn/9MkocfeSsVfltZE7/XCJDB0FCg/FH3FlpLlwRtgxIMnJHo8p+h/UDCrmPuuD2iOuTni19ICS2duYH3XI8P4Wfkx2BoTJRFArZqxY0c+Xnlb6Xpm/87jPEtZ53hCoz1eUlWvAuLtXjW5/D5iqRF7wKnEFNBRhKCpl/thJurvRVIqlt+gKbuKpIikKAmCL6WHpGOAQm6RtCGJegZwhbv27olAAkiEYo//y9S+uyfJRn70BEtWo0yGPkxGBoLleQn16YEKOw7LdGLP9EWdg+54/aI3ZMf/2fU9kqf/rPEFD4zNyHwttEofLzWZeTHYGh4BIPnIHj+UnKv/4MmNNV6XxvLGruTLE1KusI2gfcgQAWQnwLID1PUZ6BlB7IgeIqnPVUy5KxBZVBukPw090jQCcLTewLEB63vuIQ9xyTo6FcCJK3dEt/8tcTXfynJ5KePrEsGg6ExodzCK00hrbstGPcnJPfS30j08t+A/Iy44/ao2OyN/ODkGKRY+uT/J6Vr/wvIzy18AAGnJ+WbaV4GQ+OjY1DCkSsSnnwN5IcBymj5FRFagZhcUFdurbuAZS1IWMQfUXvL4JShpyU+deTHC7wycBwEXwDBp24uur3QghZqgq0SgPQEbf0iaOncHcieGy6OSL9ndyLNYDDUAcpjmCtHnVwIe45L9Oq/lNyrf4/Xo45X7NGwsgfy45gZgwxLH/17bcksyE/UBoHV6g8CjPwYDI2PHMZ0W68EIEHp5qwImrq4mYlVcjggG+cUSgHE1tPH/VeSn6cC3/IYmeGRtBCVXDxQ+5A2PQ8GOzPWyGAwNDYqKIkWSo83Jegaktzr/xrt30jYexKKkbMk7wW7/mvNw8FVXlyDzxwe9LWrnw5QVuabwWBofHDZ+TbG+tqMEg3NtspgZubhYACzbymIicoCCq3Kpm6tSiKTwdGkALIj4DH8nfLfF/X73He739I4Im59PcF0fc6l2aiM8zEYDI2Lx/gD5AXlBmUDw2nIObjQgjJhj9g9daIA4rp7Jjbk8tIqrr83GAx1Bgob1vDbJtGgS4srs9ogQVrRstQW/jgKqZi5erhk3TetyIzPnrDklAWbkhwSHsYM+r/l36iQ87KFq8LCZve7QRN24290gQWOrYwvMhgMhwv0MkHuqMGlSkWWd09+IJSc5ceTHwowg8FwOEGrLvPpFNYheIpQyiLwnRa0JrwG+aEZGs0tU2fD+xy2TSApTc0SNLdK0NIuwqXqjN9p7fJbxvK45evShGNwrOTwN/xbNP0+Bj36VWda6Znv8VozSHNlKc+rCpqgwWCoU1BJUvKz6Y0tex/vu4750XTTzNK6NCHx7V9rS5bGIbCeiPkxGAyNj7LFhpYaF+/n3tM0DR0KZCZo60Pr8QTH5+LJgfigacxQhNckMc7R5f+eQY34LnVnFZTIaJZmbrch5FgOI8/VZcuiyRLVGkTLE/6WRIgkTK1OmZncYDAcFqS6ejwvQXuvRBd/JNGFH0lw7LyEPcMSdPT5o3aH3ZMfZmNdngD5GZf47u8kvvN7SZYnIeCgDXKFhsFgODyoFBMa34dG7UutMaEE3VyGfhbtlAQ9I3h/DESIeXoyIuTIj1qInoRalQqO9NCFxcSJXD22tijJypxbRr80BnmDVlzHsdD+eD5UstDKQdRGfgyGQwUX8LytaS2iM9+T8Cza0EUJBk5JCBmzF+ye/KxDMC08kBQtfvC2JPffkXR1CsKNmVch5AwGQ+Oj0uKTkQxadNRF5ZehM/Ny13GQnpNoo3gN4tPZLwFdWs1t+LwNMqEJLQee9GXy4yw/JSVAavGhWZsEaGNZkjXWApt1BGgVLb/kApyZSZpVngtoZStUBrMCGQyHAlS0aP1p7Zbw1DddG7ok4fA5CXuP+4N2h12Tn2R1TvP6pLN3JZn4UJLxD1VIuaRERn4MhkMBWncycqGEIniUcLAHhKdrUE3Q0tqjuXc0Hb3G8ID00N2l8T+M0WGwMnOAfTnMUEUQf4O/VbGqS1eRbtMSBKLD2MJtZpQGEdoAIVqZlnTxoSSLY0qY9O+Vn+H7tRn5MRgaHkp+oOC0dkk4+rqEJ9CGL0t4HASo/6Q/aHfYPflZnpJ4/HNJpm9KOv0Ztp+KQCipoCMBMhgMjYlKkaDEB42EwtfSCo+/LOHISxIMvyAhzc9D50F0ajPm0+VJVbKS2TsSj0Hpegila2vFCUgSJ7X6kGB58mMkyGBoXGSpL5o7IHNelgByJxx5QaKTVyUcPOMP2h2+rIY9Lygg1VTtff+ECRqD4RCAlhgKHRCKXItmUQ76z0l45puSe+VfSHTxLWhgED79JyRo71GLTs1AN1vHAATfWYnOvinRS38t0bnvSDB4UaR9UJj8UM9dl76TuBkMhkMBzfVDSxA5x97H9h7ID35cTdTUuDz5UW3LCJDB0NDIxrYnPywjQfITnf6W5F4l+fm+hKMZ+enFkK8t+ZHOAa01Fp55U3JX/1rCs98GGbqIc/HkR8+dBMjIj8HQ2Mg4BRoJD40tNLpUYWzvXmqR8PjARCVAtASZ5cdgODho7AwbBIM2jFFtfJ19hvY0lP8Ox3Mcc3UW43cY13PsgqvrNfKChHR19buVFq6yeisOr924ZxwRq7kH7X0S9p7QlR96Tjw3vsY+4XJ7nj9XomUxS8+87qz56y//TcV9MxgMBwOVLymGJohPkXl+ttwY3SP2QH7AvpjunqnuNckhBIVZfgyGA4afxNX6QfMwW6Ypfc0krhM/jueqLFp7+s5LePyqcy+dekUCrq7IAorrYZxTKOJcgu4hZ4k6901sX5ag/4IEHcc0x5ArrYHrf+a1+3umrj7eL1qzn/OeGQyG/YOKGfzDYcgFEMwvSN5BIrRH7J78MLtqfk3SjUVn/aFJSoVRHQhFg+FIIpvE/UROi6xaZTn5+/3PmsxJfng8A5s7QSgGXwDpAfG59AOJzn9LwoHTkBgur8+Bj3NPfHg+Yd8oCNo3JHf5hxKeBgE69qIEnSBqXIqvROZrtES17ODeKGHk8bxnEK6Z1cwIkMFwQPDjnGOQ5GdzSWv6qZzaI3a92iue+ExKn/wnSe68LWmBy1CZ9h4nlAklg8FQXehQ9cPVT8qaI4f7uA1ZDgITfq7V5dhp6ZCAAcsQIFo+FIJDhQern+sYJYHh36LxJVNUgPgwUWE4ctW1oQsgQaddYHOdI93elGRhTJKZO5LOXJdk+nNJ5u9ALoHIMIeQXqeXT7xfbMxX1NYn0t6H3V7IggSl+Q1NtEgzu8sy62Ub9MVHGaUzOcfX/MxgMFQV2Til0tXMNBrM9/Oa5F79Oyhk3/YH7Q7Z6N05qCUVWWQMxId5Nig0VACYEDAY9g8kKxQI3kVFKwULgca+uCfz6rT2gsCckXD0NQiKb0l48g19zfw8GgtTdulUfh8akxV2DEvYd1ZjfKIzr2tQM3P2NARyzRL2jKiLLjz+ogQD5yToHFGhqVBLDq5XX+N6eR9I9rpHcPxL7j7xfp34Bv72vK4q09VutArFjG3EfVbLkFmFDIaagmMNSgj5htbz49jdI3ZPfjj4WXlZCx1Sq8LJURMyDchg2B04MT/WMKbQUoy1NEHTpdsYX9SCOCkz8Jc1tdpBdrgCqnsIBGcUhAXE59glN6GDxAR9tNz0O3LDv9Xv9ZO2bvAPxi6PCfC3GuB87BzaWZepmbEzDQAWQQ06ep2liuc/eEFXqSmJ0ZpileCFU2bhfjIhI+uS9Z6UcOiyBMxjxC3JU98J3Ndh3IdBDbLm/dYVZ1qrrEnvG59LSmsRn1NGip58lgaDYffgGCLP8AHPHG97xe7dXg/ek9I7/73EN36lAkB5VNkMbDAYdgwdir7ppOkmUp1QdaKOJGjudiSmDYSHy8zbe7BFa6ObqxOf0zTMfXTl4PP8uiRTX0j88GNXHgJNtpbwXa4oaPm3mlokuvhDCc98S4kP63PtNX38QSJZnZV0eUrSxTHIqvclvvM7kc1lXDPIDuWUWr9wX3kvu0e1hSe9xQgkkscyeaKW02BmabYtKHqbLLLqmjDmcRvHbON7NQbByUB1i/maZ/jHNVMKDYad4zGZSOUvdSkuvv1/lNwLP+YRu8bu2QpPhAO+RJM7zcA8QYPBsDdwkLNhYi6vPGLMCZd3Yku3Vku3m7CPvYAJ+1sgLT+W6KV/KbmX0a7+tUQvMPD3ddHMy+3dkjJuZeYGiM+0Bg26iTmbjD0ZYD6f/lPO1TV6VetzNTJY8TkcuSjh2TeEmWAD5v8pkxFu/HVDdqXr85LO3daaYUFrhx4fnnpFkznmXvxL3Nu/w739e4ku/wXu67clGH5J3YpM/lhOqqjPJ3OLeWLlhbXBYNgL/JjlmMri71Qh3BuifwT8669HmeCk0KrGJRmHNrlwD+dGYZppOgaD4SvxmCbDCdK5tHQCZcM40iBljb+hK2vE1dLqPyvhMea0uQJScwmvGYiMfXTL9NItg2NbXCFRdYlx4mWldBCelIG/4x84oVHOjMpzwOvWThCdIQn5/adYNwffzfw9tczavA9g7qFAXV2BpBsM9F5xH/C+MGZAr98LVd5/Vo7uG3X3s3PwkWsxana5hUgO+X2MK2KVenU39uHe9bv6ZnxOXWhtfA5d+HvnEuPvpWlGiBL8In6/3Ac8zCpkMDwdqqRwwQbGC8cQFMKwdwRK32uQf+dwgB9HuxhDOyM/hNdmlPxMkPzcxw8b+TEYng9+4uM4UvLjSY8ur8aWk2wTiQ/z7JzRuBXGn0SjL6HRLXNVIhb2I/HpHVXSE7Yz2SBIj8agYBzy+1kVnW6ZJYxTkp+pj7GbYxekgAZf/e0i/v6YBPyNEX4viE/vcVet/TCA8pBEo0CrDIgHr58xiutz7jPIKxWdPmhcr70HBIYxVJRlrFdGEsSDWZSVMUWMD6KbkYQHZIkxQeHAGWxP416S/NAa1M5v9cIa311iKpAidsT4Jv1FQE/Ab/iPwWD4SnAce/LDxKvRiVchA8+7zzxB2il2RH7csIUAYfDl8oRafpIK8vO0is0Gw5FC2TpK8DV1FqcwKPnQ+Q7/cFIlWaFVAWRDMyW3tkvYOeStPaedlYeZlYdfkAikh/Eo1HaCAXzWM6yunaCtC3+Pv+XErFXT8d2Y6FPGrKzOqXKSzF6XdPYLnAPGZ8Dj8NsqSEoS9uO7SKpOfcNN5m2Y2OlaqzJSWpxoYflSw/6Ke1a1bNFlgciG72eAMgnI5jwI4Rh2416oZQifKfnZAqEBEWz3FjSuAmOqAG55X3Gs3mdayhhUjWMdWTqO+3YKW9w7/K0wFotWO8pE/k2OW/wciJRa9JhOQK1ClJnu3FxMl+sr7uof3Q9Fte6JwdCooIzQ3FskPyMSnXxVreHZON+N3Nih5YeCwgmtdOmhxHR7zXu3Fwe6kR+DAXATWdm6Q6LBgcvJF8RD40+4HL2by8oxcQ6cB8GhdYeWnZckGgHJKVt3RiSkFQgkR5epkzDxO5412PF76co0FJOHkszfh6LyEERoCn/HibdinFJusEYWrUoM9GUuH5IwtXZUGUUQjCKXqnKFKBtXbZB0QJjFuEe8HBK4qk/0IBR4FEromBl2ZUpllxKfsrzis8Jbrohr6sB5kIyyhAae0XOtdPPCN7MMtXWCxA7os2McVThwVleSBV0gS20gSAxMJwnKBDotQ2oBJPnBvgx6K/iQqn1PDIYGg44VjpGSKocqK/vPuLGBcbwb7rGzv+C4pEAn+VGBDqFVobUYDAZAB2pm6SDpYZAeFwZgkqMViK4tWhj6MCmOvCLR2e9JdOkvJGLA8ks/lehFvL74FrSbl91y855hkbZuXZEl0XMQE/42XV4rk0qCJI/f9cTHDXknMGgF0tiirkGcy3H8BgjWfhAfIi5oEkLZwnltrki6vijpxrJbPaXJBEGEeN+qDV4nrTV0ZzGIm0vVeS+osGXEQpW3Jklxn9JlkMb5MY0T0oUcXwd+PwkprUR0hQ2cgmB+UROwRVd+LLmrfyPRK38v0QusPv99zSEUDlxyRKi50/1+OYcQ+kkWMK2xQWgmVw2GxwE5kbK4qRY5JQfZ3RjZ0VJ3DcxkptTStsQP3pHSu/+9xLd+jcHPIEtoPDTnGgyHGeXh4reYoDQYT19ji8lMA2PZ6DJh3AgbSQta0NoHkgHi0zmslp+ga1hC5pBhPp0uJtXDxExX2B5ISFrYlPj2HyW+80dJpm9gIp8TWQMJykgPv7upXS1J0YW3MEH/pW6rARUnSvzQGHfEZeF5NJ+WXi0/JIQUXnqP6BoCqaO7jZYWBluT6GnQMAmad+VVAfH4NYmv/0LiL34hXAFXzkqfkQzWM2Ouo4GzrqQHWghCs1to9m1eJ1eUMeh6bcGRvrU5bNHWpnBfsN2chUyFbFWBXoJgpzWIpBmvlTzje/w9UJepvs4aN35rMBxSKPfgikq08OTrknvz/yC5Sz9WS7Vmad+Fq37n5KcI7YTk5z7Iz/v/g5Efw9GCDhdO8NxiUkorE9uhkfAwF09TpwYja+CyNubiwX6uEmrhFu9bOjB4cRxdLAxYbkEjMUHbiwuZhf/iz38mpc//iyQzNzFe887NlJ0zLU9cKg8CFp55A8TnOxKdes398R6h4oQKEif85SlJZm9LMncHk/88iNAi5AcEWHaveI2cuHk+SjxAAunqY3X2/tPYT9JIIrj7e1GJZPaOxPfeQ3tX8x1p7A8DoDNSSBLGc+k76VIGXP0rzRi9WzwigpSbeWf5AvkjOWWJESWF26sgYSSHaBvLvoEksWYi92+vuOen9wpEUAOI0EfKMUM8dyM/hsON+iA/BQxEDGS1/Lz/P0LD/I2RH8PhwlOGRNm6A5TjMjixZcHM2OoxHAftQxrbwWzJnMQ5meoS6h7sZ3ZgBjjvw4qq8lDGpFr66D9I6eP/2ZEfjEuNMVErAhrOIRx5VYKhKxIdvyLhKGOM/MqJXaL82ySCau1ZV6sTiQabbM2C/CxgIsfErxYLNv83JDitAyK4byRh0dlvCev3aOAxCaMXbHu1ACVLIGPTt3z7TJKJ95VoaAAym666K0rYPSzRa/9Kcq//K00zQFQ/Fom3ilYhWtKLkqxMS7o4gXN0pCxZpOttVmRjCgRoDUfT5kMSiPNQYszGO/jovNQq9DQYOTI0OB4nP689Ij+Mg2ScIl3PO8TOAp5pfqVGx8DFpXGJpz512pMXHrrCwWA4FMDErBM6+rxadtzEiAHgSD6Dlrmyp4flJM5KMHhRIq7MYsDyqCsroUVBB049WpnV2gFyBBJCV0+VrBmPQa0MJbX8aG4fNFpc1JJEFxMFCK+FmpKWsLgIYjaq7ja1Su0FmYWjsKUZpZOx90EuPtEFEeka3TpQmpQs0rLF+CNPONRFSNmBLW83j2EeHrrJGNyo5AfHYQLf64KKlDUIqbzRrcRVX8sPNHuzWtsou3hvGG8DYZrlUlICVoXffjp4wZ7MkKDQasgcQu09IGBDfik9+g9LjjBgunNYA+VdzBIJDe85Y4Sc605zCGkD9HNPevS1wdDAoCzOAp4ZKjB8FWMDimUWXsAxvEPsfEQrAaIvmoLUDzSD4VCBAw19OyM9bNTQs6DUEJNJEyapDkxQg5ehibwp0YU/k+jKTyX38t9J9OJfSe7Kn0t07psSjoIEgQAxpsfVhOLEvx8TKcBzZqwIlRNO9CRreg2V4xTXxqXbrV1q4dASGdSe9gr+BolXYVOSmesS3/ylJHf/IMn8LXXfKKkIQGJyvAfOUuwa3octTq6waOHifUnuvyPx9Z9JPPmZKyNBCwk/3yNUO9SkjoPYgoiSFFTeH33m/C3cNwZo08VPokRZtx8g6aHwZowXCQ+TLI5ckujMNyS6/AP0o790/emlfyHRxT/X7NLhMMtvjKIvMSaKhJb9knFU7JskQuyv2TWRXBkMhwwkQhkP2UM/36EU5qSAgcUBpoPMBpehAaFaBBsnOzaXZVmLU2LiU/cVNQldkt4j0nFMLTwBc+IMnpeAMSlcij7yggS08HBpOhtz8WBy0pgVFtZkAjzNHcP4HpAl5nrZYzzPM6ECARMgg4qZ3bmsoLhxyutyOYcw7zLGqKPX5a1hbM1ewd9jLSzW1Fp6KOn8Xd2qBUeDilNcNy1QvAdPNFp9CJKc/LKkKxOSzN1238PgYHyvWo72Clrc+BxoheP1k8R+SXiyX6AvMG6JpUC43SfyQ1eayyGE+0JrXFu3XyJ/HISZxWmZAoHWROZ4QtMUCOxrL2CLvpdZp2gZ6jkh0nlMA8c1mB3EiFeVgsxpn1aZ7fuDNl5n5XUbDA0C9lvK6lLWp3fXj3cmhfVHSX6oDZH8OEFqMDQe/CSgkwIbJjlq0BqTgn4O4hN0esvO6W9BE/+J5F75B8m9+b+X3Df+reRe+3vJvfgTic5+AxMRJiAmvKOLRpej+8m81sDYVJf09oabvL9kLeE1cyJHyzkioFYfWhD2iJRL2JlXaPKGJKvz+BncU7qSSCL5/eoSf4b7Ra0gOCZznVO4bSxJMntPkoVxDQjeM3gemocHz4mBkiQ/jiLox2VQzpHM8T7q6jTeswMA7wUJMwlb9zEQnbPoi69I7vIPJffq30nT6/9Kcm/8t3j9b9xS+rNvgXhfxbHHHQHi5WmfRisvpac1kP3iyb5hMDQI0H91RaTW+SIPeWL8Pid2oYL6CUOF6O5+1GA4WKDfcsCoBkwyn5EfDiZMFMyKx5U/XH3EmlfHX9WJJbr8V5JjAVHmbiHxufg9iU68hEkJWjqDmTXbcotq8gcCXo9O2iBwJD86yVVAr5njFvtpBeEqM5K1apwviEKyNA2ycldEc+TgdzSWBd+t5Ievv4L8cH/mAlKrGN6TyG2uaKJG5t5hAPWeUbawdLrr1t96igzjfaJw5cqsfbT8fB3UKsR4Bgao0yI0cFKi4y9IdB5k/MqPnHuVRVevoD+e+4GEJ96QYOCiumPVasn7qn06c4mR+HjZrRPGU67dYKh3sO9SZnOM7oGHcPTvCFzVoSs7smYw1Bu0b5LYoKmlsoQxAlKASSAtbWI3Bg3jbqgdsxjl4CWdOBhXodXRrzLR4F9KdAma9OnXhCuhAmbr7aBLgWSBlpKvmMgPEnq9JHKc4PA6IxVPniv30zqlS8kzwrE3pHRL0WXF/DVcyk0o2dnpffLnzFYE+eD3bfol8nsFT4XP3VujNFhSLU3++ivvl7eiKZk8KMvPM4Fz1GeI/kjSTfJNEn7qZSXltEoqSX/5X0r0Avryme9qQs2gl9Xo+/TvUqF7D+MBhD8lSSrHDPmxY/LdUC/g2M3GZzZG9wg/6ncAjofEiI+h3pERIEd+XBCrt+ywpAAnPZAfLUZJ8nMS5OfSjyX38t9LBPKT0yzL35fo1KsSDp13pQpY/oGTjRKGvQ++qkNJXywBrpXL8R/lhHlymDPWJHKxPrwWdf/sEaVtF/OTkR+VD7sQUirgHCFJmRtnfV6Xo6fVID88F5IfXLMjPp78lJ8ltzxnNBIeBo0foOXna0ES19TsYoV6htUtxqzg0YXvgrz/hZKfHIOlQX5CkJ/wOMhP3xkc3+/6McfHY9mlvSbN/bvUpg2G/QPGZVme7VCuPAX8lh2AA8I3FW4UVL4ZDLWCTvJZywgOtFhaeCDAXaFI9ElO7FxhxezBrF7OoOVyICkIDwNIuSz9JAgOC3ue/qZEZ78t0ek3dR9dDOEgXVp+qTpLGJSDluu0z+u4ZANwjgyuxr/ufSV03FKY8LMqXItaSkBQChvOHE2Uv38nyM4Ljd/DpegkU9l37gEaYMz7oZYf9xsahA0xyHuk/2XnTAVP0+d7S0idwQVL49yz5fEstsrl8Sx6O3JZwhOvoD+D0J/9Dvrzt/Q1k8NpEVsNzEffxjhgNmvmMuLyYWFts2bWNuNSela855hywdKPyhlxvGVjz/czg2Gf4cYm//WyQcUK+1/Wdg58y26AH6OMopDwWpo/G4OhRmCHz4gPLTvQ0KnBqmUHr1lOglmWO4Y0B0944nWJzv9Aci/+rVs6/NJPoRn/BfZhcjiByQAkR5ejMwCYFhEOsEYDx2OYkzTk+XNcftWYTDGHJW5CY1B0VSYxkgqQTZ04n/XbOwGFHC1T+D5em+H5wf5L8s8YNBIjLqMfxjg4g3HA0h20DDFeiGPh0k9AkL6Dz1+CgnBSpJW5lfAcObY4nh6LGaJiQTJYjT5jMOwGWWrPvfXBXUj4isrDysBMMBkOAuiDqn2S/EAoq3D2bi2+54RJLZYlHAYg9EdJfv4MQv9vJffyv4DQ/6lEJD8Xvg1iRPJz2ufiAflhPphGJD8UCRyPID/p1xEQdXnw3nEyq8JEpsQL901bNWQCrwXP4Mm4HMPzgfef/Zgxaky1oDmELoLkYBxcphLwl1AAMBZe+pcSXfyxMIdQMOLJTwvdu/hbzW/F8ZSRH5Jl9BdzixkOHBkP2X0/3JlEwe8E7PgYAIGaQHkCj/4zGKoGJTa0SrC/UegWwXN80DJIjnZ5Dfbsl6D3lJZq0IrZXJV1ESTnwvdd7MOZNxy5GWI+lJMSdA8Ji1dSu2X2XrfiqVUCJppjLAgmXOceacD+rGQBRIGTHt06uEt0AbpEYBXgzaM7h/EsdCd9aUn8LsB7yMKkXSzh0Ybf8C4TtRQ8P3iumpsmLbqVc6yP1t6nz2iv0MUaIHxpiX0J16/3xt0fZkDS/7I+x/un2bhxL5V8NRayPpy5+dQ9xj7Opf6sKccac7yvnYMS9oIYDZ6ViO4ylhehNfS8H0fn3tJ4OJdR94xIB4vv4lngu1MQIh2PzOOkCoi7p3r/qmJNNBi+jKCs9LK/7b6v7VCd4o/ix8oagHVww36Bfc13cs26m1l26NpCIzeBEGYuHi7vJfHhct/clb92pvyr2F75CQjQd/DZyyA/Zx3xoeDfzyzLBwkSNlaOZw4fTk7qFkTjvSyDNw7vMYaZBTojAXuFkhMWcGUhUEywjBdxbhL+/g6g8oUTKVozyA+fGSZojd3aKzLZVSZ92bX7c+Tn+h73hySSVpND21dwTSR2JP+deG5QDBgrFJ17U3Iv/FBXO+au/i22PwUR+iEI0JsSDF4GucXzbWIOIfx92dLqLUO6jJ73kP2tss8ZDNUE5RflC5sfu7vAjkc1YwU0rTRN5kZ+DNWEkh0KT9+hOenQ7UFNs7lDSzJotuSufq22HfSfkvDYJRfEefqbEp77HrTVH0l0+cdq+QnPM3gZmuwIyBGFO2tYVWRaPnRQ8sP7RYuFvz69l9k4JfFBS0GMGMzLQGJmMaYQ2Ss4iTLglrFTDA7nOfDn+NvZM/0qeaHP3R/H4/U68IxoScIz1gSSePZ7BmUXl67zunUJu5+sy+D5+XOgFZBWElqf2AcPGTSHEMcBi0IyJqjXrxY78RII0Lcwft6S6NKfq0ssOo+xxKBpBlEPvYBnwlpjeCZdg+5ZM0aILmaOU96rjCx+3XM3GHYBTbUDmaWJDvdghNkZ+dEfZXZFz7qsUxuqCvQnNWdCi+QEyERt7ayOzkSDELxnvivRC0zs5pejX2HMznehlb6sgltXZTF7r2rrnLB09j064IRGbZ7uQF4/72El+D6LBSpi8t9adxmMaf3ZI0gqdbURyQ8roXfgWbSAqPI81CpAgvUMeeGfu7oeW+g+G1V3Jt0xmmagtdMfuAeQ7PB6WS6juKW5LMv3oxJ8m8N5031H689hJMpfB14zxpEmhGR26cHT6j6OoFBoZnMuGHgF4/DFn0LpADkafU2CgfMinUywCCJEAvQ8z91g2CnAO9IYpFoNMF5Z2QV2bPlxP0zWRd88f9hgqBYqyQ/eNrVD+wf56TurCdqis99T8sPEbRqwrLl4sM+TnwDkRzLyk1k+jhI05gfkoYnX/xTyw5vKYwhaPkB+ZJsJ7vZOftTyw0R7JCs9J0QrkDNwlmRMa3s9axKseO48/9ZeCbtOgPScdGSKrrQqkZ+0uOnID6u76/1AP8nuiQLnklmeaPlRInl0yY8WgvXkh6siSX6Y3VwTgb7yX0mk2aXf0gUFQf95CTqOOSsQ76nGAj1pXTMY9ojMCFMCD6E1d5dGmJ2RH/3NVGI0bs3wY6gGNOhUJ74QkybIDl1ZzEVCMztz8IziNYs5Hrso4cA5CdXsjgmWri8NiGXh0A5nwi/n4XGBy0cKnHBIeiJM2BG09pAWsEcBu25ZAo7BuE3zG4+KhjKT8R6hFhsGPTPb8AAmylEQUrRg8AKe0yiIEEgpiI171nSb0+3kA6J53i0gN13H1Xqg+Zfw7DUHDXM08bnyuvYKBjpvrUqyMuvKZUBwujw/7j8lPbxXuGcB7x/jmNSKePTIjwZLe0uiPleOL82XhfHWPYzxNyph3yk3HjkuWeiX4xTPLWKMHQv+Dl1U1xitaBoczWdvk4Zhj2AXIgeJMX73wkN2RH7wMxLjl4oxmpEfQ7VA7ZDFF5swgUJg0p1Fy07uFS7F/SsNWqbWGWTL0Tkp0aJw1MjN10EtFiQhLSCBuEdN7XiPbVY1XSd3DHmO3c1lSZfGHQGiNaRaAMHhpBdd+XOXJfv89yUYfRME6AQmQZwL3eWaaZuJC7Hls+c5d42A8L7mkvJd/pH+PQNwNfVAlaBFX9cWtV5Ysr4EAuaJV1kMguQEJDsgj3S50u2l5GdHYvIIAP0oc4u1d4sGS4++oLFCuas/kegV5tD6a5dZGqRIWnAfWTCYQexk3gbDHsAeVIIMK1CU0PDjdu8YOyQ/Kjf1B9nMmGnYNcics8aeFKBhsgn7T/vgZUyCZ78l0ZlvSHQcWiRjDiqLh3LC1InLkMEta6blB8Qwx2BdFvCExq4J63ifPfnha7WATGrpCHUBPfY8dg8+l7DvhCsLwqzCo9iOgLgyHQGXVjPgvIXEDM+QFh2+b+tVchQOvehiu7jc+jT+jqkJ6HbaCyqvi6vbQPqSpQndasyAEh49UO9dEOG8QBqVPOK3D21w/B7grEJZdukOCbsHJRw4hXF62eURwrgNz3wTY/ebznrX2oG/4mzBVvE8DIZdgF2H3i71QOHNbruSzR6GAwIFILT+pOAm6O5TmDTP6yTIpc26uqcaro6jCJIguih4L9Xl1In7DK1bYy8w01Ng5JckXR0D+ZkRKa77z6o7IWnMTC8tOpgUmXPppb+W3Gv/ILnX/43kvvFfuy3eRy//VKKLb0l44ooE/TjfasT3PAb2tUTS4oak69OSLt7Gdc/hnqD/ZQSa7jdaezqH0RdP4Bx6IB2t/+0KJJHof9I94kgvx3UvSFAzFBfeZ457U50NBwwjP4aDASdbTj6M9dFl0l5IYuLRvC5Kfpr8wYYdgeSHSRxJfrpHoZ2T/HDCAQnAZ3RfK/lZceQnLXjyU21tHM+VK7WU/Jz/jrpCcq/9VyA9//ox8pPLyM/oi1qGoSoruyrB6+L1FRz5SZT8zGKXJz+8bKqStPgwbxT7YGsvPjLysytQaWlD/9PYoJNeqTkLEo4xTfLD+65k22A4OBj5MdQOOgn5RnDiYcBpe7+Egxc0cDKAtkhLBd0d5m7YJRijouTnuDZp6cAtd8HFeuf5D+NtSHpYiX1jSZL1RV32Xs0VnOoyApEJuwbVhcUs2xoIO/KiRAxoPw6yo4Gxl/D5KQm7jwlTFWiOoCpBiR6rwzPGaQPXuLWEa0ZjnBOuNaUhTLhytejccMxQzaX6tFxY/9sV1CXGIGmuFOsa0aB3PuOgA0pNOVbPWSDLzWCoMYz8GGoMCjtMsCQ+mrywW1eNMLYnPPUqJh5M1ubu2huUUPY4wtE/CkLR4Sxs1Lo1vorH4B4HTZJyqfvihCSTNyRdnRMugT9USEBsQO7imbuSLIyD+IDw6bWT2PgJWDNKgwy2MubsuMsZxcB6szzuGSS0ukT+7JtQcM6BEPVpPJoSSyXaRnwMBwMjP4Yag8LOkx8GlzZDO+wZVZdHNPqC0/5N494bGJBKrbt3GPeW+XbacdsZ80N3g6/HR4LEZfDbeUmWZySZvSvp+qJUI+FhXYHWnc1VSeYfSro0pUv81TKB/sf7oP1RXTEFZ/npGQIBOqFZj42E7x1cncmCquHJl5xFjSkPdAUipx4jP4aDg5EfQ81AMZcyLTmtEC2t0AShYZ//rrpDdII2VAe65L1ZtCQIA587BjEJMfanV1foODcDjglzkjIOZvmBJDPXQILGQBSWnDWI5S8aGNrPaMXaxvWtTko686kki3dAflZw3bg3avnBfeAkDAIu7SDd7bhPLHpLlxfTKegEbagGuEJTi6dyJdjwRdzjTnDObTynEp6CESBD7WGj21BDQMhlK7yoZbOW0IXvYnsB77kc1lAdgNgwBwsJJZeRc2LvpNbd6yb+bNKn+6ewXiY/6dJDSTeWq1by4kDBAGYmNSxsKvlJZj6TdOGuSH61gvxgQwsYUwK0HRPpwH3qGHArlbjyy/L7VA+M4RuAsuPJD8tmqKtRV34Z+THUHja6DfsPDWpkvAm2zNvig3HDY+eFFdeDvpNO0zZUBZqHJWKyQxBMTOQsN8EcOhpMDlKUYsLhdJNi4qd1JN1cBAEal2ThniSztyRdHJN0axkHgEDos2uQySk7V573NkjdyhSu57Yk8/dxfVzZxoSOeUi9nLt+Trysgg/CowH3XB2X5SIieTTLT/UQNeP+YsyPoh8y8zPuNYm5xv0RlA8aA2Qw1AY2ug37Dwq1pKQ5PoK2PgkHLkkweNktw2aldhIfi/PZFygBYikClgnBVlj3iyu9Mo2bE7xaQkAIlickefCeJBOfSLo67SejBiE+ZTjyw8zVyeRnktz5o6QgP5qdtcLik8X5SBS6OJ/Rl4QV5DUnkqH6YD9jYkuu5GQ274GLUH6uOJcsQ69s+buhxjDyY6gBINQ42ZL8ULMG+QkHX1Dyo/l8WMLAtOz9QRMTDYL8nHpNAubQaW7C4yD5oSUOIBlg4LOA/CxNSgzyE1eSn0YjQN7yk6478hOD/CTzD5gO1l1n1s+U/OA+ePLDFUlcbs+MxYZ9ABkOyI8WSuXyd5KfQZKfY+6zchJOg6E2sBnHsD+odEFwguXy1tYeEB7n7mLxy6CdieT8yhtV/wxVB906dON09qvbK+hllXTce66yIxll8/9pFe7tNUlXpiWZvinxvfckWRiTdHvDPUc+z3pERniKeS1dET/4EMTnc0kWH2oAtxS3cJC/Sl4HJtpAE2syAR+r0J/EhDysVkit5WWoOtQVy3HO8d7WDaKJez8MJQjEnAkltQ4dk0pm/axe+5rh0MDIj2Ef4ckPlwwztX37MQg9VvxmYrtz0Pr6/HGGfQOJJ11fLEDJbLvHXsS9fwnv+/FsaP2ocH9p0dGCWn2SsY+kdO0/K4nQOlh8jnVrAfL9bHtdkpmbUvrsZyBu70q6NOYLalbkLuI1x9uYcHvU+hgOvyJBP/pi1zG1Slhun/2HJrIcPCPhiRc1CJolRZjvS1coaj9jMxj2FzsmPyTkrOzuCorVqzA0HDTYM5gtmFmFdaUHV9H0ndbg5qDvhGb91dVIhn1FEELbZqbl5lbcc5DPwfMgQJcl6MRkTyuHrmjyVjeOZxKg/Joki2MSP/wEZIIB0A8lWZ0FCVpxAdJxSZ/tQUL7Fs+D58MirYzxWRp3Ac4T1ySZv6cZnSVmAkNcU0bcSPIYXwbyR9dLcOySBt+LFswFSbTYs32H9kXm/+kbRaP1DXKhawgEqA3P1fUtW/5u+Cqwb5B/uMKmfucusCPyQ9lYjBPJFxPZLiWS7OWXDYcc6BuM80mgZWNioYk7OvctCVnludlIz4GAbkbmVjr+ggT9Z0CAWErEF/AsW4Aw+XOgl/Ii2yAVM9clvvUbiW/+WmJagZgIkW6wg14KT0LDZewszUEX3e3fS3z9F5JMfqqr16S0hesAQcsCnHk8iQ3dfR3DOuGy5lg4dF5dguXjDLUDlSKSH2Z3P874n161yrngZ5tbDE8Hs1hsg4dsgYeQj5AI7QY7Jj+lOJV8KZYCyA9eGgxPBzsLhRiFWVun5vZggjNOvqw1Zag9tOTFsTMS0u3oyU+g7oaM/ABqCeJAJ/lZAbEA+bkJ8nPj184Fxhpg+XVnUTlIxLGk2yA/6yQ/N0DQMvLzmcgWyA/jfGh1zCw5JOKMOWnuEgH5oRUyHKkgP2bxqT1yrRpkHp1+wy2B7wT50WB89i1zfRmeDpId8o98MQb52b31Z2fkB41dksyLri9zexmehJqsuXIjSJ1vv/eUM2v3nhCWWuA+i6s4GGjuGhDPoKMfJPSchCdecQkmueKG+VZIADimSRpoNWFjAPT6rLrBaAVKHr6v1hW6w5J57Fud04DotMRsvXQvVR8p63NpwsI8fm9eV28lMzfceYx/APLzhaQL9yVdm3VJDNVy4M+fjYSOpVTU1XVWopOvuaD7rmOuDAgtEBZwX3uwv+nS92Mu8Fnd4iDlbX36zChH1G1uMFRAeQj+ofFlL86n6B8B//prEUMAba+vQB6uSLAxKy1rY9K0Ne9Mxtp2xKUMhxHU2mjtiSIINGrXL0t04nVo2KzYPuysDIxDscnm4MCVN1wCj+cR4DmlxS2Nm8mCgZUwcCwzA3QGTkT5ZUmXQDLWF0SYCTpP91fBkSrGDfG57kc9LFqZQHz4e8ncXZCe6xKPfwLi8yEaV6TdE+GqrswapS6sjMShMbFmS7dLZHjmTYku/0DCAUyyHX041Ij4gYJyAH1Q3ag6k/F5YMsyJAX0L1rr6JY1HHE8Gs+l1l7Z7jotceeItHb1aMu17DxJ7u7YCvqrCjtthiMPtRZUNmrbOV1aTfKjQaWdg5hwoWEz87CR5AMFLR1cahydflXC4y+6OCwGnDLBH7VxTkjaSIDcGNcaYEsPJBl7B+19iR9+JMnEZ5KCjHBpfLqxAAK14qxABZCp4rYLRgYh0cBktoSNtd2e0rJjeDz/jn/P7+H3gZipu211RtLZuxJPfIpz+AANxOfBO1q2IqXFR3XC7Lz9udPqwxpnLF2hrq4XJGKMySDIj8WeHSjKmcgZeN/O5KfnJRx9TTT7MwlrVvi0UrYYDBXw4mlX2JHlJ4FgKmysSWFzXaLNeWlZeyBNm3M4A7P8GJyLgZo063SFzOJ6/KpEoy9hoj3hXGDM5GyoL9BaQqLKkiOccGjt0Qapwrw/GVTKkFhEelyAiSgt0RqzBGIC8rM84UgQ2/qSup80NgjkJWD8DctKsIHYSGnb/S4IjsbmFDZdEHV+TQOY07V5fM+MW7E19YUk059rS6c/k2Tulpbi0KBmWgbo4tLzRb9T+cNJEhoi+1pbH0jdcQmHQXhOfQN9kUTvNIj4gF6SoY6QWRtJVlmaBI1xXQH18ywejX1wL7OdoYHhxzVajHFd7D0vafcJae3qlRZafppJlncGyLDnp9PF/JaszU5qC6c+kY6xX0nr3DV0WC6ZZaO52XDkQMHFjslgMMaUtPZDyz4l0cXvob0FTW4ENLsZc5S5GOoNalnhZMNVU0wOOAGisTQGAjItwqaWoBCiB5MOnzNf0Q2hDZ9F2M8sya0gGm0gFayMzhpZdKkxmV0r+0O7Pn+N9aJbjGSFf6t9hg2TG8kQLT55WnrWJdlaEWFtruWHIpsLkhZoVcK+Eo5ntmZMjGBfajXCF+o5BhSQfM/gZp4HiA9zG0WjVyU8+w21bmmMD5MZGuoKtPrp88dzj+++rS2dvY1+Oe8C2Klc+75oOIKg7GG+Lihk233nZeP0j6Vw/A3pHhqVLrSWzm5/4PNjx+RnfW5K1tCCyU+k7f7PpXn2E/RJujMwuZlv9mhCOyaEFyadgNlyj70g4dBlCU+9Ao37FWEmZ8MBoTy8UzwmPieSA2x1v9/yfXFb4vHPJJm+JcncHUkX76HdxTHUtEkuuPXQ74jxp9yCtDDAnZXRuWwejVm81c3J3Dkt7RK2tEmqsV5oSn78RFYmP2ic/EiAtrckUQK0BvI1I+nKpJKetLiOyZExIFSy6Dr13/PYZPhIlJH0MHmhulJGLkl48iVHetR6wL/BNvSvs32+WTzawUGzdIOAsy+mDLCnxW/+tic+7EPYGo4cnGucbvRtKfRflK2zP5HS6Del89hxkJ/j0LkxtneIXZOfdOJjabn3M2me+RjyrFVbSMFmOHrQSQyTF1ow+rJEF3+kK4nCXmrerCfV5g801BwZuSH5KUJzQqMQyQhM9txIfpJlkI21eUm4cmr2hiSzN/1x7u/L8OQp9a5O/R66O8MWF6vB0hF85gyEZkwHWko+oSRDX+B/EhD3PY8adjHup+SsQJrHh+4wCDxdQcjz9IRH3SHZd+kfsuE1f5/KWP8ZF+A8cA5kjKuJmEUY56TEy0+iDLQlkaLcyqxSfG8T7IFBY76WnftU0yzc+pUk9992z8zIz5FFAjkUl/LQj7alCPKzff4vJDnxrYMhP8nER9J052eSm8IWQqWpGQTIVk4cTZQn0aKEF/9Mcm/+NxKd+aZOfuruoh/fcDBQcuJamieZ2NSVU2pCJqEgyaBGxW2JAcexW9Y+Bc17Clq3xufgMz7jZ6Hid/RYbRQteA9iwmBn9x1PEzckQ5jU0FzcjidHfp977dvTkP0uJ0bm8dGVXeclHL6swdxa3yznCQ6Lm6oLDu+b6IrFaxImBuNzub8nbIaDgU5H2hcLmlqh9N6/k/iz/4xnT+LD52fk5yiC5KdY2NJWGrgkxQt/KenJb9eO/JS287K+MCsbCzNSevihyPX/LMHE+9La0i6tre2Ss5iOIwU3oZVcWQC6OTqhYTOw9PKf68Sj2honnq+atI4KdIihYcv/nJWDE7b/TMkjGwmkJw/MbcN9TOan1hd/DN1Det/dhO9cWX4fG11H3krCUgHZcfjHWX0YZKzHZN/Jv/ff7X9Tg44ZuMzK7nosvkdP9hnQa+Rv8Xr872Vb/svf0vdfAU9uHq0izQgQW8X7pyH7HX6uBKZNg5o1xoc5jSLs56RZ/j40tfqgqdWH1h9OrO419wcZ8dIJl4TJT7y0DOn+7HP/ff67XDwU9/nP9G9c03FQebw/F3Wzla+R26MLnY60H6P/Lj2U+OavJLn3tiTr88JK/RoIrS5PPoejfa+OEirJTzz4gsSXfyrp6e9Ix8CQdKI1t3f6I58fOyM/hW3ZXFqQzeV5Kdx/XwrX/qMufe1o65CO9g5phiZlODpI4zyEVF4nmuj4KxKOog1dlmD0qi5zd8Id09lRF1IZIUDTmlgZ2VBBj/c09au2y/sJsuEb3VTa1DqDfdwyJw8JjBIct0RcSznQQqOfbWKLhueSMltuJXHR3+Xve7JQHvn++eh5onHioYuMv+fP+2tRFiPc8nuy1w5l0vdV8H3EkR/3yr3kP37fV/Wj7Hv1UEdehPXMSFho8eHflf/Wn4ce6/dXkhJ9D6KSLeLItYPct4s00Y1Htx6Ifjl421uJ9Hewj0pAE91ujizpZ/o3/B4ei/Pyx7vvcOeqbjZPhB6d59GETkfa0Oc2FiWh9XH2tsRTn0g8eU1X+kmEZxG24FbhfhmOBCrJTzL0oiRX/oUEZ78n7X0D0t47iOG587QVOyI/MQTi1sqia/fek60P/72U7v1Jujo6tbU0Y0AbDje0u7imMR9oLE4YXfiBROe/L0HPKIgPV9V08ei6huv6FLRZ40T/xL4vfU4C8/j78t89uU//1r9WsuOtOJn1hiQEn2kMDglNmfyQ0BTAb0hoMpcUyY/LfaNLxmnZUQ0Z+0l6PPkh8UkLXCbMY9xxX0Y2wfqJH02tGRnUakFLB1qjIosRovXLQ4ln2QKFZ6PIthXQ64csQwuaOkBqHPlRtxhJkJIekhdPcmjxzlxnXGLv9ysB8/sfJz8kQ48I0GPWIp3QPQnKGt9nBKnyOHzmrEbZ8X6rz9W38uvsGLevERSSlDFfq7MgQQsS3/m9lO7+TjN746ahVVgJG+BaDHtDDJlYgOwrcEHE8IsSvvQPEp5/S9p6+rU1tWJc7hBGfgw7Q+UE0tIlQVuPBIPnJTr3HbRvq5tBU9ZT4Nc5tOurNQQTpBIJxrzwNff5pq4hNH7mA3GVwGTEwxMTJSLZPl2VwMk3a+673Xe541wAr7+Xus9ZcTAgeWJoJEX8O/f75ZVaen5s7m+dJcn9vW7xu/rbnPT5G0pQn4ZswnATyGNatE6SnGA5yTQosj7K5uGsT3yfibxs+yR4/SAkuH7nDmMjQSFx4WvvwmLLyAi3JDIkN7qf+1zL9mnQd8h77T8jccq+Vy1WbNifWa/090iO8JskVSBSSqbYMuLE7+b3ZDFN2XeXG0hCdt481u9vBKuJkn4GvBc2JL73Dtrbkkx9ISmzP+fX3EH6HHBNhkONEuTe1taGbG5tioxclaZX/5U0Xfi+kR9DDcFJVpc3+2Xtfec0iVx49g2J0LjShwKpITRLdn0K2Czg1yfhU5JDksF9IBABmmYc3s67rMPc74/X1Ui0uOjfOeuNcz05VxQTAbpK1f47M1JCooLXrnYRJ2l/vzjh6sTE95ysdWdFI/xnZeC91+jZHn1Secyz4bToJ9DIGvVTxJqSn+eGu3Z3Nyv/Lrsn2Ke/UdmIbAuU7x+3tBh6QpbtZ9xKmfiQVJGgkBCR2OC1ustIeloloKLBDNzMo8VtE61RtDShNTt3W9DcImn5e/i3JEf+e+iS8+43tVyRrNU5dHwqgU0luf+BxA8+0MK1moZhZVz3l0mp4VCjWCrJ+sa6rG2uSwDy0/r6v5HWSz+oNflZkvzqkmzefVc2PvifpHD3j9LT2SndnV3Suossi4YGQLmLZMKILZbg+MsSnfqmlgwIhs5LOHTBCdiDhp6vO+d0c0XStTloi9AU1SoC0sJJSMmH34KUqLWEn3HFk+7jZ7hGP2E5cgSCg6bH8xiSJBImtfTwb/gd/A1HohzhIdFhc9+nv4nmJkI04VZPFcCkqJosTfoVk1MFsVF8iZTwb/zn3Cp5MlQF7Ova78sPCcjec+vfZ+0rxOmjtAD8Pg991iS7kW6dBchvaaFRa40jMqzF9sj1llmBcJwnN3S9qfsNf5fye/13OFcbj3Hf5axA/B0291tl6xZIVdjFhQv92Qni/yf72sEgmb3rGgvqPnxXi9rqeNV7x/7uz7NOztdQXRQha1fW12V1fQ3zzkvS+ca/lbYXfiht3X3SilYT8pNfWwH5WZaNO+/I6rv/H8nf/r30dXVLb3e3tLUY+TmUKAv6CsENYRNd/qFEL/+truxieQT0RMghCKODBs/XTzTJ7B2J73+opRKksC7pNkhQaQu8YwsSFcKz4ljX+D5r+K6MVPAzdT2hEfhch466n3igP16/g4Qm28992ef8W25pg8j2cZsBv6Oym3aYpwnxin2PfZy98VubAKqH8vOpfE4Z+Pz8y6d+/gjO5fbEMfqY+KSfIK8Z+FoJkm8cW/51oAkas8bP6E5jJm7/O/wa/Yzbiu8oHw8ixMDhyFmVpBnEp++khGe+IdGJq48fWweg8sJyKenimJSu/SddBaYusQx6njxfXrDhsKFQLMry2qosra5JNPqydH/7v5HOKz8C8enVEhe7KWy6Q/LjqrqTAK3ffluW3/53snXrd9IP4sPW1rrzEzDUP7SLeEuFBmk2tat7K3flJ5J7/e81p4oTll5gHhBcV0aj1YXBkmjJxKcQlH+AxngTwnMVAnNF0tImjkHjaqivBK8juyZo0PreQ6+xUtg+uc3g70edTCCGBoD2YRJnEuUKlMk0x6Lf6nHcPsIji2L2949/Xoa6xtolyGEst0BpaenBOD4r0aW31IWtRV+bO9TClPXpenBlJ6szUvrwP0j8xc+0mC7jgdS17C1ZR35l6SEFyc/i6qosrqxI7sQr0vud/1a6rv5YWjprXdXdcPRAgUqygE4WHjsn0fnvSTB0Ce+hNR4w6SmDEwRdUhuLEk9+DgH5cw2U1BgB1gdiLI5OKjhfZiOG8P/q5rRibRqDUdF0JRDdCt59oBp51ngvssZ7YsLYsFOgz1T2IyXR6Fvaz3y/0/ZEv9TGfs2+m7Wn9W20EP2a30nyREtofkmS5TGJx96T+LP/TeLxTyRdm6XGi3FPMlUfYMB3OAj5c+47Eg5D/rRB/jCmTlf1fQXRMxieAo4sg+FrAKFC4UIhw+BKaojnvgcSdNEFX6qAroNJnkKaMTfMDzL5mZSu/8KtEAH5ka0lkJ8NdwyFvk4UlZPEVzVOJjhWCU/WfIyETkCckLLmJ6pyM+Jj2A3Ybyr6kZIg38fY37TfZX3wib6p/ZWk/Wl9ubLRooPvojLAuLX8sqRLID8P3pfSZ/8syUOQn9UZR37UklQnaKogPyOXJWgH+cnyWT1hBTMYngWOrucGFdkwiqSpuRnjLyfFJJWtQkkKcSJ4aThsoGCEUGHQb9DcKUHPKQn7z2uxyIDBzd1Dj8ziWasxuARc6wFxNdYyy65ck+T+e1oXKF18KLI+L8LcOCocnSuApnEGmTL489nNBaO6gNRsEvqqVnEPnmwGw/Piaf2n3J7W7x5vrl8/R9/Wfo2/Ifw41zxTGwsYRxOaTyce+0Dihx+5cUQ3sqZ0OGAiBMKn2bsHzriitf3nJOg9ozGHQYBJqGKcGw4PEhDbYimWfDEG30jB23PgwS2Sa2J/xtjYBXzvfz5wsOSamqD8t0rU1CwF9LGN7aIUcEI8OcMhA4WImpMTCdp6IWwuQeu6pBWzw85+CVo6oEFCCz1I8Bz9qivWpIpBfGjtSRfuqzlfP9eJwxMYg8HwOLLxwemAcpzKxPK4JA/el+TunySZu6fBxs4FdsDEgmOYhXPbe6F8HZeg/wJk0hW8H3DXwZWV9WSpMlQF7JY0spBvbJP85JqkBTyEfGS3Oat29lfoXFEuJ81gXPxxMrDNbTCxUoIxYeTnUIC9LGvq7qKww7atTwISn4GLEvRA6LT3gPxACNEMX2MwsFkbBXGpoPV+0vVFSefvSfLwY0kYr7A8ic8YC8Dzh1BU9xS6OwWkwWBwUOKDcZGNDx37sbq86DqOxz4E+bnj00Ws6phSa6sfg7UG8xNpLUGuLO0adpboYyA/HYO4Bk5nXl7pdfhmaHiwrxXBM7YKsSM/ULrVCMMUD7vMWbWzv+K84QcKc0nESaBsrATic8D6gKGqoMBA47NmbEBLt4QgPPSxh8fOqNZ14OCKru1NSZcmJIGAjj//J0kmPtbih2X/P8+fzWJvDIbngyoHGDMcPwlI0NaSVviPr/9ckvvvSrLwwC0xZ76rgyYWbV1Qxk5JOAry03tCglbIJcY7qRXLkyDDoQCfZAyeUQTxKcV4uspDGPtG+b477PAvvZYA1pWig4GIgY2lelIHoQUY9gt4luoughBhdtlmaFkkP8dBfgbPHjz5YV9j/AHIT6Lk5wMpkfyMk/zM4nOavdkfla3zLwwGw3PBy3iC42iT5OdziW/8TGKQnxTkJ80zVQTJz8GqvKwfGFaQHyH5ybW5SVHnI5uTDgv4OGPPN8g7UtZ326M1f0fkR6cS/JCrQhyBfeUkSUGE0hAtQDMS1OjAE8QzZC2pokhLmwRMfHb8qtbvCntGJOjoBRmCdnUAYLCllpDYXpeEMQmTn4LwfCTJ9BeSetO8BjeX+yAFuW8Gg+HZyMZKNl44jFhcd31e0vn7uoiALmVaWJPFByL5VbfQ4ICCoLWkB93vPcMSHoN8Gn0Zytl5tQilScHJC70IQ6Mi4xR8ignoSpKCd4D4pOAgbkEKs+HvTr7v0PID6ODAn+mKAb/UkrkncALGew4D8BDpNkq2JWjrlHD4ooTnvgWhcsat7DpIUMiyttbmsqSztyS593tJHr4v6eo0ul+mBfi2ywFhMBgIT4Ky8RRCwd2YV+IT3/6NUzjWuJJyEyo5F0UcIDAJhgOnJToLOXXyZV0NpsvfWYPwgK1Thr2DtILGFVFrTwXn0L65eznPWeL5UTkYONlw2SFOhC6wlOQHhxj/aXCQwdLcTeEBDSocuqRCJRg4qzk2DhTU5JT8LEkye1Piu38A+XkP5GdKBeCjvsnmhbfBYNg5npT1bOsgP5MfS3Ln15LOgPzQIkTyQ2XpIBFBER84I9G5b0t4guSnH4Qs78/LZqRGh05JfIE+SL4RKO8g/8hk/u7kPP5yl+CP4iRSnEwsOSlgvmQw0kGvhDTsEkp4inisAYTHMQmGrrpl7d0jIq2damLWZ15jqOmahGdjWZKF+xI/eFvimz9X8pOycjqtj97y6M7PCI/BUFXo5MJJhhMOZH4ca628+M5vnAIyd0eS9SVJtzfw2UEQIZwf43zoBusYgNy6KOHoNyToGcX+EOeUhxw5YIJm2BW4iJy8oojpqUSXlxpb0Af3QF0y7OEb0KmU/LTipEh+Aikw+Nl8X40JmocZ5wNBF3QxuPkbEg6/ojl9uKyUFaUPgvyQTVOoJusLkszc1oKGpWv/0VV13obWqdmXaQKFYDbiYzDsA7xioatroGyUilA+bkjp8/+sgdDJlHOBpXlmUD8gksHK9FwCz+Xvw1DczrwlQd9piAXIBbUCQbYZGg7ZCq9tdCslPwGUcJYmUnm/N+x6NmOniprbJWrt0liQYspl72b5aSioPdE3ancUbs0dmjwsHLosQf8ZaFL9wno6zKtQy6KB1CBp8ZGtZc04m87cBPm5Lun8HUmXHrq4H2igOggomHluWTMYDNVB5bjScRZBXKSSbq26TNDzdzUbdEI3GMflxpK6wph1vVZwi3BClVGC+UiTsA5fkbCHK8CguJGw8dyp4GkzBb1RULb88LFB0Y1aOyVifjk+6z1i1+QnzDVJc3uXtPb0SwgSRFbGZIdkaoZGAskPehYtKKzu3HFMl42GQ+cl7DvusjgfBLiqa2NRBWoyeU3iu7+RZOIjFbpam0gFmhEdg6H2wLjj+OM4ZLqJ6c8kvv0rNz4X74uss9o6FJcDgCZA7Bp0KTmY+6dzWILWPlXgXP4vauc2RzUKSCfoUSokTG7ZJi2dfVrJnRUm9ordk58I5KejG8R6QCfIUhqq5Qf/GxoJqgV58tMMrQnkJ+xz5CfoHQEh6nTH1RrFvAY2p0tc0l5BfjYz8sPOv+vuazAYdg1agUh+WiXd3tIkiElGfpgHaAPkh8VSDwIsvEzyw2SsdNl3MmaxT/OVCeMajfw0FGhMIa8oJuhzzSA/XX3gHSQ/e198swfLT06a2jqUAHHizDP19HZRSnRFGBoCzMudpiXIhG2Qnj4JR+krf1PCAWhNDHIGwd1t6vDdQAsnbq5IsjTlCive+5OU7v1B0vm70DChSXqrouZ2oKnbLD8GQ82Rjb1HhVFTSYsFV1vvwTsuCHrqc7yfkJSB0MwVVCOobKBLpKlNwv5TEp15Q6LTr0nQPQzeU3DyztxeDYM4SSRfKGoB9SRskqb2Lmlu71TP016x65mNS81yLW3oY52SoLNts+IqTrLENIyGxgCFAE3BzOnT0SvR8RcgKF7XxIYHktOHBRVBflIlP7ckHntXEraVSQguEJ1y6nqDwVAX4HjUANQmSVfnJJ74SOL7b0s8fUNSkp+NJefCrjUwPwW9xyU8+SraKxL0DEHOMSs1lXOboxoFMfjENnhFvgjyg76Wa+1Q3hEeaMwPyU9TC06mXdIA5KfoyE9Myw8n1awZ6g5pSosPg4XxhubDVpavGJFg8JxmStUkYVw9USNkwc0MYk6WJyWZuw3yc1OXs3N5O/fzZDW/g5Efg6FuoJYWjb/LSZpfA+EZc+NW2y2MZ0eAWIpGLbu1mhNIfmjNHjwr4dBFEKFRkbZeXRHG4GfNYq9y0OaoukMFf6DlZ7v4iPxEID65llblH3vF7n0aYaimp7CpWWJ0pu0SzVMl7/Yyv2pdg8SHri6w57D3pESnvgXS84Lm91GLD1l1LV1K+XVJlkB6ZiAsmUH2wR8lmb8lUoDGqNYeEjFzcRkM9QuMT64W5XjFHJAu3MM4/oMk4x9KMn1DksVxt1hBY25qBCpKdN239Ug4cEGis29J2H9Og6J1+XtquX/qF+QPiRpT8gXX4hQKMDkHXV5VCMfYvdsLk6OSn1wzTjEEM6sgP+zgyqiNANUllPxg8Ec0DZ+S8NS3JRgi+Rl0liA1KdaObKQgP2kF+UlIfuZuScqgyWxll5Efg6G+wWSjDILGHJAsgvzc/70GQdOKm4L8CMlPLXOh0DpAC3Zbr4SDID9nvifBwDmRZsg4ywBd58BzAY8g+dkulpT8lCrITzViUXfv9sIJNLV3SEtXr0TNbTjVEP061ZjUR6UubMKqG6gZEYKH9bG4sovLP5nMcOCshMevSMhloS2dGsuVBRTvJ9JCXpLVeZAcFkz8Qmt0aer8pTGnITJIEqdMN1ctzsdgMOweWQC0uqUp/Fn1Pb/hChBPfSrx2HsSMwh67p4kK7PqBttPuPOhqxzn1NSmmepZoJmFT4OekyLtUPRYAZ4nW1bWDfUAPgmdrsAfyCe44ivB66i5VZe5N3d0QT+nQrw37J78RDmNum7r7pWmNgYgsb4XgRNW8mOTVX2BvYmDvAT2DGHQMQwhcEqXg3JpO/3jtazdpYnQVqYlnrwB7RDCcfwDSWa/0Nw+uow9wrlAmBoMhgYDxy3HMMkFFJlk/ibGOJWbayBC1yVdmlBrb81ASwGrv/ePStBHmXcGih9kXjOUPZ1lGarhZi9DfcAZUB7xCJJYBjq3dvVIC8nPgeb5yYH8tHVKC06GJ6VmKHQkMrUkzU7cUD/IyA9ac7uE3Rj8fcyFgW0PiFB7N0jR3jvUs6CZYZMS+Be0Qi5pX4RWOH1DYlp+Zj6XdPEehOIqejrNms1OizQYDA0FFwSN8Ru1uXpfS2MY559rGQySn2SBmaAXIQe23WKHfba6aMoOFmmGnKOFO4TcC3tPS8Dsz4RZfuoO5A+M8VEegUdDK16upUVaOrs1ubLG/ewRuyc/IctbtEhTa5tEOU5SscRxUQrFWLYKqWZltFIX9Ymwc1DCky9JdOIlFQjqG68FuMJifVGS2bsST34GQQhNcPpjV5WdrDlkcHNt440MBsM+IguCxlSTrs9CyeG4/0QSjv/p25KuzWHqgDJUI3Ala3j8slv+3g3Zp/GNmAZN5NQNOBWwpEW+mOoq8pj9Iy1hmnLWnxx4Bz1Ne8WuyQ9jQ5paWqW5rQP9m37eksTQ6BmctFlIXJ0vY9N1CVp6orNvSHTuDQn6TngBUAOwQvvqHAQftL8H70vy8D1Jxt+WdHnM9XiayTW42WAwHAr4IGj8g7E/ibH/gRv3HP/jn2HsT7v4oBoh6B6S6OTLEp3/prrBNCBa4wmN/dQLOBXQeEIewSXucbEgaVJU8kNjSw7tYPP8gHlxvX1ze4fkmuiiwEkniWNsOHFueRGGg4O6mWhtYXIvmn67jkk4dEnCgTMqBIL2Xgma2zDs93fgM7iRQY4a3MzcHzM0fd+F1jfragBpEUQGKFpws8FwmFAOgmYcEBdbFLck3ZiXZNEvdNB8XvckAQmqRRxQ0NQiQVu3hJSF/aclHL4MZfC4lsVgpnt1y5vSfqDg/S+BPGyTR6DFeE8HWK6pSZrb2pUAHTj54Um0dHSqL45uMJ60M1c5EmTk56CBBwDGLDEIRjMIKkhPdO47Ehy7IEFLlxNINdB4tGQFV3k8+EiSCbq6PoXG9xDEZxOkrB2dqdmfi8FgOJyAnKFVl6krqMnTCkQXGIOgxz7G69vqEt9/4Dwoa1j+YvC8ysNw+JIErR1OTqZUxCxe4yBB3vCIRyS6ipwxxQyzaenoAAHCs8sdMPlpbm1V8tPEYnI4OXKdEk5aGZuSH2M/Bw4m8orzEtBPOkjy810Jj110BUspBGhl2WdLS7q1Iim0u3iM5OcTFXrpykPN6hzk2iWIoI0Z+TEYDi3KQdAY7xroTPIz68hP/BBygfE/tSA/Ku8ga2jxJvk568iPtEEekvxo5Xebtw4SvP1lyw94BN+z/+SgwNPT1NzaLtFBkh+cjutEQQTFvV1y7f0StvZJMWh2MT80VxmBPhhw9QIGcYBt0MzSFWcl6DuH7UmR7mE1++53nA+LGXI1V/zgQ2h2aLNfaGwPiZCk6Dtq7alRoLXBYKgfcNwz1xjjgLbXoQiNSzp3Q5LxjyW++54k8/d1ldi+gi72lg6Rjn6XA4jL3/suSNDai4kW8klJkE1gBwEaTeju2iqCRwgIc0uP5PCcIqYm0FIq1VGU9/YtyuZzErV0SlPHoETtA1IKWmV9O9ZyF0xOZDgA6NJN5q7AloO5/5KEg1c0uymXtkt7H+TOPgcWF/Ma4xPf/hME2p+EmZvTxdsiW0v4EMKFQZBcCWIwGI4WSH58MVTJr0q6dF9XgMX33pbSzd85F9h+x/8wNQuTunYd0yz3KiMHICPbBnBeRn4OEqQNtPpsbidSTJslbOuX5s4h8IwudJ2M/OAZ7RG7Jz+ZuwSdKGxqlRyDyHByJclpKuoiyA8ZnAu6dc2wj+D9zVoGklMwZrq5aOINuoah2WDA43lxtd5+gMkLk9VZSRYeQJu7I8zjk7I46fosevSacFkrA6xJms3VZTAcPTgXmB//XOxQWId8mIdyBJkxfV2S2TuQGQ9cEPQ+WYD0HHLNbsEHFHfNdD8M8tM15KxSnNuIp8lVw74g4wmM8WGsT74IHpFGeEYd4Bc9EuJZCeetjHvsEVWYfTCRoRPlWtr15GJ8JUvQF0uxWn6sy9QSHKReW6FgybVI2D0s0YkXJRwC+WEW532G5vEZ/1Tiu29Dm2NsDwRafglCDpqUurpo7dl7xzUYDI0OTmK0AkGbh9xKt1clXX0oycwXEt97V5Kxj/AeStM+Q7M/D52T8PQrLvUH4yHVvYLzU3lqs1itwDtNowlrhJJHxNgRNrdK1MqUOlxVXj2Fee/fhA4SRk0SefLD0haFQgHMraRL35U0+0MN+w3tOu6l+tVbdUl7OHoFWg3IT2ftyE9y9x2Qn89dDp/8sjMjl+N8jPwYDAZAyQ/kAjPiKvkZd9afe+9JPMYEqPtPfgTkJzwG8nPqVQn6T7qVsGX3Cs7LrD41Ae8ybzWNJqVSLIWiIz/0VKhxhSUtqmDxybBn8qNpp1vbpLW7T1vY1IR+XNJMzxvbscb/MPjZus/+gndYc1SwWnFblwTDlyU6/12Xx4L5fHJ0dVU5xkaZLQgu6/dM35TSzd9KfB+kZ+a6pCus37PihJp2M2p5Fc1gMBxtVMoDlQloFCnba5KuTUk6dxPy5D0pffFLiSehSLHuHy0xKneqN6NoMWdaFVo6QILOS3ju21AYXxKBskh5mqZFnJZXKg37Bi6QYqzwNpe4g/wkcUmXtLd09kpr74A00fpTxXCNKpAfl3Ka1d2bO3tcwbGUMT8l2ST5ybuVX8Z+9hu8xyWQjW2QnS4JRy65nD6D50Wa2h8Jl6qCvwnykwf5mbklMcgPM7emi/dBiCCoSts4Bl2Mrq4qmisNBsNhA+QDlTPKirgAmbKsucCShx9KfP1XwrpgZfKzX5NJlNPEh9GZb0p44iWNl2SaEFv+XhvQ4sOSFnkQILq9mKBXa4h2dklrV5/kWtuVqFYL0T8C/vWukCSx5NeWpbCxLoXNFdlanJT84pS0NOUkl2tCi6QlF0prUyihTsCGqkIHpR+YvL1RpFmco1NvSHT6DQm7BgXMVAIuba/G/a8QAgxuli0IKQYnjn/iiM/yuMgmiQ8ThuEgdtYsSG0n8L9T/rdS47NmzVr9NT9WyyN9J2Oex6qChC1XqsZQnJgPqMCM0EsuMLmtW4NfFZBn5cz0VZtX8I38XqYCKYGArc9qPjIX/xPu7roMzw0mNdwopLK2VULblnW0lt4h6R69KF3Hz0rnsePS0T+ktb2qgSDd4zIs1t1YenhX2/zdazL90a9k7vrb0t3RJj2d7dLX2SrD3U0y0AkyFFqnqTooKEgMSDBaIRza+yQ89bpafaKTr2kyL1Zxrxpj1u7ihF3C1Vys1DyL7extvL/tsjbT4kNtif58CrTdCAv/O6mSHlq0uHR/T13VYDDsJ9Ry40rU4M3ux72Oeco0fEeEiS5qVve9tqGLEo5clmDwLH6KMSC7/J2nQGVN0ZGuZOaGLr1nS9cXoNAtObmmMUq4TkPVsbhRkvn1kiytb8vS2qYsrm1Iz5lX5Pjrfy6Dl16XvpPnpe/UeUxnnf4v9oa9k59SUdZmJmVtdlIWQH7G3v7PMv3xr6W9rU060Ho6WuRkX7OMgADlIiM/VQfLV5BoNEEzGrgA4XBF/dWs2k7XlxMM0Giqpa1kggmtdOPXEn/yv0JQ3NRkZVJYw34cQ6FV6VHdlRB0v0HTp2qBCRr3GQyGOgTGOIkKszhnieiUBO0Qj01HJEJeuWvrk4Ct/4zkXvoriS69JUE5S/0ufucpcFMhfxP/L41rAeYYLZ36GMrddZejjMHZvE5D1TG9UpSJ5YIsgvxsbG3JxuaWDFx+U0595+/k2OU3pHv4hHQNjWpZrWpgz+SHQUlbS/OytbwgC3c+kTu//p/k4Tv/JC2tHWjt0t3eJmcHm5UANRn5qT7UHw0B0doj4alvSHTuLQkHz4EInZSw97g/aG/QLpKRkc1lSVdntCUPP9Il7enypCNhcQE9Cs84s/jsFOWuiC3/ntYqBiK2dbkgbrx357KnLmswGKoFjHenWKWQDWuSbkEJKjJOhqSF1lov8/egAOn35DDhUcHrHJTozJtQ7l7WhK0BM9ZjX0aCqqXkJeuLIECTkixOSHLnN5KMvQuZNw2ZlEMDuTNUHeNLBbk3X5Cl9bxs5zfQNmX45bfkwo/+rQy/+G3w30Fp68Xzrxe3V4pOXtpYkyI6/sLtj+WLf/5/yZ3f/gfMWZ0gyJ3S1dEul4Za5OxAszTnqsPQDRVQ4ZBK0IVOcenPJXr57yAQjklAFxiL9VUB2kWYpycuSjJ/V0kPAxGVAC1NiNDq4zUmJ+TQdiXs+AX8HlxTDh0cAk+TNA5f0kb3nQpVdYEZDIYDB0lHBCUFY5KLHth0eXqR7m+QIJUDJCZ7kQdoqgyhkQD1HNdkhNGJl9XFHx5/EecAQsJ4HR5XBaSFvMsyDdlWuva/SHzjl5qs1ZEsXK+h6rg/vy03Z+ny2pIS7ntcWJeTb/xYXvyb/7McBwnKdXRJjot5ctUhn3snP5yo6CdFm7/9kVz7n/87ufHzf4dOCm0drbOjQ66MtMiFYy0gPy5ErWouGIMXELinPSMSvfQ3knvzv5agrcdZTSp807u55+WuwWdc2FRhoPV3IAji67/E/goiwt9Ti88eni1/j7/FZaVNIDotPRL2npTo4vckuvA9Ae33JMzIj8FQFyAh4WQUb0t8+48S3/mjxgLK9opmboZAwP8kDHskJZmFmzLCxxZxSXp05Sea0kPrdFE58jJvV3NMxVSo8xplDX639P7/V0qf/bOks7fdhzZ/VQ2cY7K7fmeuINen8rK4BuJcXNN29jt/I6/+w/9VRl/9M8wJrWgt6ErVIZ9VID/4c6YoR0dZuPOxfPIf/ju5+bP/NwYEOmOuXWN/Lg61yJn+ZmltDqUpDCz2p5rQx4cGwhNRC2LV9v7TEvQ67ciRIAYh7vye06qnAoB1umjxmb4hyexNV7Ji5saj3yZUuFHI7eHZ8vvK5Af9p7VXwj6Qn0s/AAH6vlt6inPaY5c1GAxVgsoVyJe0lJf41u/RfqeLHzSxKWMAq0V+KBe0YezzN9GYxiMceUHCYbbL6u7nog+Vd1zdulNk8gxbLqtPliclXZqQ+C4I3dgHzu1VjWsxlMHl7azcziruDxYKcnt2W1Y28iKlDbRNOfvdn8or//B/k9HXflB16151yI/vMAt3rsm1//D/kJv/5X9EB2yVNGqV1hYQn4FmGe1tks6WUNqa3LJ3Q5WQCQXGxnQcE+kakejkqxKefVOiEy/pfq6WCDQIeWdISwW16DHOJ779G4mh/STLE0qGpLiFI7xgU3ueR7XID5e0tvaByJ2R6PKfSfTCDyXoxPWV9QSDwVA3KGxJ6SZkxI3f6AIIYUmb7VV8UC3yk417N9c4BcmvZG0fkNzVv4KC9AN1ial1AG3HyOQPGgkcS2ywpZB56RqID115ttqrqiiUEtkqugruE0tFGVssyNom5p0kL0Gcl7Pf+1t55V//3+X4q9/3c0v1Fu/smfxUYvH+F/L5f/p/yp1f/XspxYnEuLDmKJATfc0y3N0s3a2hdLZG0t5s5Kdq0MGKR0jhombBDqcFcbXX8SsaDBh2jzhBQdZM9vwMqLmXFh9aWNbm0WZ05UP84H2J7/zeLflUUKixE1KwVaczloWPkp9OXeGhScde+JG2sIvkx2Aw1BtYgDS+8WspKfm54VZGVZP8ZMiIj2753dg0tatbPGRes4GzLgiaMi/0Vu+vUfxS797SvEIssAoZp6k7Hl6TePwarmPNufB4jJKf6rhdDJhOComs5WNZzScyt1qQqZWikiHmB4yaIjn9rb+QF//u/yQjV7/t/6J6qFKPdGDhsZbuQWkfOistXWDjmu25pESIaasLcapmLkM1QQHgyQdXW7E+zuI9Se6/I/Hn/8UVB1yB1pLHAKYl5+tAocIEX/l1DfBL7r8t8XV8z/QXEADQfBReoKnkMRgMhlrCyx+KH04n8TbIyi2Jb/1S4rt/0JijNL+hVmunTH0NGLZBeQdlj8laKTfjW7/Fd4LE0X3HwG1irzGNhi+BfIBWn9WtGFtX0iJiYuTuAekcOS9t/cclYq66fUDVyU8ztPOOoXNKfqKmJrUgaIVWkB/69oz7VBkcjEpEcGNJfgprWl5Cyc8XIC0PHfnRPDzPRX4gLJjMC5pcAvITe/KTTn/+uKur3EwYGAyGGiGTdyrzKHu8sjZ3U5Kbv5IE5CedvQPSsuHc9lpb8GvAchqQd+nanFvQQbl5+7f4HrrvKsgPLT76u4ZqgbE+WwWQn3ws+QLIT1KSXFNOWntIfi5Ia98oyE+7P7q6qOqT5BK01p5+6Ro+Ja3dvSA/OYnB5Da3S7K0wSKnvs6XYR9AQUCh4FZCaEPHShbvSekGNBkQmPj+uxJPQUgsgwxRK6pAWsxLurniAvzGPoD280+SPHhH0tU5fBdIrF9hYWTHYDDUByqIEOUeZBRdVvH4h1L69D+q1VrrDDI3WYGK2yOkpaIkkG3xzB2JH0De3fy5lD5nwtYbKgvdd3o5yqby1VBtkJuSE2yAG2yzmGkS49aH0tTeKe19Q9LaRR7R7I+uLqpOfljgtGPwuLSwyGkupxezBUa3ssUq7876Y9gncMCqn9sJAlpxWGsrvvs7jdeJWX9rDsJgbV61pcdA7Sm/5nL3TH2uAc7JxDVJNxbcd6kQYHdhM0FgMBjqARkBonwC+dlaVRd9fOsXkkx+oglYuU+t2ZVISpIykeH8GOTcZ7qiK779K0kW7uHYjPxQnlL2UeYZ9gNJmmo4DOt6FUuJJHEsYRhIc2u7VnJv7uxWXrEfqGrAc35tRZYe3pOV6Ycyfe03MvPJb2Rl/Cb6ZDtamwY+c+XXid5mYZkvtmpFbhu+DJerAgM53pKg+7iEQy9KMHRVwmPnXH2czgHIDLBqdK50ZQptEuToriRj70v88H0RCo2yJYnPiQJhH58Xu+IeAp7LgYvaXNC2C4x8XvhjGRTOLK5cLutN3c/spxW/kfK3qTk+j4vxSehP+N+h0OWqFSZ7fE5oagJt2fVz+xxm/yfBANGMQPt78LzLS13eL14/Jpvd/HYG3m9ee1Mrbj+ewXOgMlg/y9Gir3cK/nb52v31P+c5EOpu4fXzHLRPsV/rRzsDhX4O11+5SOFrxp/rA7wPTD/im+LZf/cl8Hornj9fP2sM1Czg+WnQ8YdrVvmB69eM0E0SnnpTizsHXADCbNCQJVIquucD2RYzZcf8PWHpimT2C0kX7+I6W9Gaca1u3O/reR9RkHIw/IVtdq0kDxa25f4ClG+QzrS4KR3HRmX4lR/KCFrvyfPSf+qctPcN+r+uHqpKfgqb67I6Oykb87My8f4/y8R7/5ss3v8MHbFTgqYOGelpkVN9TXK8t0lXgbGR5Rn2B/potShoUYKWdpH2fgnQQubHIBHqGZWgo1dbMv25JFOfauBguuLKV0gRQkIFAJ+Rb18jfPcEPV9OmGi7IT8QwIxVcnXGNl3Vef2+54H/bZyDJols7dEs2SQgSkKeJQR1CPHvU/wmfp/lP1gMcafQW0yihd9q7tA8TSSoz4uUEy6rYPP6eR9wLrshYbpMmPe/Befgk8d93SrBDCSgmg9lbc6dz25BwoHnTdL+vMuWlXjq9bt+wBU6T7o7nguc6Hndev24D7x+rqR8TqibZW2W2iBPCt3CT8w7RNCOscmVS+yH2Rj8OvKjaSi2cQ/w21srkuZX3G9r/33+sRswzoLXzevXPoB78YxVUwdPfvz9zeQHx1EPV30Na/6fcPQVCU9/U9INPJuNJfTRWSU8ycIdXeElG4u4V4+UPTfev/5+G3YOzku09tDdRfLDshYPF0lKGaS+Jl0jp+XEm38jJ77519KD113DJ6S1CzK5yqgq+Slt5zHelmR7fUXu//7fywO0uZsfYvLoReuSwa4WGe3NgQQ16XJ3Nqv0XhukLA4agwzQCtR/ScJjL2ELoTB4SsKBUxLf/a0zFXNVVwTBF7VBfkAQ1BLsipnw2g354TJVkA4GLqabiyrQVAt8HvB3qTVzS1LYA02xZwQTTxeIkKsr9pXIzhuNbkLew3QOWuRuoJYGTL4dIKpM4Aai+rwg6VHBTmGu9wJb5ibZKVpwvZ2DLq8SrYPtfZgMn2/FBQlPOvmZkmhX9mSXYG6qIfTTUfRTPoPngGr0m7h+pmjAc0jX5zAJL/tPdwD+tl67uweqIJAQPye0KCZjR0gCMyvULkw/QR/GJtNVcNl22RLxbHlJF4+6r0G+tObeygR2om+y/+6EgFBRYh/k9ZOAsx88Qx4cKPl5CpzV+//f3ps8R5Zl552fz/PsjhkIDDFmZOScrKyRFKmWtJFZc6ONtpLMtOZGCy24kElmommlP6VXUpuxjc0i1SJZZFWxhqycM2MOzJPDZ+/znfsu4IFARAAITA6cX8TFc3/+3N987/fOPfccufY7dT2O0Zt/iOjb/xK9pfsieFi+QW/x1+ivyHXal21jKh2p84zTh11dHOLO8myjo8PbH6/LPdKW66W9hsLkPGZ/+H/i2g//WG7BCaQKZcRSJ+/0fKJXZCgS0Yyr9PeJp/OIJPIIx7JSl7ObK4Rez+30ZqOHZrv/RlZx44iw8tGMxHKDSyOh8XuWPkfvwT+g++VfSkXwhVRg8pQcodmXTz9DKEopQtTs703+0hgG0cf3usNeVvi9oLDiPFY/heC3YXfdvhy0zqDws/3L+FD+R4GL6/pl+/V3Btbvf/dVRZeV7eZrPQbHhN/VY+B/05eBde0vzy3Lef48HJPdbTjCNeDXz+Om84JtOOpp2L0Ggt/cPQ8D69pfntt/Fn8ejrjy5+C2y3ZwW7QMrO+gsrsNA9fuMY/BhYBWHNZnnY6InW/l4e4vtDufQ9j7GyIMWw2p6xIqdlVcGmcCL+lmp48t0QHUA51u37nBRGKqF6gbYumC6giKHuqK0+BExU9Yni6iIn5oouLGR5lpXJ7gw3JxsXvLj+nfarih7ydodDJeB29uFT+ioNnvvfVUnoK+QO/hz0X8/NQND21KZUBxxNFdJ3tpnA0va3S1ch9sBF5SvL+AXpfHvTble/ytwfXvNnrBel4o/vO9ZdV348iNf7DdvsE76v5zOb/8kdc9AI+fboPbl739Z9m/zpcsx+5a3YZjnge9Fvibhzn+vuxbXtd/nG3gugd/M/i9V25D8Lk/Z7vn4bj7z3MghUJ491zsX+f+sm/9u8fhmNtwrrA1lXosED99ih8O4rj/9zosvr/xGOqbRvHDYuLnzODlxC4vjv5W8SO6YE/8ZBCl+EnlkVTxk5H5p9MDcbKWn3AY0XhC1VosnUMsU5RpCRE6LcrnHbkRG7Kz3GkqPzo8UQCZCDp92IcdksogFJEbnYlB6Quw9QT9lW/Rf8rK4JmKohCd/djtMqyWH230Bir0XUHDRuAwRS9KKcFvHplXbIO+3r++oKi1hq8HlzvGRuxuf/A7vtHbv779RZf1hfOOfQCE4Bjo73L6mvXvLuPXHZTjnwT5arANuu+vWb8vXLfuPxt8P/8Y28Cv6Hf9/uzbr5cVv63+PHDeiRyDgXUcpvj1+21gGTJYf9FpmfUZ95/d4ZqTkEPfN0X4sDtUBF5IHvS0XjTxc+r4tp5XNNNa1FtdLQyCHJIHhkg0gWhKBE+mJLqBAiiteiI8DJafQaLJLJLFUY3QGE2yv47mra4OaWNQIyq/bnAgjDOGwoY3u8bG4NORVBDa1TWE1p5XoQLOl7PCr4vHmBNO9YXOfSnPLfeaZYeCYH8Ou/9HXn5I0N3gPum7V6P7Lffg7v4f5kungaz3vFZ9KnB/pL7Tek7qO633WP9dsvpuCGB7T58fhrzZafXVGNLudEVfdxFJpJAqUTOMqfHktM/Pqf16LJVDqjKBzMiM2xERP+1OR2P+OMtPTwQ5laA7IMZZElQGrAj4ZKRmX5oWL1GNpw3IeeHXzePMW+yQ26INP6fu7XAT7MiRhMzg8kf53kVmcJ9ex8CyOj0P/HrPa/2nAY8nBQ+7uLwAojXhMu3jkCCNPQ2RGthQhA8tPy0VP201kqRrU0hXpxHnIINXDTI5AU5R/MiOlKrIVEcRSyZk51rod1uy4121+LDbiztPSxAdnowzhBXry8ql4hz3R49lsP7XHd9XfTaU7NuXw+7/yz4feg6xfxdp//12XJDNeWP8sX1ZMc6Ejoge+vxui+BpSPtPX58euyRFF/Q7O4gmYqoZ0pURMMLzabtenJ74oYqj+OGOJNnv2pCdbIryo8qDjvaitzcFkEV9NgzDMIzLC40czNjO0d40etACRDFAw0ivK+InHkWmLJqhPIJ46tVxpU6C0xU/xSqyKn4SIn44dLOt4of73Oo6x2d6e5v4MQzDMIzLS5ujvaW93w11Q58XHRnJAIdNxET8qMGkXENcLT/DKn5SaVVxueqYqLgsvPOSeuHL1A91Y74vRns0DMMwDONyQsuPi/PHUDfO33cwxjENJjSWsFD8PPfhKXCKlp8kUoWSCqA4AxXJqrgruj9SaO1hlxc9vjtd/YphGIZhGJcQ+vhonL/A4EGTh7pd8UN5E02kkC5WkC6VnWYYVssPAxNxjD49uDluP56r6Rh+BjLisLZ218X8Yd8fR35RDDEIosX8MQzDMIzhh+0523W27+ztabR9Bnf6/vYQDotOSOZUH8SzJTCoYTSeRDgadaLoFDlFaUVJFwazUseyFaSq1xDP1xCOJcG09R3ZeYoeen3zgDR5QOQAyXEyDMMwDGPIYXNOiw+DGnrhw2lb3nd7HdEHMdEHVaRqcyKARlQfHCk8yBtweuJH7VlhMLVFnDtXmQ12LoGe7DQtPxQ83vLDPkAeJDP8GIZhGMbww/Zcmnpt311b7w0dXfS6He0JimcrSNfmnxc/qh9OVwCdouXHQfNVqlRDYXoB2doYmPiU4eMZzpoj2WgSYx/g8nZHnZ8pgAzDMAzDGG7YnNPJebXughuzd4ftfog2oX4X0URC4/qUZm7IdBSRWCL45ulz6uInFIkiWSgjPzYjImhEdlaUney0ih8Rdjw4HP62ttPVKcWQYRiGYRjDjU9mvi7t+3azq+/Z7rP9Z4yfSCyGVLGC/MSs6IMqwrF48M3T5/QtPyJ+Urki8qOTSBdLiCVistMucSDVnz84HP5G/x+ayHwCNMMwDMMwhgvfhtOWwW6uLWnfGeCQPTtuhBfj+3RE/Ig+yBdRGJtGulCW95dK/ESQzOWRr44gky8gKjvLPB5OADnxQy/wetP1BfK9yR7DMAzDGF7YjjN/p7bvTGLK9r0rcymMel2ZtBCNhJDKZVEYGZNpAZEoc0yeDWdi+UmLsiuNTSJTKiEWj7g0F7LzPDy09ND7m/2BPt8HjT4mgAzDMAxjOGE7vpvHU9p3jekn7b227n1p/7stRGIhZAoFlCemkCleMssP6LDN7KzRGCKpPOKFcSTL0/paPwz8f2gKo0LclIPELjC+NgzDMAxjuGAQQxo0NnbcCC8SDgWiRwRRJJlFojipJZIqAhERPZGzzbR/+uKHO0PxIzsXSRWc+ClNacBDKp6+ih/XD8gDxrwfG1JM/BiGYRjG8MFRXfTz2dBUFj2VAWzn+0xkih4iiZwInwkkChOIpkX8REX8hKOqCc6KUxc/mstLxA9HfUVTORE+40hXZxBPF+QzETi9jixF5+fA8rN7wJzDlDk/G4ZhGMbFZrC9brMtb3KUlwtq6Npwjmair28XsVQWqfIkUpVJxDJF1QeqEy6T+BkkkcnrkHeO6U8VZYdDHTkOOyqAenJsONSd8QDWtrvqHMXjZbLHMAzDMIYDttv0312Ttnxlu6NxfujnTOHT7zakvW8gmcuiODWHwsQcErmi++IZc6bih2ovWxuXHb4mO59DCDwYTTlYMpUj1uiwj7CrMQFoKlPhY+rHMAzDMC483mDBdBbsxWFbTqMGR32pv48OdmoikckgPzaN3OiUGkXOgzMVPwxwmCqUka2OyA5nEWa0Iz1aTuFw0uu5/kIOjaMQYgwg5yFuGIZhGMZFhNYdWnwoemjtoRuLi9sXLKBNvfPvjafTyJSrmsU9lkwHC5wtZyt+4gmk8gVkSlXZ+QxC6t09QHCQeMC22QUm4ocH0VJeGIZhGMbFRQMWS3vNbA0c6fVcu60vg/ehsAqedKnsAh8nk27+GXPG4ieOZDYvO1xWU1c0nkI4GpNjIZuh8tAVxgag6GGf4TZjA4ik9I5UznHKMAzDMIzzxrfLNFq4VBa9IE+nG+Hl23WKHrb3kXgS8UwOqXxZ9QCNIufBmYofHgqWcCyFZHkKhWvvITtxSw5EGf1g1JfvCaP4Wdl2+UDYDWaSxzAMwzAuHmyfaaSg6FkNkpT7PF5s19m+x9J5ZEYXUJz7EOnqNUSTWRVE2g92Dpyx+BGo/mIJJItjyE7eRmZkHtF0QQ9OiPm+KH5kMZrP6CxFEaTiR2aaADIMwzCMiwXbZ3Zz0fLDUDVst9nr5ZKYsv3uamBDip781F0kS5MIJ9JO/KhR5Ow5W/FDZSMlHI0jWagiPz6PbG0S8VRKxI8b9cVoz86ExrDYPU2GxgPpRZBhGIZhGBcDtssUPS6FRQ9NabPb0n47FxUpPTeqO5ZIIFMZQ2HyOlKlEURiyV1NcB6cveVHCEejSOZLKIzPiPgZRSyVQL/DeD8tOVZuaBdVI0d+Mdmpi/rsAx/qx4ZhGIZhnDM+MwNHeTGg4XMjvGj16bU1vk80HhXxU9P4Puli9dx8fTznJH5iSBUrehDyI5M65h99Znp3yU5VL1L8SKHlh91fqwx8SFOafuZVpWEYhmEY5wUtPRycpKOz287Xh82za6H5V9p1EUDxVEKNHaXpeaTLVUTiZ5fE9CDORfyEQmFVfYlMDolcCfFcFbHsiOb7CIWjzi1a/rC/kCY1KkoOn6MQ0mBJhmEYhmGcO+yRYUw+JjFlbB/fk+Xa8YiInKy07zVp52tIZMtS8ogmUtLW7wt1c8acj/gJU/y44W4UPwk5KLHsqIifvHwW02UofDgC3omfHtZFWTLlBbWPGX0MwzAM4/xhNOf1RleNFBRC3nChePGTofgZkbbei5+ktO9XUfzI0aHfD60/8UweqeIoMiMziGcLzvm763x/wrIcLT0UQOxLpPihYxX7GNmvaBiGYRjG2cKuLYoeOjizR4bts4voHFgm6Lvba0tb30MsnUO6Ool0eUyET0ENHxEf3+8cOd+1C8z3lRubQXXhbWQqVVGDHXTbm3LsRAAJuypSClNeMPYPFSYFkGEYhmEYZ4v2yDR7WNzqYKvZVR9c7a0JLD50cu61t+RFQ5OYl+fuID8xrwaOi8K5i59oKoNMbRKla7fkIJVFDcqB7GzrwSNqJQqOKBOf0vmZobN58A3DMAzDOFsY00cDGtYZ06fvYvpIO832moUZ3HudukybSObzKE4tIDs6jXj6fJKYHsT5ix/m+xLRkx+bkmkNUfX7ScoBjMiBkyMaFJrT6sHBpvihya0n823kl2EYhmGcLr6tZWl3nPhZ0WjOXdfdxXbYl1AU4Wga0WRR2vURzd7OnJ7RZCr4tfPnAoifpGZ2LYxNO/GTzAERBj963hmKx5aBDjmkzjtW6XEOPjcMwzAM43Rhu0u3E3Z3aQoqaZf3++DqqG0vfgojyIv4SZdriJn42SMSi+mQ97SowlShhkReDlCmJKoxgX6PfYm9IO5PXw84rT8UQXS0ogO0S3qqC7hiGIZhGMbJMNC2sr2l+wnbX7bDtP4wzo/2wuiibI+7CEdiiKWL2p4nizVt388zielBnLv48XDMf7I4guLMHRSnmew0h16n4Xx/gqjP6vwsW0yrz0q9i8frbWw2OqI6GRxRwx/qcoZhGIZhnBSMsUeXky6eSLu7tN3REV4RaY+9kzPbaXV07jS1eys3PovitTtIlUbBlFYXjQslfhL5MnITC1LmEU9nNR+IZnv34kcKDzT7G+n4/Gyzg61GF93n42kbhmEYhnEi0PJDYdNDXcTP0lZH3U/Y88L2mEYJR1/ba7bbUebxGpnStjxZqGhom4vGBRI/YaQKZZSm5lCcnEUim5ED2YQmRZMDz+Pri2aPbfVE+MjJEPXZFH0k5wE2AMwwDMMwTg7627J9Fd2jcfY44IhdXmyHdXSXLKP6R7vHKH5aiKeSKIxPoTyzoF1ejOtz0bhQlp90IH7KU9eQyNDy0xIBtNft5enwRNDbXE7ATot9kHTAYuClYAHDMAzDMN4YGhXa3ZC2szvSHG83XVDDDr1NBlD/XBorek78FMenUZm5jkypZt1eryIcDiOZK6AwNoXCxDVVi7F0FpF4QoRRyB1Y/SdKVBQno0nS+rMt4mej4aYW+8cwDMMwTg6KHPawbDQ4wosRnV0OLx/NWdtl9s6EOIApjlgqAyYuL4j4KU7MIFUoIWLdXq+BRy8URiSRQWZ0DuWFj5CuzYgASmo/ItSxOVgsKHTAou/P8lZHTXGGYRiGYZwM9O1hPB86OtPQwN4ttr2ur0voybxuS/16UuUJFOfeQ3b8BqKpgiwjEkMXvnhcLPHDo8mM78ksMiPzKIn4yVQpfhKie1py0Cl+nNr0Hub0+3m20VbxQ0uQYRiGYRgnA8XPaiB+GGOPlh51dA4+Z7v8nPiZfR/ZsRuIpQPxs7vkxeLiiJ8Bcw4tPdnaJKrzd5GtjiGWiLtkp97yExSizs9t5//DQktQs8OgS9YFZhiGYRhHhXF7mEWBcXy2graV7SxdS9TyI8toG6xOziJ+em1EohFkyjVUZm8hNzqt3V+D7fpF44JZfhwMhJSvjaI2dwO5ak3ex/TgquWHB3sAvqXOaXWg/ZEcgsfuLxM/hmEYhnF0ej06N7uQMuxd4QAjNqkHNqvq6EzxE0K2XEF1ZgGF0YkLFc35IC6m+EkkkauNYWTuFvIjY0hk0ghFmDBNjryoHY0iGSzLKQUQHbDYH7m87XJ/cUSYz0NiGIZhGMar8W1mVwqtPfT1oQByUZxdW6vLaeGydDXpa/DheCqFXHUE1dnrgfhJ67IXlQspftSgFo7SBIR4robM6HXkJm5p2guNIzAw/J3GNB54nixNfConi1NNe6FLGIZhGIZxWBg2hj60a7T8qDHB+fl4X1u19nRdQMNYOofM2HVkx28iXhhFOJYEItJ+X8CurkEupvjhQQvETywv4kcObG78NuKZoihNJ36c83OwqBSeLHZ3uRT77mRR/ZgAMgzDMIzDQesO3UYoftalPaXfD4e708iwq2eCri5NZZHKqYNzdvwWEoUxhOIp136rs/PF5UJunUaNlCOt+b7yjBewgOLMTSRzRTnoFD8u5YUuFxTaeeiMxeBLNNfRK52Kld1hhmEYhmG8GiYP9+0nRQ9j+rBdpQN0eF97q9kXuk1NTF6Yuo7itLTRpRGEonFtu7ncReZiSzMhXaqgNn8T4zfvIlMuIxQMq6P4GYSH2StTOmg9We/gyQaH5j2/nGEYhmEYL0LB83Sjg4drjOkjba1oHB3Wvl/HBJYfip9UoYjRm29LuYdcdQzhSCRY6GJz4cVPKl9CeWoOtbmbSBcKMqfjFOd+8SNnh8qUsNtrcaujwQ+3mZDEMAzDMIxXwrZzeVvaThFA7DlhKxsW9fOCFUfFDy0/bWmj86jO3kB17pYOdQ+HTfycDOw3jEQRTmSQHplFaf4DZMfmNYZAr9NwJ8C7oAewv5JD8zT5qZxAequrH1DXusAMwzAMw7Pr3xM4N7OtZPtJv9nBplVHgkl7Sz8fxuLLjFxD+fqHyIzOI5LMOvPQCyaii8vFFz/sy4rE9OBmRuZQWgjEj7zvy0lQ/58Bt2aeLA5zd7m/XC4SnlSeXHWCNgzDMAxDofhhFGd2c9HXZ1f8vBhWT9pbup00EU0kkKnNiPj5WMVPNMGAhpQTJn5OjJAcUDpPRZIZET1zqN36GIWpG4hn8074MOozz5AvIoTonOWsP85xa3Gzo1MXnXKvGIZhGMZVxLeDNArQSMAUUYyVpxnbZR7bUbanstBu2yqNrgqgWCqL3PgcRt76BIWJBUTlvYqfIbL+XHzLT0A4GkO2Oorq3E3kx6aQyMjBfgn++NPQQ8/1JTmpdHymNYin0DAMwzCuOmwPaRRQ8bPdxXajq4aDg52cpVDghCOIpbPIj05iZOE2ciPjiMaTbpkhYmjET0TFD6NH3kRhbBLxTC74RFBVugfPGU8elSsDHjrx0xXxI6pVFjUBZBiGYVxl2A6yPXTip6uWH4qgXfHjFtsHnZ8jiKdyInomUFu4o1N2gw0bQyN+6G0eicQ09UWyUEN+YgGlubfldVk+oxPWjnaDcTlfCE8wLUDMU8IAiD77uwkgwzAM46rC7i2mr1jZdn4+zOelgkjKYDvKgMK9bkMa0gYS2RwK07eQn7qOVGlULT40TNA9ZdgYri2moJGDnMhX5QTcQfXWx0iVR+QDip+6iJ+2W24AfiUihcGaaNZjDAOqWwoiwzAMw7iKUPDQH5aFPSQ09WgTG3zu0Xg+NC50d5AslFBZuIfizFtIFqXt5bB2fmkIGR7xEwgfFT+FCorXbmPkzu8hOzKJSExOgKa7oHQVVRMUqlbG/mGcAnqzU+Uy9g+dupioTSNXmgoyDMMwrgB0BWHIF7qA6GCgLfaGdFGX9pD4KM6D7aj8kUlXmt4+0uUaqjfeQ3nuLaRKIn6CNnkYBdBwWX4C4sk0MuURFCeuIVOZRDw3imiyiHD05U5XzP2lw99FBPGkr9ZpAepqOG/DMAzDuOxQ+Gi29jqHtQcxfaRxfFUYmHAkjmgij3h2RMTPBArS7marY4inXz7oaBgYSvETS6WRrYj4mZxFujKBhJyUaLIgJ+nlTlfM+k6hw5O9sUPx4wI60fpjGIZhGJeddtelsKCfD9tB+r/SKNCVdvBl4V9C0q5GknnEvPgZn0G2ZuLnXAhHour4zIOfHZlC6dod5MZnEctkA8fnNg11wdIB8pbn1md/X6PyDU4+BRA93C32j2EYhnGZYLvG9o3tHN0/tOdj2/m+ct5BzR7bTxfNuYFYMiHt7DTKs3eRG5tBIltATNrfSDQaLD2cDKX48TD2T2FiDuPv/gC1m+8gVSig21xHr70DDX44ALskGSyap5Xih6O+aP3ZlAuAFwTNgaZ9DMMwjMsGu7XYzlHw8MGfuS/5mm3ewTF9ejrCq9feELGTRnXhNiY/+AmKMzcQTaSChYaboRY/jPycqY2jev1tlOSkMLusc3zuisThid2z5njnZ8IhfnR6Zp8nTYAUQ+wS6+mnhmEYhjHc+PaPTSAf7unvykTfm1I2dtxDP4O++MSlbli7bzP7CEk7ypHUiVwOhcl51G6+i9zINCKxuP7+sDPc4kdOVkxUaDJXQLoyhuzoPHKTt5EojCIciYl4lZO3L/s7odJlYfoLOj4/WW+rCqZp0DAMwzAuC/R3ZfvGTO0M98KHf2/tceaAQaQN5MiuUBjxbBWZsZvSrl5HpjKOVL6k/rYh14Uy9Az3XsjZiyYpfopIl8fkRM0jO3HHiZ9oTE7iixnfCU86zx8dvdj19UQuCvaD0h/IMAzDMC4DbP4YvJDi5+kmAxp21OLD9o8C6AWC3F1cIJ6rIjt2Q8qCDixK5ouIJU38XAho+WF0STo/p4tVlKZvYPT2h8iNTiMaT+xZfngFBMWb99gFxn5Qdnkx6zv7QXlh0AO+KReHYRiGYQwrdOWgTyvbNR3gIw/4zHTQkebNx/NhGWwf+4H4CUciyFTHUbv+Hsqzd0T8jIrwSSESG85ozgdxOfZCYK4vDn0fu/0O8qPMNRJ3Ts8HdHt55HTrOWd3FwUQLUB0BGMcBMMwDMMYVnz6isfSrvGh/lBuHSqCuohEI8jVRjFy8y7K0/Pau3LZuDTih1neS5PXRPy8q4lPY4mEnEc6bL1CyMh55vXQkcXWd3rq+8MkqLQGGYZhGMawwu4txvNhu7be6KrF57VoTwnFT1TEzxhGb7yt4ieVN/FzgWEHZgjhaBzp6iTKC+9LeQfJYgXd1oaL/6NiaAD6/kih5Y+quNnp6+gvjgSjYq435YLpDnSdGYZhGMZFQy02HLTD2HUugwF7M9iLQQvQq0K5sKuLw9q7rU0kcnkUrzFv5kfIjMwgEk9JA3mJZMIAl2uv5CSFAvFTuf4eKvP3kCqW0ZOT2peTqz5AA6hcogCSo6ARoEUa0+pDEyHDf9flIurSC1q7zkz8GIZhGBcRih/mquwF4scNZ+fDPB/qGdn5pc/v/a78b6LXduKnNCvi56aIn9FrCDOmDxvJA8aFDTuXR/zwBEkJRaJIl8dRXrgnAugdZGtTol4TOp+LqEOXXAUs3vGZp5UXBs2CNBVuNLpY0gSoHBbYQ7vnImQahmEYxkWD7VNLHtSZsYDtFoP4rslDPN/T6sOEptLKuYUDXDvIB3tpOiMRbSfp5Fyeu6vJS13bmZQPRSaw8bxkXDp7FofhJTI55KpjyI9dQ3Z0FqnqPOLZipxgxv7pyFl3J3wQnlt2gWn6i8BDnsp5q0VB5ISRYRiGYVw0Wl1gu8WBO32s1Z2vDwMackQzezYO1C40BEh7yGDBsXQJyfI1ZEZmkZN2Mz8yofHzmErqsnL5xI8GZ8pp4rU8E7DJyUxV5xDLVDX2D0+2V7uD8NpQ8SNqWLPeysWz3uDrPhqil2z0u2EYhnERofjhg/pao4dVeWhflfaLsX1U/Ei7dqD2oeWHriCB+ElVrml7SaNBbpQJw038DBXalSUnk/F/Epm8pt+fePsjFCemNUFbv9MEaP0J+khZfLwDjXkQQAOh5gCTi2hpy6X/Z0ToPROiYRiGYZwPbIfYHtFXlb49jOWzWu9pz8VgG/Vc+xa0ea501NcnGo9oeJix2++jNLWgkZzZfjLWz2CbeNm4dOJnEA5/r87ewMInf4ja/A0kM0k52XVRu2138g+Ap5pKOSJHZqvZxdP1Nh5LYTcYveY1B5hZgQzDMIxzhE0Ys7IzcKH6qW511FeVD+3ULFqCZQ+EvSCdHcRF/FSmZzH30Y8xsnBHIzlfBS61+KGzVqYyiurcbbUAZSojSGTzGqVSPdxZ9jmBeYVMR2imv2CETCpq+v9wFBgdoGlK9E7TLIZhGIZxFvh2h07OjU4PWyJ8GL3ZJ+rmAzrxUZwHYXun7V6vjXA0Iu1hDulyDfnxaVRmbyJbG9cUFleBSy1+VPqGIwCHv9dmUL35PYze/ZEKIvR2RPjWgy6wg9GvS6EfEJU1LUAcQsihgyZ5DMMwjPOA7Q9Fjs9MwCm7wF7q3OzpifDpNDT8S6pQRu3W76H21g80f1c4IaInHJUfuNyywHPJ9zIQPxEnfipyokdE/DBPSb/XUJOfdoG9BF5DfgQYlfUjET+0AjH3Fw0+JoAMwzCMs4TtDtsf9kywN+LJRlvFD7vAXubc7On3O6J/djTwb7JYRvX29zBy54fIjs878ROR9vKV6unycKnFj+vCCrvh79kScqPXUJy+iYwIoURhBNFUTuP/9Ltt9Xrf34Xlu8CIiwHkLEDL2x2No0ATowkgwzAM4zTxXV0s9OlZDdogpmXiew1iKMv5Nsu3W0S/x/ZN2jm2hdFkVtq/GjLVKRSnbiA/MYdEnqFgGAtP2suB715mroZ9S4inM8hWRtT3Jz95E/mpe0iVXRCnXofRn4MRYK+BSvvBahvfLDXVCdqcnw3DMIzThq1TT/5wGPu3Ky18J2Wtfrg2iO0b27lwJIZkYQw5af9yk7eRH59Ftjqqg4MuS7b2w3Jl9jaaSKoXe6YyhuzYrJ54ip9oIuW6vpj3i5YfX14CVTa96tnPyi4w9rvSAdqGvxuGYRinAZsXOjiza4sP4M+k/VncDHofXtb27LZlnLqAhpFYHMnSOPKTbyE3NqcRnen7QydnWoWuEldrbwWG8C5OzGLi3seozt9BujSKUCQBhBjM6XDmPl5P3tns0VobKyKGGq2XXICGYRiG8QZwkA0H27C9YYZ2iqCjwCjO4WgCyUIV5Ws3MfXe91GauY546mqM7DqIKyd+ohQ/kyJ+3v49VObfQkrEDy8KXhyH0T4UPjQ98uJjfysvRgZC3LEQ0IZhGMYpQOdm9jSo+KFzMxuhQyMNWygi/+OB+Lml4qcs4ieWygTLXD2unPhhuO5kvoT86CSKU/OozL3lsr+XqnKJMLV/UwRON1j65fDaY8wfJo+j748v7BazJKiGYRjGm0BXCm1j6tK2SKGvD60/Oy3G+JEF6JjsywGwHet1W/JDLXX5YLb2yvxdFKcXkB+b1u4udoNdVa6c+BkkVayheuMdTL7/Yw3vHQ7JxdKuq1f8y+B1psMJpXgLEHOoLG65OEAcEm/ixzAMw3gT2Muw1ejhyXpHfXw40pjuFmxf1JXnNTgnZ7ZnO8hURzBx7/sYufWB+vkYV138lET8XBfx88FPkBudFEEjFwvFz6ti/4jqCYv6YfRMXn8UPxQ8dIKmSXJDLlbLAG8YhmG8CXyGZoolxvF5tknxwyHtIn5k/iG0j4qffnsH6DZ0pPP4OyJ+bn8o4mciWOJqc6XFD5O3xVJppPJlFKZvoXbnByjNvo1ErqBBoNwQ+MN1gbFPljlWaKJ8tkk/INcFZhiGYRiHhV1djOPzVETPSr2r7Yi3+LyOfr8n7VYT3eaGOjMXpm9j5O6PUbz2lvZ0xNIZl97JuNriJywXQTyd1dwm5fl3MP7eH6Fy8yMkC2X0mqsaAVqHwL8GXpTMrMtsustbzimNwxBN/BiGYRhHgYNnlkT8MJ4cexToVsGsAodyp+CQdmm3us11xDNZlNiuffjPULn+PjLVMSQyORE/iWDhq83VFj/hiDp8RZNpZGtTKM3dRXHmFjK1SVHIBRFHcdBRXs2HclG9DD8CjPF+KHjolU8LEL3y2SV26AvXMAzDuHLQubnJJKVNJtFm++HaEMbxYVcXm49X+fmwfXK9FD1ptxIifApIVydQmLqJigig7Og1edCn8IkjzBQWxtUWPx4Gd6I3fGFsCsXJBRQmbyE39TYS+Zp+1leP+ZdbgAadoCmAqNw5DJ7hx9lfS0c1Jp0zDMMwjP1w9BYtPE83Olja6uqDc73lghpKs7LbvrwUTV8h7ZTAVBX5aT7Iv4Xi9HUUJmaQLpYRjjKWneEx8SMwrHcyV0Se4mdqAfkpip+7chGNqPjhcEFaf16FF0C8WDkUkeqdfj9P1p0T9NHiMhiGYRhXBfYMbMlDMv182NW1l7NLxM/rhI/AYe0UP6FQH4mciB9pvwrTb6E0dR3F8Rkd1s4wL8YeJn4EHcEViagDdDJXQnFyHmN3PkRBpsl8FZF4xiVAZfcXFfY+++P+RHKEhh6XCNV1g9EKtFrviDDqqYnTMAzDuNr4OD4UPIzhsyntBduI/T0FB7UxLmGpS1uhEZzjacSzZeTGrqF28x2UpheQKlbUwZnt2/7vX3VM/OyDI70qszcx8+GPUVm4i3R1yvn/RBPoMfu75gB7uf8PrT9MkcILsynih3EaeGEzBhBNmpvNrvbfGoZhGFebbRE6i9I+cJAM2wn2GDQ6Llck2xG2Jy+H8X4YyFDETySGaCqPVGkcpWu3MfXOJ6jM3dbBO8bBmPjZRyyZQqYygvLMgnaBFSYXkKlNIZ7JU9G4Qvxr/17w6tzHAKL/D3Oy0IltZdtFgqayb8gFz9Fh5gR92vjjG5ynV5VDRc44Aru/Gfz+YcppctD6BsuJsu/3Dlrfy8ppctD6BstJXwO77FvPq4pn8PVJsX9d+4tbaO+1n2WcKD2p9xkahd1aHBDDyM2+bWB7QasPTwHbkYMsPnvnLHiNnjygZzV+T17aK/ZcFKfmNFt7/Aqnr3gdJn5eQWF8BpPvfoKpd7+PwsQsQuGoXIj0lH+9+ZBLULVH5AjTmY1dYLy41Q9ow+VnYewG45TYrcBZSWgt8eriK5MTwf9Q8Lt+Ha8rfhtYThT/o68ou9t5Uuz/3UOWF5Y/AfS47v/dgwrx05NCfu8ox2B32RPmMNvw3Lr91Dhp6MfD+v9hEBKFrxkjbtC/Z7/eORAuFw5ru5Qfmcb43Y8x88GPUJyeN+fmQ2Di5xUUxq+J+Pm+lB+I+JnTflX5E3z6engBUwBRyXMEGEd9rWzRqc1d8FT/xiniK3NOX1d8A/DG+N/g73LC6RHKiW3HAPqTwe+/rPjtPTEGfvs45aSPwWG356TRn9y3jlcVeYp3U19OguC3X1d03X55To3TYFf8rLZ2xQ+tQGwn1G3iMMJHUfWj4ic3OoWJtz/G9Ac/RmlqAeGIBTJ8HSZ+XgEz3qaLVeRFBNH/Z/weLUDXEEvGNQ2GjgIbrFgG8OZKb7Lkx7y4eZHTsY3BEHnhL0lht5g5QZ8AFKYUqFIZgCMbtEglEI2/vkQSUmTK77Kz/VCPXgfhKiS3DYddtxRdL7fdFbUwHkFo78Lt5vf4ff1N2YbDbAe3gcv5Y8ep34ajHgt+h7+lJdgvfb1vnS+sm8tx/cGyh7SyPg+Pvd/3oLxq3fuLbod8Z3ffpRwVHq/gPD63Lfztg9Y5WPQ6HNiGI+9/gG4Dz8Mh18syuG79Ho8ByzGOgfECLgguMwB0dMqBMPT5oRjSJiRY7tVdXXRybmvOrmg0pGmZRu98jMr1e8jLA3q6PKKBe1/4vvECdlW/ErmA5MaPZfIozdzC9Mf/FKVrN0T8JNBtbaHfbboL8jVoPRRci+zq8gKIwxo1DtAOR4C5z403QA+0VNba4EolzopcG72klNSrC6OeagPgG55jVh66DYMNziHWHfXr5nb7wkbnqNvA5bl+ua2f2wb+/kHrHSgxbmewHfpdluM0fG7/Q3rc2Zjy94LzoMf4Jevm53q+/DbH5TdkG47S+PsbbXf7g/Xy93T/Dlj3cyXYXn5Pj78/B0fYBkWW53HT8xiUQ5+H4BzocZPvHfc61G2Q7ffH/qj3wO49dJxrwDgIPuRS+DzZcCO76Njc4fgZ+ewoFh8Oae+1t+U0hVGcnMXUBz9BZY6hWcruXNn5OhR2lF4FKx65kOhMlp+cw8S7P1DxkyoUpW6gOpdlGFmTZdACtE8QUYUzGSrn0vpD/x+aOund7xLWddHmjSAKiBYgHcIYFOMIqPCRClsq8VBcKvt4BkhktYSSrylcjsuzsJFixa+VyCFrJA8bHDYg/rcOsW7dRl0+rSUUZ2PEbZDfOgq8IOU7IW47GzL+Dn/zsPufCLaZ39kVLmz8jngMdP+5L3v7xN/mOl69bv8dWZZTbsNR183jrwJKvkvBk+C63ToOXPdA0fPgt0PFEq+Bo+8//TC4/lCMxz84B9yfQ2yDOxYs3AZ/DRxh/dxWXre8DngM9Ni73zxwfYOFywXHXyo9t/7jXgNXmMH6m/U5B7bQukOfT9b5OqpL6ny6PfhBL2wfXrD4sP4PCpfyUZwZy4ftTzKXRXFqHmN3fw/FmRtI5Iru3Os1YOfrdYTkBFkL+xq6nTY6zQbaO3U8+/RvsShl+atfYWvxITYefysXJeMEyZMqGx3PARefuyGgVp5YJISolFQshHImilo2imwyjGwijFQ8vFvdXSnzpd7oDCMgJS4VcaqEcHkGkVu/ryWcq7nlXkK/uQ1I6Te3gFYdfSlEG6PXHUc9N7LeXk8aghyQzEtjIFM2ABRTr3qa0luI2y6/0ZL1bzxFf2uZNZr73mHXzSLL63coAHIjCGUrwUKvp99pyn7vuP3ncZBtQbftfo/H4FXoLjghH1LREBwDishoUjRA1C33GjQY6OYz2f8VUfoNt19yTF95LHbXzSjq9GGQ5UTAhDLyJMtjwEb8EGh4/3bTZbLmMWhsuGOgx5QNeLDgy2DMFD0HIhwoggLBRgGhx+SQ9Otr6MsxQGMz2C/5TVn5ka5DKaFUEaH8qFyP+eB7Ul7z/X674Y6B7v+mTDdkpnztKOvmPaCCTfZbhZMTRPobL4H3Xvd3f4HO7/5f9J7+DthZlXMg69Zt5rpf/t3Lhm9S+VfDnTR72G52dUg7R/36lBXewZkWnwPr+eB3iMaYo8VHSn7iGrIjEyjN3MbI7Y+1JPIlqaZSctuIWDUOhYmfQ8BAUj0NH97FxtP72HzyHVa/+xRPfvmXePC3/0MuyD7CsYwUqTA8B1zMgzeFG8Yo7apc+RQ7FD2VTAS1XFTFED/jL5j4OYL46UrDy8ZXizSELJ7XHUd/G3Dqu0y0y4KNJhvPV3x/4BbSxp8NUKe1t87DrluvjGBZrpui65ANP9HGX4vff5kGDe/rt8H/kaLWk6Dbg/vvhcsh0MaTIoz7748/9+9Vx2Jw3X7/ub6gq0gHGhwCvb+4ToqowWvB3Um7P/1S9DwE28Djr8fAXQOH3QbS577zGHAbXtiv12zE4LWgFiwKz1c/VA3irgEKGFm3CF+3/wGHXTenet79MXCvX3UPmPjZg9chjyQPI+P2UPTQwk/R46M28wGYViF/RF8nfnryIMGuLpapj/85xu4xDt095EZnkB+dRiSRlNuU1+nVOc5viomfI9Lc2pCH6k0RQN/i4T/8Ob796/9LHjDXpK5rSV0jT9lBg3HYxoKXfEQEUEzql1I6imouIiIoilQsjLSIIg6V1+VeV3FdBngpvoH4MQzjfDDxw+rLNaUUNhQ5jNRMp2Z2cy1uddWtgeWwLa4T88wq0BHtGZHngLg8D8Vx7fv/EhMf/KFafpilPZ7NqfAxjobJxCMSiSf0gstUxlC69hZG7/0+ijN3EE9n0G1tyoPn4ZygPVySN4T3A3qy3sF3Ky2NB6SjANxihmEYxgWH9TX9eJiy4sFqC4/W2865ue2Gsh+haRBkeXZ1tbZU+OQnr2PsXRE9c/eQrU0ikc3L/OTVeDA+BUz8HJEoxY9cdGkRP8VB8ZPJ6EXqRoDRenE4qO55szCy55qKn7aIn7b2Dav4kZvFBJBhGMbFh/U163MKngerbU1bwdes31131xFqc1m212OPwpZafAr7xE8yVwjEjzXjx8GO2jFhorhktqCZ4Euzt1G9+TFqd34oomhcPu2IENpW1X4YqNvp9MbCNwx/zr5i/+RA0ymfHI588xiGYRinBh9e3Qjennt43XAPr6yzadHXKj2o2znl+9fR77Y1jly/u4NUsSpty++hdvsTlGfvatYBHW0cG/ADM46FiZ9jwgzwqUIJpalZ1G68h7F3foLx9/8psiPTcoG3Va3TM/8w6M0hZ0JvEHkv9xJW5Ub6ermF76Swz5gRor2jnGEYhnH+sD5uyx+KH+boorXny8Umlmm5ZwcA6/aB+v0waBBDPjx36kiXx7R3YezdP0Dt1vuac5KBdyMchWq8EebwfAJsLT/D5rNHWH/0DR797P/G01//FI31ZXkqCMnN4YfZHn7EzCC5ZBjV7N5Q+Ew8jHg07G4oKZeqv5eX4q7DcwZIBg7PN38i5ccI5arBMnbJGsaFQOsfKe06Or/7S3Q/o8PzZ0Bj7VI7PNM6r8JHHkgZpZkJSumqwJFdtPocFW2G+12ZduWI9eSw9hFLpTB690eY+PD/QGn6JnIjE8iPTgTfMN4UEz8nQLO+paPAdlaX8OgXf4lnn/4dNh9/Le+fYGftKcKRFEIcssqho0ckHgnpqC+WKofBpyPIJCiAQvrZpRU/MYqfIsKlKURu/AiR6z9EKFuWjzj6gcsYhnHe6ANdOKIxprqf/5WUn6L37AsnflqbXOJSip9Wp6fR+ndafc3ITuu8H8rOyM1HhSEK+t2GVG87SOTKSJVGkalNaQyfiXd/jOyIc3BOSjFOBhM/JwAbY5Z2cwePf/13WPz8V1j56hdY/fofsPbNzxGOF6TkpI44uqnSnx5OpkpxjBWiOiQ+FXeiiPGCLg3PiR9GppXjVhTxc/37iCx8H0gXg/gxA7FLDMM4PzjEmlGguy10v/hf6H75v9Bb/FKeCNdFIWzJApdT/Pih7OsNN0KX/pk+WvNxHkhdV9cmunLcchM3UZx7D6W5dzFy4x7G3/4IyVxJDqHU9xbH58Qw8XOCMBL0+sNvsfH0IVa//Q2Wv/gHLa3tTbR3ttHrduUCZhyg+KFvEJ4e3lM8S6VMBIVUBPlkRLvDcjJNxkJIRMMaMXro0Usx2FkGdoulXJTb2izCtTlNF6BBBDUSsGEY546IGlq09QFw8Wv0lr5Gf3NJHlIY6FOKih4KoOGvn+jAzJQU9O9hqgp2dW3IlINTVuodrba4m0d5IOWgGAofHiYm0o5nchpCpXz9fVTm3tHEpcVJJtMeCKBrnAgmfk4QVgAMgEihs/bwKyx98Y9Y/PyX2Lj/G2w++RLt+ibCUYbKzzhz8SHwp4d/KXAYETqdCKMoIqiY3hNDjBI99OxeiqxFZH9YGGE2ISJIir5Xy5BdsoZxMdgTNv0m04pIkYdAvU/1Xg2EwCUQP82OEz0c1bVe76pvD5OVtuVZrN0V8SfLcC+PYvnRqM2duo7eyo0tID/9Firzb6N24x7Ks7dVECXSOWk3ju4yYbwaEz+nBB2gl7/5TMvib36K5S/+DjurT6X9jstRT0ihEzR9dg4vWmhWpRUoEQ2p6GGpZKMqhOgMHRVhFB34uaH2BwoqT8331GupWV27wwzDuIBIXcO6jTkOQ9JQ+4eXIa4xwRoAADU4SURBVGWwWRTNo3Uvu7ooeBiA1gkg1/W1O1L3kPWt/rYKQ9ZxUq/122rxKS98qOFSKnN3UJm9qRnbjdPDxM8p0dhcx/bKM9RXFvH4H3+Kxc9+pk7Qra01LZAKIhRh3qLDx2twGd+lfpE7jd1dSVE6+VQYuYQTP7QAURDxZuRtONzih5cl95cVREd2nl1ddqkaxoWFAzqYFFZFDyuh4a1/fLPIv7TyaDdX000ZiZ8R+WkJ4mgv7uZR6luXpLSpDs6JfAVJKZmRaVSvv4eRtz5BrjaBdLmGdPHwSY2No2Pi55TodTrodly+r4e/+Gs8+e3fY+XrX2Hr0e9EBH0mRz6GcCwr9UUq+Mbref5UuRtNHZ9jIoBE9IzmopgsxrR7TG/IoRc/rvLRv3aZGsbFJqhvpPbRqX8/jLCuZZXDWufhWhtPN1zgwh0RPRzV5Xi+Tjq0+BHh02tvodvaQGH6bRRm3kZp1nV1jb/1EeJpaRdiMY0lZ5weJn7OgKWvPsXq/a80E/zaN/+I1W9+qUPjO025CTpdeUiKqQXoKGZT7wQdpR+QlFQspF1gIyKAOAqMiVFpHaLzHZOjDrUQMgzDOGVYrzLALGP4MB0FHZspdhY3OzqcfUtEDy09/Mx1c7G76/D1qnNu7khdH0I0mUAsmUJl4X11bvbRm0vTCxa9+YyI/KkQvDZOCQoP9unSY19HRiAqoqeNdn0D7Z11eU4KIxQ5vPhRePMFL7vsk5Yblzcm+6XZP82b0luAIvLHxI9hGMarYaoKxu/hSK6lrS4er3d0ODsj7HO0Fx86WZOyOnXTw9erjOHTb9cRjceQrk6hOHtPu7pq199BeeYGkoWSBjY8TjBc4+iY5ecM2V5ZxNJXv8XSl59i8dO/xsoXP8P2s28RijIIYkbOBi/6owkV7wRNC6x3vGNE6LFCDLVcVP2C0nFaf5wQulRxgQzDMN4Qb0lnoQMzLT5MT8E8XU833iymmGtepci033Eju1LFGsrXP0bt7o9RnbuN6vxt5Ecn3ReMM8MsP2eIi0xMk2dSg1VF4jLlMO5wBO3tNWcSFXHC90eBcoaaxk8pcCiK9jIJuxubn7GbzDAMw3DQ0lNvOWsP4/Usb3U1Ezt9e/jZG9F3zs0UPYlcCenqNIozd5xz8+33kRsZ1xyRMYbyMM4Us/ycIQxySCfoXruN1ftfaln59rdY/t3f4Ok//oUIlJAIIjq7ZYJvvJ6DTh/FD4UOrT2l9N5weI4EY2wgwzAMw0HR42P3cBg7E5RS9LBqfdPGkV1dvRadm7dQvv4RitfuoTz3NmrX38bY3Q8RicbVxyfMeGbGmWLi55zYXHyCLSnrD7/E4qf/G49/8f84J+hWS24UOsWJSAlH2QnmvkA1c0g4JJ5GJn6FUaALqb1h8AURP4lICIkY4wIFXxDMJ8gwjMuOb+5oCWf3Fq3jPnAhIzVzGDvfO79JqYL557AEv61/OZy93xFRE0E0EUdMSvXW91Cafxelmdsaw4exfIzzw8TPOdHc3kKrvoX6ylOsfP0bLH7291h/8Dk2Hn2BrWcPRPckEY6lRZQElpojiBOeUj2r8hU6Pccjzu8nw3hAjA5Na1AmoiPC/M+a+DEM47KjdaNMmaZimRnYA7HDLi5mZ+d8jdYsC7FKPFK9GDSljE2mzs1SksUa8pPXUZBSmb+H4sxNZGtTSOaLFsfnnDHxc860dupYf/wdVr77Es9+9VM8+eWfY+mzv0MknkMkUdRRYMoxxAlPLZ9wOBqMIkgDI4rgmShEMVOJqzVIb3BZ1sSPYRiXHR8olo7N36608GitrcKHmdgpfBgWhMaeY9WHXvz0upqglHF8itO3MPbuH2rhMPbixAySuYIuZ5wvJn7OmW67hZ31VdTXlrD69W+w9OXPZfor1JefYuvZQ3Q7HRFAcYSZOdlzyBuTp5Ynl2fYDX13Ds8UPfQByiRoEQprXjDGCYpflgSphmEYAYMJSSl6GA6EVh4GLWRi0laHw9jdMHcnfI4gfgaaTyYoZSyfUKiP3Pg1ZGuTIn5uojR3T0umxGjOJY3vY5w/Jn7OGY4AowDqtJvYfPoAG4++wdr9zwM/oL9Aq76tDtCR+IAT9BHEzx4MeOi+Skdo+vtQ+NAh2idIzYooYleYYRjGZYFpKBigkD49HMWlCUkb3d2cXbSOs6akVcjXrMcRPxzRxUSlkWgIkx/9c4zd+7GKH4oglkiMzs18kLVBJxcBEz8XiJ31FdRXl7D57CGe/uov8eDv/ifqK89EHHWluGHyql70xnQ353HMs4xgyhueCVIpfFgogmgRojWI1iEmSaVYItYlZhjGMOCbM/5lmA+WnVYfGxzRReEjAohTWn9Yv7kHwqPXb249Ugaaz4g8UUblgTKZy2Hmk3+J8ff/EPmxWSSyeevquoCY+LlAtBt1tfQ0N9c0FcbyFz/H2v0vsP7gS6w9+IpDD+RGDctZ41SeHnR6vBuX4ocCJzGQIDWbiCCXDOsIMU41QrQsb+LHMIxhgHUbGzRadDZ2XBJSdWhuuWlTHiLp30NRxGrtuPUb/Xpc0mU+lDpyo1MoTs+jNH0d1RvvozR7F6lCBdFEUotxsTDxc4FgF5gKk04b9dVFbC09xrNPf4aHf//nePizPxfxQwflqJtyGDzLsZ9aHHzJdxl5YqHVh91fzA/G6NB+NJiJH8MwhgEVP1KhUdw8Xm/j8UZHLT3096G1x4kdt6znOPVbr9uR+rojK+wGc4DRu9/D9If/BOP3foB0eQSpYgWReEJ/31JWXDxM/FxAKIJaO9tobm9i4+GXWPnyF1j+4hfYePIAm0tP0drecE8eUtQCpKLo6DeXCi2KHynsAotLofMzu7/ySSeGKIAYEygeCekyR4p7YRiGccqwHmO8HgYmVMtOkHldAxdKoXOzdoHJMtQ5x+/q6lH1yFTqXa1zI4im0sjVJjQpaXn+LioL76I0exuxVEYdmy144cXFxM8FREVJp42ulNbWGpqrT9FYe4b7f/9XePybn4kI+g7dVl2LWn8icZ0eFX/q+ZfJT5kbjF1hrgD5ICI0p1kRRewOs/QYhmFcJOjDuCliZ6vJQIWuq4uOzRy9RdHjE5Iey6F5AH3gZGZ2KeF4CpF4GunyGCbufoTpD36ETG0SyeIIEoWKiB5GbaaF3iw+FxUTPxecfrfD8fBavvzr/yEC6KdY/uZTNDeX0NxYViuRPMvwbpbCG+14fkAeFV6sKORn6QdUykR3naE5pXWIo8Xc05MU+c6brM8wDOOwsH5ig8VWi/UUfXsobti1RdHDKYUPU1T4RM9vWj/R0qMrVP8eVxK5qpbCxJwKn4Uf/DPEMgV5eoztxWYzLjQmfi44Km7kiYN9y8wIv/rgK6zdpwP0F1qa64to19dEGzXkpktIScrNfvynjcHKhd1c7PZiVxgjQ9Py42MDsTAgWIxCiDWMYRjGKUPrDS06HKa+E/jx1Js9dWam5YdxfHbaff3MPZi9ufjRaM3dJsIibGLpAuLZCgqT8yhOLaDEMr2AyvxbYKJq549pQ9mHARM/F5zB09NjUtROBxtP7uPhP/4NHv3yf2P9/j+i/vRLtDaXEI7nEE4U5GY//s03uD59FbzVQIhS6BDN1BiVTFTFESNGW1eYYRhnAS09PicXLTwrQSJSiiD6+nSl/vIWac+bip9ucw291iaiqSwyIwvITryFibc/kvIxKtduIMzYPbGErMg9dJolfDgw8TOEMBbQ8te/w/I3v8PKV7/AxsNPsb14H51mE+2dht6EoXDseRF0jBvSh4JnYXcXCy0+OhSeztCBBSgp8+kUrQ7RwWqsAjAM400YbJo4PN0PU1ehI4WBC73FhxGcfSZ21kHHskYPrI9dXRzNxRJLJhFNJpAqjaEwdQul2Xc1KWll9gZyIxOytKyLwsfqvKHCxM8Q0m7saEDEhpSlr36liVHX7n+GraffYPPhZ+gjgnA0pclRdznGjclLw18cTI/Bbi46QzP+D8tud5gUHyyR/kBck4kfwzDeBF//sIXywQk3G10VPRRAHL3Vps+PiB7mL6TVhxy7/hloCntdWtnr6Ld3kJu8gezorAifGyjPvoXazfeQypeQKpQQT2dl6WBdVucNFSZ+hpzFr34rAuhTLH/1a6x++TMs/vav5Kbtqe8PwglZQm7IgZvyTUUJrUHqhiRXDTPF+yzxI7mYxgbikHg+dfHBi6vi2kwIGYZxGAYFDwsFDUdzPdvsYFHKigigrYYTP4T1zJv6HD7fBHLFMum10O81ZAMaqN75IUoLH6Ay/w6q87cxdvtdt6gx1Jj4GXI2Fx9ja+kJtpgX7OFnWP3219hefIStxSfYWVuSM0xzLEeADUzfAF4uFD68atgNpk7R7AoTEcQI0SkRROofpN1gYc0kT2uQYRjG6+DDFbuw6NND3x7G66ETM6097N5izB6N6SOF8LmKVuk3wUdq3o3YLNuQyBWQrY4hI6U4exf5yZvIjc3ovMLYdPBNY5gx8TPkMCkq4wG1d7Y1D9iWCJ+nv/kbPP7lX2Lxdz+TM+yjQfvpmwXdGrxcaNFRC4++5jSkaTHK2ahmjadzNAtFkmEYxuugQzO7tujLw6Hrau3Z7oL2INY8rH7cw9fz9dCb4Hx7vI+PG1lbunYb4+/+GOPv/BjZ2rhGbE5k8jriKxqnRd0Ydkz8XBI0IOL2Jhoba1j64ud49pv/jeXPf46GzNvZ2BCR1JR7uq03uEuRwdQYb2YF8vASYoXEwjQZDIpIEeQjRXNEGH2EXMJU5zdkw+MN42pDKw99ddzQdReQkBYdWni8M/PqdgfrMtWHLClvauXxuGjNInZ8tGapD8PROFL5vIicHEqzdzDy1vcwKiWRK+o8Ez2XCxM/l4SePLF0Wy10mg3Ulx9i++l32HzyDZa/+QLPvvg16qtP0amvorOzilAkhXAsLTf8yQTj4iXEi4hXEkUO/X5o7aHo4UiwrKbKiKgw8iPEuJxhGFcXCh6NyyOF3Vns4qLVh91avmur0enp1FmW39zK46GFp9fZRr/TQCSZRSxVQjxfxej1u6hcu478xBwyozPIjl7T+D3ReNxSVVwyTPxcQvodRoRuaWqMb3/2U3zxV/8T6/c/RWP1PpprDxCOZxFOlORmPvknGTonygOcCiHqGz6x0SG6nIlotGjfFUZhZBjG1YWWHnZtaTqKbXZvdbC8JaJE6g4WwijNp+Ez2O+1g/g9G4jnRpAoTovQWcD1H/0zXPvwR8hUxiGKByEpxuXExM8lRPutex25uRtYvf8VFr/+FOuPvsLmoy+w8fhLEUXraGysqKVIrT++C+wEHKJ9bCCagvRpTQqFjosU7eIE8TVHifF1WqZ++Lw5RhvG5YS+PM6i44IRMmaPRmem5YcRmXXq3rP+8I0S64837uoaaOL6HMUlD4YhqW+S+TLi2aJad/LjtPYsoDZ/C6WpecQzeVlxRJYza89lxcTPJURPKUcv9Hpo17c0O/z6k++w/PVvsfLNp9h48CnWvv4FmlvsAku6wqCIJxCa/aDLiZWXq8RctxhTYtAvqJJliSIZdd1h1hVmGJcTWnk2GKNHykZg7dlo9FzyUbrfiDhyFp8X64837uoa+M1ee1u7uyLxOIqz7yI/dRvl2TuozN7WNBX07YmlsvI8KKJH6y2zUF9WTPxcETgcnlagFeYF++aXWPnib1FffoxOq6vluUctveF545+MGPEVG680CiAWPyqsnImqJYgxg+grFAksQNRB5hhtGMOHd2SmtcclHgVa8oeCh9nXNwPxw3g9KnjkO7zLtW44ofvdNWusdNyvM7s6I94z52iEITpyBVRufIzitXdQmrmhwqcwbkPYrxImfq4ItP7srC1rZGhGgt54+Dk2n3yH9cf3sfHoO7QbfCJqSWUhQojdYCc8GoxXGS80Vm3UVHSI1q4wKXxN4cOYQOlEJOgac11kcQ4PMwxjaKCVh91XjNOjXVsieOryml1bTE+hcXzkvU9HMVgvnJhDM39Yh6635UfDInqSOsgjPz6J/NiUlGnkNXLzNaRKNaQLFSTzxeDbxlXAxM8VpLG5riJo9bvP8ejnP8VDKTurT9DZWZf6gtmL2RWWeOMusFfBp0MfKVqf+KRk4iG1BNEiRKdovqYAMgxjeKDoYdJRWndWtpwjM4eti9bR+536hpbd07Tqcih7X+qyXqeho7SiyTximTIm3vshJt/7EarX72l6ikS2IJ9bFvariImfK0i7UUervo368lMVQKvffYbNJ99ie/kxdtaeob29rk7RvDScL9CA098JPpmxIuTVx59kPUjrDx2gOSSeoiebdKPC/NB5ThMx5xztt+KknhQNwzgcg00GrTx+WDotOX54uk9BwbLddMPXB+93d8+fzL2r26PdW32ZsAu/o6/jmYIIngKShaqO3sqNzKDILq6Zm8iNTiGWyiCWTEn9Zg9YVxETP1eQXqeDbreNTmNHRU5Tysq3n4kI+gJrDz7H5iOWz9Btd9RUzCSpu5xkhcWpFP+LrAyZPDUi0xjFDvvmo25kWEYKU2jQUZrCiJvB75n4MYyzhfeu3r3yhyO06LjM+DyM08PghLT8UOxQGDm/H2fpDb6inOS9q9vTE8HDTOxdjuZqiqDpIzd+A1kpmpB0+jqqC3cRzxbU2kPhQ6dmWoWsDrmamPgxlOVvPtOy8s1vsfr1z7H21c/R3N6SyoqBEKP6RMVoqEpIxMeuZBFOsBLj0yG7w/iTfCCjtSeXZMToiAifMEppeS0iiEKJZnP5WKe0HPE73BKrzAzjZPBCh62E3pu8R+X+dAlHoZYd7eLSlBQuLQX9eZzgcRZd3scnZeXRDQnQLaPFR7eR8/uyHikRqbUScRTn3tMRXaXZu6jM3sTozXvui4YhmPgxlO3lZ9hekbL0GJtPvsLm46+w8eS+vH+G+soyuq0tdJobUr+I7Ikw2ulAgMQTqti0omV9FrxnxcmRX94CxGjRHBJPx2jfFUaHaY0jJPNpNeIIMYsXZBgnA0dqMhIzR2zRosPCuDzazSUzaeFxzs0uhg/nc3l/H/NO1IeS0xA/vRZ63ZZsZAeRREat1KliBdnamI7cyo7NSZmX95PIlEeQG5kIvmkYJn6MgF6Xif047L2pARAb66t4+uk/4Mlv/haLn/0C7a1naG08lLonJJVMDpF4LvimcILi5yAGBRHXRHHDrq90IqQJVItpl0iVGeYTIoQsXpBhnAyMw0NRQ5HD+DxrUmjp0RFcInoodGjh4Q3qRI773n5OQ/xozJ72poqgeH4csewoyrNvYezux5i49z0k8yUNZBhLMZVPWLu4DMNj4sd4jl63g/ZOHa2dbazd/xIr3/xOpp9jZ/Uhthe/RWtrQz7fkc8bwTcEqdgYQ0O7w06qkgvg5cnKdVAA0bBDoUOLjzpHB07SfE+rED+jQGIiVQZUdNGjgy8L1i1mGI7B6p+jsein4xONdrouPg+Hp7Mri/m36NNDZ2Zv5eF3CO8o3la8N0/j/tJEpLKtPiEp/XuiySTi6QzimRzSNQ5Zn0BhckEE0C1U5u4glkyr8InELEWF8SImfoznYFRoZoinU3RzcxU7G6torC1h4+l3WH/4FTYef42NB19i4+EXsjRrOk5E9HBUWCR+KuLHTXXikFW47i031SICxwsiWoUogjSOkLymMOJnu5tr4scwlMH7i8KHAocWHToysyuLr5syZXcXR3NxGRY+kKgT87778rTuL/U51NIR3SMPXr0msqOzyE/fEsFzU0VPbnQa6dIIkoUSUoWKc2iOxhA+xZAdxvBi4sd4Ld12G2uPv8PKd19i5ctfYvHTv8HS7/7GdZWxyDI6HD7E4k0sexXgaYqNwXhBTvy4LjE3QoyO0mGNGUQh5B0vXQUdFPczJoiMS8+u0NHXe1PeQ5xS4GgU5saelYcjuPzoreDres+4e+nk75sXmyPdSrehOuVQ9qY0XE2UFz5A7c6PUL31PZRnFlCYmEE8ldZvGcbrCC0vL/fL5XLw1jBehCKnsbmG+tqypsTYfvYd6ov3sbn4BBtPH2BndRHNjWU0N5ekYnIO0fLIJRWj1JCn0BU2CCtL1ousGrWrS0pcNJjmEJMSj+x1hTFaNJ2k9xynmVTV0mgYVwOKHG+5oZhRUUPnZXnvHZh3nZmD5Vh8N9gg/sHhVMQPAxRqNxcfrhh1vo14top4rqIxe/K1GrLSZtHykxlbQGZkFuliWSM0WxeXcVgiuVzuTz/55BNELMql8TKkgovEYkiks1LJSOUzNo3ytVuIpvIijELotBkzaB2ttSfy3oWTd4W+QK6cJvx5V0IqhOir4Eah9PXJlQkVN3aC8PpSubMip1Bit5kfMn9iQ3EN44JC/cL7YkfuCyYYpePyynYXy1sdLG12sCyvvdVHR22J6OF3KHt4d+zdZ+49OY17myE1XBdXC/1OHUxEmizUkK7NoDB1C5Nvf4KZD34flfl7yI3PanoKWnwsZo9xFCI3btz401arhbt37wazDON5WKGw3zwSjSEaT0hFk0Eik5dKkWLDCaNonCWOmAiiUJTD4EVZyBJ9EUM+PpDrcAo4oUqK2+aLh0+PUm9rrBFO5YFWg62xItduMk5lHp9qGY2WgohFn3LlQy7vuwIIf9kqVWMY2Esk6iw7FPwUM3wIYFJRzaguAoeBCTXLuszjQwJ9fJjf2Mfn4aXP4q/7wftssLwR/gYTNB0FHZmlvtCRWTHWJfKwVa4hPzqJ4rW7KF17S8odVOZuozS1gES+LA9gWa2TmKLijbfHuFJEPvzwwz998OAB/uAP/gAxacQM47VoHSN/QmEdUcEhpelSFenKBOKZklSeIXlaE9HTbaHX2pQKTSq1kFROp5Am46Vw8zjhVAp7tfie1a3U8yp2tEEIGgG+duKHYmlA+MiXaCWyitUYBngNU/hQ8PDa5tD0NVp4WLactYfzOGLLd3HxeqfgIf5+0aLvz+a6ZwLSfqchdcYOIvEUYuki0tVJzcE1+tb3ZPoeynMifqYXkK2MSj3Dhyz6GJroMY6Hip+ePAZT+Ny6dSuYbRgvYbdmFOGTSuuTWaY6hkxtErnxeUSSOXSaLY0XxBEZFD8hURI6GizkxLVIC/1Lnqu2TqgSY2XIol1aQeF7rpFPthymS7GzvuOED6PTclRLO2gE2G2mlh/3a7qNnM9CUaTz/XQfVhEbJ81+J2C+4yy9JuV6pnXTpZFwXVq8lmnhWa27riwmFl3a4uuOc2iW655Z1tsifPw1fdD9cqLX8sA+uFfur95dXA99fNCWlz0k2MVVmURx+jYm3vkRpj78Q1Tm76J87YZ2uTvhw5yDJnyM46Pihy/u37+Pn/zkJ2b9MY6Mq5yl0oxEtNAaRN8gWoNSxRFEUwV5QEu40WH6hLcjtXVL6zyND+Q544qMa1OLEF9I4W606S8kT8R1FlqGpLjcRew+6Lrugc6eGHKNhPstYpWxcVrwLqPYobWGvjvssqJ495adpS3nw+Mzqrvkor47113fRK/X3XIO1yvrAA5XZx0QjSISS4ngqSA3eg3l+bdRvf4+qjfeRXWelp55ecCSOiSZQjTmurcM4yTYFT+dTgeFQgHz8/P6gWEcFj69haRS4kiLeDqLTGkE2doEUhpzY0RHf3G4fHtrQ83atAZRBFH46MgwzxlWxIMNAKH/EhsJ+kl4R+nNZleFDy1EfM8najY8zGvEvSZMwspuMb7lHBM/xmnAK46XHbuoaLmkhYfXJoUOrTu07Dzb6DwvfORapkja3427W/T92V+v2h3erksd0NQurkgyL/XFFEqzb2H0rU9QE+EzcvNdlK/dRKYyikSGEeUpfMyh2Tg5dsWP53vf+17wyjAOByskOkSzcoomkkhk84hLiSbSiKZyu+bpcDgsT3AJdY5m8DF2hdFhWh2ifdFqXo3hjlOo7Lgt+wutV+rvI5vAUS7qOyGFjQcbG1qEOM87UVMAcXl2lbH7gMu1O24Zfl8dR+UzmQQGfgfXZRj7YTerXle8BoNryll4XITlhghvWiO9n5qzSLrRWWqZlPcu8rL7nr9W5afcHSWX3WB3li+ngldawmBEZkXWGY1FEUu7PFyZ2gxyY7MoztxCee4OqgtvIz8+K/Om1HIcS6ZcsELr4jJOmNC/+3f/bvdK5XD3//bf/htSqVQwxzCOByNEM0UGy87KM9RXn2k8oJ3VJ1KeYvPpfSmPsPXsEXrdhjo7spoORZKu+IrujCo8ih/W2XvVtoOr5xZoROkgdpAWea/pMyLus935UhhTKMa4QnzP2ELBfMYUsgrcOAiKlcFCAePi7zhHfF8oznVKgRTM43JesB8Erzi9js/q2hsQP3pvd5sqfkKRFELRpFpzsiMTInKmkS6PI1Ua18jMKXaVl0cQS2U0bYXF7DFOk+fED/k3/+bf4OOPPw7eGcbJwbQZW4uPsfnsMZ59+vd48qv/JeX/Q7e1gV5zVZVHOJ6XkpOKOujbv2BigSKJT9N8qvZwCxlIUXOLxUPIJiIu8aq85lTTbEhJyDJ8+jaM/eiwdC3OYdkXWnp8fCouw2vPw95WH7X8QjEgfvTeZjd3v41Ioqj3d+3GBxi79wnG3v4Eudo4slJo4TGMs+QF8fNHf/RH+Ff/6l8F7wzj5PCRolk2Hn2L9YdfYv3BF2htraC5uYjm1gZa23U0pfTaDXTbO85kzpFiOlqMsYOEc6zsvYVosBHi5jgrkLP27EaT5jxagYL5XIbWH/UTCixGalHSIvODqUacDnbRLEXDhxsA4K4RNwrLdWVxyu7SLi01u/OCzwMLzqA1x3d7+W4slgFdodcdr5PzvEaeSzja74CxenifhmPsrkoikUkjLiWRzSGRqyGeLSM/PofC1ILm42JU5mSuYFYe48x5Qfx89NFH+Lf/9t8G7wzj5GAF2W21RNS00KpvitCh2NlAfeUZtpYeYfPpAxFDX2FNSntrGe2dFalPmwhF01KRpkUABXGCzrWyd7fLczeNwKdvNkR8EvdO0LqVnOc/lxe7AimwFA0KJabe4HsWCiDupomf4cMLZAod74Pjp+pH1nZ+PJz6eRRK9BHjdcXvcqp+QKIp1HeMn/N3dQ0Of2Wcq/jxCUcpfLpNKQ2EIzFEU2VEk0UROXMoTs0jNz6DbHVCu7US2aIOV2eh6InE4+rTYxhnyQvi5+bNm/iTP/mT4J1hnD5by8+w+ewR1h9+jZWvfo3lL3+NxvojNNcfo9PYQj/Ep8K4axTUMVpaBFb93hIkry+iSNhrtIIZghc4FD4pEUDMMeYFkJvP3GNhFUncpUELEF9ynhbdZ//aodOB98TE09HxApfoK153nOxOda7Cc7s3n3PcOedrWnXUWZlipx0In44bqeW7uRhWgcLIw9OlIprn8SKcu4F9fe6V7jTvQ0E3sy/b25Xt7uoIrkRhHPFsDZX5t1FeuIvi9HXkRiaQFfFDB2bDOG9eED+VSgX/+T//5+CdYZw+rfo2mtubaG6uqlM0LUE7a0+xvfRQHaXry4vYXllCa3sN3cY6uq26doMhHFdrEM3sHFF20fAWgMEbbLBrS52gpcj/XcvQXlfYXiPovuOWpUDi9/S7wTxtMPf9tm83TfwcnUHrHgUMu6jYVaUj+2ilYQ+PfEZLjB/pt9utJVP5vzvlfB39J6+9GOZv+Pn625w5AE8Zz9qFEz8idvzoLY3X1W0jHEsglikjli4gXaoEpabRmdOlUQ134UJelHXIOlPjMH2FYZw3L4gfjvj67//9v1uiU+PM6EtrohWrTF0gxK4KoPUn97Hx+Du1BC199WvUl+6jtfEInfoKQtEUQpG0lIQKIA6zv2gMWgg8vkHTv0Ejx8XY/vnluQznewGkXWWBdSiT2HOeTgTWIi5D4cORZ8xiz2X5fW1EL0IDOmSoaNWpEyqD3VW01lCw+C4pvmcwTFp41C9HpuzuokDSc8pfkv88DzxPPB387WC2ctB1Qi6c+NEuro7co0w4uiMaaEdFT7Iyi1R5GuXZmyhdu4nC+DUp08hWx+X+jOiDiQ5Vp+iRfbJr0rgIvCB+8vk8/uzP/ix4ZxjnQ2NzHfXVJWyLCNp49I2IoG+ws/IYjbVHaG0uo91sodVoodPYQbclFTGdo2n/YFcYLUEcLcap+zmtdC8q6sshd+GgAYBby8bSCxvvUM1uMYoe/15eyjLPCyBafjiPu8z5Lmu9+03O8w0x5+/O211f8CaALzlrEL8+lldxnEbuZUJgP/547feD4Xy+d58Hlrdg3iC0wohWkc+CZWSe+tfIGydE3WcUOt5K452QKW7UACLL+K4steaw+N+QKX/Tw2PFw6HH96LCnQ5wDsx8KAm6maVEEilEk1kpGUTjUcSkxHNlpCrTSJUmkBud0sKh7BrdvVAOfs0wLh4viJ/p6Wn8x//4H4N3hnE+MDcYhU27UUdza10doxsbKxojaGd9EVuLT7D57Am2Fx+gKYKosf5YGpeotC7ByLDdEWJBY3OBGx1vadjfQnOTudUqVgKRQ7FDkbP7Gf8Fu6aCZEAMcardYCqS/G+47/vRZ3TO5vflpcYxGuwyI/53BmY54cXf4of70Dnyh9Pjih8ehoF2+EAoMDTmjSoVN48TL17YlTTYDeWFkMeLmd3PZVkVN5wnxS/qv+ssOe43+dngdg7+Pl8feD7f4JicGdyBgF63LXrHFU1H0esgWRpDunoN2dFZZJjTr0KBI6U0qhnW4+mcFub8Y4obBjw1jIvKC+Lnvffew7//9/8+eGcYF4dWfQv1tWW1CK18+zlWv/sca9/+BvVnn2P76eeyRAx9CiAmUNU4QXytXxV4mWvzo+/Ic83QRW6UDuAgZ+pBVLRQ+MgLWoi0e0xeU+RQvCSDbjTXteZEEpdjGWygOZ/fGZznR6ZRiO2x9znXfdzDyd1hGzzQDgsv7iRFiLfE+E+d+HAChdYab43R4eUybxB+r9Hpuc/lM4ogOiXTf4ffOyz+OPMYXngGDurze8h3fg6FLiOeMyqzKyFw2kZm9Dry03dRmn0PxalZFCZnnYUnX9K0NoYxTLwgfpjc9F//638dvDOMi4MOkd/ZRnunjh0RQPW1JTRWn6C18VTKMzQYI6i+I/NXUF9hNOlFzSHU67gIs84qREHEUPnsGhtovYeh8RqA1oWXCR/CveEueWFDa48XJZynVh+Z7206/KtCSBZycxz+O4NzB3/Pf+5+weHeD845PNoM79svyhvOG5zPfffWHY9fjp9p4ecyw89z+8FpSL/rnJT3PnfdW3wtbw6J+z33mxeegf1S65R2Z7lkw7TucEcYXT0cSSBVqiFVHlEH5mQmjWQ6hURxDMnSBFKVSSTzZaQKJY3GTAtPNJ4IftkwhoMXxA+FDwWQYVw01CFanS5l2mlrxOhek4lS6+hL2Vh8ho2lZ1j+7gusfv1rrHz9G3WO7rU2tILX8PpMnRGIoOdGiA1D4zUAG6/DwEZZ94wNtM5xU91dKfwZFjb+u/P3sX+WW2ZP/NDy8eJSnBNs48s2dfcre989aFEv9Nj15HHLOeEyiH/r5+tE/nC6t70ulxvnDS7H1+59MPMIDJ/4cQMLtGurwxQUO7ITYUQYYT2WRWnuLspabiFfHdESTecQSWQQTqQ1ls9uzi25AGwElzFsvCB+/ut//a+a3d0whgFW4OjKU2u3g62VJWytLmPt4TdYf/A51u9/ptGjGSyx06zLYvKk3+nJVISTvO91WsGvCGy81CJEQcTXz1tAghb/0uH9WY7e3OtR0sNCQXFg4z/Q2L6S1xzbQX+aN4Fr8eLn0hIc892/fO8dl3Uu912Ea5TBBZMaYJC+XhwsyfexdAnRZB6FqZsoTN9EaXoe2VIV2XJFh7VDRE/oAo6sNIyj8pz4mZubw3/4D/8heGcYFx8Xd4Stdw+tnboWps9obqygsb6M5tYqmpvLaGysue6w1cBpevlbtDYWg18R9AmWSVXjcle4LrFh7hY7LK77wzWLR0WPiPzR5vQUxc9+K81xcdv5km29LAQHyZ1XETwUPrTudBv6GiHGxYogni0hVZlycXgKRS3JfAmJXFkjMCfyFXkvpVBCPJlGPMWwEhxBGQxZN4wh5znxw5xezO1lGJeFxtaG+gdtryxi7eHXahXafPgZ1r/7OerPvpIGgk/FvAWkYhfxg3CCz8WulXTNu2O3wdybt/vqMjemxsXCixv96/HvZDr4Aa9tzug1pYj4QU/9eZhZPV2eROHa28hNXEd+fEbj8mQqY0gXK+rLYxiXnV3xk0wm8Z/+039CLpfTDwzjMtBu7KiTdGt7U0eJ7awto7H2BDvL99Fcf6qWIg6nb9V30Ky7KVNqdHa20GvtuKdnaTTcEy+dpV1EabUOuVWY+DHOjkHx44V7kFCUI7Io4nl9hmNJF5MnlUUslXIJRtMZKcypVUAiX0WqPIFksSZih87LjMCcRyydVSuPYVx2dsXPH//xH+Nf/It/oTMN47LAiNG9bge9TgfddtMlVhVR022KwGluiyBa1u4w5hfbePJA4wc1Vh9LccEU+/2W/Ig0KkylQWdpdZh2vkG73Scmfoyzwosfmaow78n1TctOl07LDbkWmfIlhmi6iFRpXEdnZWpjyI9NIcvgg+URZKTERBQxB1cknnDJRaUwSro6MZtPj3EFUPFDa89/+S//BbFYLJhtGJcY+j5IoSDa1rhByy6S9OPvNMFqY+UhdkT80DKkQonD5Xsh+UpEpxoArtNyT91ExI9zj5aiQmhQFF0Nx2njDRm06PCvvuAfvnZT5/nkr6iwCpWQjrjiZRUkFY1R0KQRz1VE+EwiVZ5EtjahXVuZ6hgypaoIoJoNTTeuPCp+bHi7caXwjUmvh3aTUaQbaO8wueoG2vVtdHY2pGyiubWCxsaqOlA3NjekbGJHYwuJQFp7rN1iCgUNu8OCGELaRea7xoKyi4kf4yC8+JHprqOyinTvtBwEHaT0YZiGaBKp4qgInFGZVhHPZJDIZDXgYDJHh+Uyoqk8osmcdmUlsnm19sSSKS1m3TGuOqE/+7M/6//Jn/yJ1MlWKRuGwuHz0uAw0/zm0lNsSaFFaOPpQx1Cv/nw19h88CsVSLtohnnX5SCP5K6BCvyEhjmekHFG7IofJ3Rc4XXoMqiL0hYd1HKCOpJAJJ5Ffuq2K5PXka2OIVsbl+kIclURRCKCuKwrds0Zxn5CGxsb2u1lGEaAPnH30Wk20NhaV6vPzsaaWoF0mPzKAzRWH6r46dCHqN3SRKudZlOKTOU9Ywn1Wg302k0XT0ie4Pt0nEZgCfKFT/LaOHH+QCNlDdbwEwgaol1WatXhNeBe71p15LpwIwwpbGKIxJKipZMyldfxBKIyjSakxOMypeWGjsw59enRUh5BIltAIldEMpdHMpt3TsvB9WXXkmG8SKi/67hgGIait4Q0Sd2uChsKmY46S1Pc0Fl6W4vrKttEa5s5x5awveriCTVZtjfQ2lxSp2l2o+mTO7st1BrEhKtR0TvsIqPoCRyozUJ0uRgUPxS/PXZlUfD4rixadDoyrx1cD3FEEln114nnqjr6KpEvqrBJFV06iWSuIMWNzIokmDw0rdnWvdOyCiZOo+zWCq4hu5YM4wVM/BjGMeEweg2ouLmOraUnWuqri+oX1KSv0NoTNNefoL21Im3cjpSmSCo+jUdkGpVGj5YAedvjVF6oVYAMNFb60r+X6W5D5qb+nWKN3OkxKGSC6e6r3c84lbK3gODfBOdOijooh+m2zPPdkUq4i1A0gXA0hVi6oDm0EoUxlz+rWEWyWNERWiw6LF2EUCJj1nrDeBNM/BjGMWFuMXaN0SLEjPMstAYxblBX5ncam65rTKatupQdDq9vodNqu/hD2/IdWo5EHLW2aCVaCn55QMRoe0kLkTzJq4XIdY84i1HQheYx8XN6DIofee2dktWCo1Nn0XHZ0P2CUkLuTTRV0NQRsQyjKLsuqkQ6g2jcdWcxQWg8nZNpDpFkTru12MUVTaalpBCXz7lMTOdJsdFahvFGmPgxjGOit442hM6Xg90a7n0wDZxWu60G6mscNbau3WTNrU15v4z68lNsLz9BffFbbD/7AvWnX7h2M7gjVctQ/ITj2iWiztTaPWbO1GcOz3WAJgSl0HnOKVlED7s2pbhrIFiY508mieIEkuVrSFVnkBuZRm50CpnKKBLZnFpx6KuTLpZV8PC8IuKErhO7zi9M00roa863c20Yb4KJH8M4LQLLQLfTEdGzpZGm24woLYU+QTqM3nePrTG+0ANdVp2lu65BdUEa6X/EwqSs8rl8xnxmfXaXcdptyGdsdGV9L6DqSab7LUTe0ZqfswvmNY3pMDS2r6nK5GgFy1CcuOnz33HnS+e/gByhSBzhqA9yKccjzISgLjBgJBpBOBJyhZ8zYKAImEg0hnAspj488ZyInfwoUqUa0lKYS0uHnqdc9GUOVY/GXG45f14MwzgdTPwYxmnhG1oRKDoCTIRNryPCJog27bvMGGm622CX2UYgjkQksduMn8tyLabd4Pz6Nppb69q9xm61bltET0uW21mVZTdkPUxv8Dw6iogO1rQa7cKGlVaEwLqgjfmAODqIyyB+RNg4C53vspLpgNDR40crjs5/Hh6fSKKAaKqoQQSZ4ZxZ0OOMoZMrBN1WLgFoVOZHE65Q2LAw3g6/552UKXo0q7qKp5iKJDorUzDp+XErdVPDME4cEz+GcUHoSaPc2trUrjEKIAoeji7zTtWcemfq9o4IoMa25iFrby+iU192DtXauLORl9taSp8WixBjD8V1vptHvHWBUyd83OfBd7nUbtUg02Foh3VzB4VDYN1SgefFXWDZofjR11w0WE6FDwVkV967riUnDmn1iYnwKSOWHREhw+CBFDQZJPIldUp2w8zdyCwKIPXPkWXYrRXPiPARcWMYxsXBxI9hXBDUQkRLUIsWIRc/iJYiRqHuNKQwGnXgUK3xg/TzJrrNTVlexBCtQGpJknlqYWL3GXM/ubZeu9M63gIVdKnJMrvzOYxffrfP9B3qwxJYQdQS4oTCxYZCxzmHO2uWTCNRMG4Oh4OHmb9KLSzMY8VuKinaZSXvaXURkaNuNZHwriWGjsUaa0dKOJ6V38nJskn5HoeVy3z5XUZQVudkvqZFxw83l0IrEL/vLDqGYVwUTPwYxgWBt+JzjtMyHZynjrYDU12Gn4lYYfJVHUFW30ZjmyPMRChRNFEIaZyilhNQIpxURPE1hdLOFto6So0WpDWZboJpO3pdiiBGFW7qb/fxYlfQxYNWmiDSdkSKDh9n11MOsWxRpsxwLkXECrucKFTciCoRLYyXwyCCFC0cfRV8Rj+cRCaDeDINUTPy27SiOZ8fZxWSIsLGvZYp3/OzQefkYJ5hGBcHEz+GMczw9tUuHEakbqIl4oYCSKNN04IUBGnklD5EHSZqVetQIH4ohrRsiwja0Gmv3ZCfFMGj4odZ7RmgMfCPkfX1KMC6UnS9DleL8HN9q6gwU+E2MPM1eOFA0bCL6gYKCX3nkDdhWS7M5cK0+PA7EXlNgRKIHxErYRFA7J5yea7ccHF2Wak1h345aplx/jm05HirDS09nMcuLO3GktdchysmZAxj2DHxYxjDzO7t6yJSc5SYdmPROqRdXhQfzlLEz/vyufuM3V6cR5HjHbHZTUYrknyu3V38ruv+koVk6n6r3WKsIhFObZkf4C1UDNjo0W0JfvewMOEmu6AiIlx22RVEe6IjEokgxm4pKey6AhN1coi4WmVonXFChYKIXV3sptIRWHwtU1pp2BXlR2Xtvud3ZMoRW3vdYlxGfluh0DLxYxjDjokfwzBejogdJ4IofqSIoGk2dtDcaWhXmkfFFUWTTD30K6JIoqXpsKivTNxZYDx7gmTPGkTxk0gkEJdCXx5RQWrpcZYZs84YhvFqTPwYhvFyaM3xVh217Lhh+x12pXVEDHmCZQarEwom71x9WJy1hdaZPQdhtfioFWdP0FAIRWNRRKPOqVm+oNYbJ3q4vIkfwzBejokfwzBeTlA9iLTZe63dX88LHfJCVSLv9wui13GQ0FHk/XNz5H2Y8wJ/H/nz/Hf2f98wDGMAEz+GYRiGYVwp9jrRDcMwDMMwrgAmfgzDMAzDuFKY+DEMwzAM40ph4scwDMMwjCuFiR/DMAzDMK4UJn4MwzAMw7hSmPgxDMMwDONKYeLHMAzDMIwrhYkfwzAMwzCuEMD/D0eK9pcfOzAvAAAAAElFTkSuQmCC;" vertex="1" parent="1">
          <mxGeometry x="658.24" y="170.03" width="57.75" height="56.45" as="geometry" />
        </mxCell>
        <mxCell id="-pFcmsq36QsAqHcXGoiX-20" value="GitLab Repo" style="text;html=1;align=center;verticalAlign=middle;whiteSpace=wrap;rounded=0;" vertex="1" parent="1">
          <mxGeometry x="180" y="244" width="70" height="30" as="geometry" />
        </mxCell>
        <mxCell id="-pFcmsq36QsAqHcXGoiX-21" value="AWS ECR" style="text;html=1;align=center;verticalAlign=middle;whiteSpace=wrap;rounded=0;" vertex="1" parent="1">
          <mxGeometry x="582.24" y="240" width="60" height="30" as="geometry" />
        </mxCell>
        <mxCell id="-pFcmsq36QsAqHcXGoiX-23" value="" style="shape=image;verticalLabelPosition=bottom;labelBackgroundColor=default;verticalAlign=top;aspect=fixed;imageAspect=0;image=data:image/png,iVBORw0KGgoAAAANSUhEUgAAAowAAAGRCAYAAADvk+IOAAAAAXNSR0IArs4c6QAAAARnQU1BAACxjwv8YQUAAAAJcEhZcwAAEnQAABJ0Ad5mH3gAAHD7SURBVHhe7d0HnFxXeT7+59w7s7vqvcuSbVmWZcm922BssA386T0FkhDajyRACBACIYUkEELA9BYg1OBgHDoYcC+425IsS1azZPWu1UpbZ+6953/eM0cg2yq7O+eWmXm+H1Z7z5k10szO3PveU95XaQNEREREREcRuO9EREREREfEEUaiViMfeeW+/450OOqwYyIiIoMBI1GjSiLoqN98r5ivKhCbL+2+mz5t+pT5GXNgYsOk9l1+Xo6j3tr3Q4ISELabAxMsBiFUaYQ5DG2/Ml9ame9h2bTNV9hmjtuhg7basXxnkElE1NQYMBIVmQSFlQNA/z7ogU7o/k5gYB/QZ9rmWA/sB6o9JhDsgTJBYFLpMW0TDMbmy/Qj7oeOTdAoAeVQqMAGhSiZL/vdBJBBO1TbaKBsvsx3VR4L1T7WHI8x3ycAHROhRpivjknma6JpT6oFmERE1PAYMBIVhoaWQPDgJugDTyLZvw44sAG6d8/vAkItQaD70nHF/Xf5Uia4tAGlBJOlUSaQHGWCSvNdAskRU4Dxp0CNPdF+BeYLpQ73XxIRUaNgwEiUl3gAet/jiHc9AuxdgWTvShMwSnDYDyUjgjKtLEHh4VPHjUamtcN2860NOihDlUYimLgAatq5CKZdgGDSYjtCSURExcaAkShtMq0s6wl1bEcP462/hd56J5KdD0MPdJkfaN2PoASSasKpCKZfjGD25VBTzq6NTsqaSiVfXBtJRFQEDBiJvNPQlYO1dYc926F3PYLEfi0x7R3uZ+iZFFTHeKhJi6Gmnotg6jkIRs8ERkyprZE0wSUREeWDASORD+ZjpHu2Qu9bhWTfauiuJ8zXOujONdADB9wP0ZAoE0COmoVg0kKoCafZ75iwAGrsyVCyGYeIiDLDgJGoDrp3J/T2exFvvQt6vwkSe7YDfbtr6WvIHxVCjZhkAsgZwNi5CGdeimDms03wONc8xvoDRERpY8BINFQ6QbLjAcRrf4Bk+33QfXuBqAdIYvcDlB5l/qegyiOhS6MQTjkD6qQXITzheSagnOx+hoiIfGPASHQ8kvA6HgAObkay4ReI1lwPfWCje5AKwQSQpZNeALXg9QgnLwbCDpt0nIiI/GDASHQ01W7o7m1I9ixHsu6HiLffX6uQQsVlgsRgylkI5r4QwcyLEciUtWyY4bQ1EVFdGDASHU5GE3t3INnxoF2bmOy4H0nnWttPjUWmqIMZJmicfpH5fhHUxNMZOBIRDRMDRiJHdjTHT/zYBol2A0vvbumtPUiNSfI4lkfbCjPBlDMRnPxiG0DaKWsiIho0BozU8vTelYhWfgvJxl/X6jZzh3NzCkpQbWOhpp6N0uI32V3WXOdIRDQ4DBip9chbPhmAPrgZ0bLPI9nwSxMo9rgHqVUEkxejdPY7Ecx5bm3EkdPVRERHxYCRWoddn7irVr957Q21EcUqN7G0NBMkSlWZ0ul/imD6hVBSWUbqXxMR0VMwYKSWoPv2INl0C5Inb7RJthH1uUeIzImwPBJq8pkITrgS4ZznQk2QDTKsY01EdAgDRmpucT/i9T9HvO7H0Hsehe7fW5uSJjoCVRphgsX5COY8D+GCP4QaPds9QkTU2hgwUnPSEZIttyNe8jnE+1bZnIoMFGnQSh1QY09EadGfIZz/WtsmImplDBipuSQR9IENiB74GJLNt0DHFfcA0fAE085H6aJ/gJp8BhQDRyJqUQwYqSnopAp0b0Gy/heorvg60LPTPULkQVBGeMrLES58AwJJAF4e6R4gImoNDBipsZm3r+7ehHjDjUg2/BzJzkfcA0SeKYVgzBwEJ74A4ckvsburiYhaBQNGalw6QrzuZ0jWXIdk9zLoykH3AFGKwjYE4+chmPcKlE77Y6BjgnuAiKh5MWCkhqR7dyK698OIN98KVE2gyLcxZa00EsGk01G68IO2VrU5ndb6iYiaEANGaixRn024Xb3vX6B7drhOovyo9nEIz3w7Sqf/CdA+3vUSETUXBozUGGT3s1RoWfktRE/8BKiylB8ViKxvnPlslM55J4IpZwLl0e4BIqLmwICRCk/K+cVrf4Bk7Q+RSE5F8C1LBdUxAeGpr0G44I8QTJhvOjhNTUTNgQEjFZd5a+rdjyBa+gXEW+5gOT8qPiknGLYjnHYegkVvQTjnSpuSh4io0TFgpGKKK4jX/RDRsi9Ad20wwWPiHiBqBAqqYwKCU1+H8oV/x6CRiBoeA0YqnsoBREs+i+ixr9nAkaiRhVPPRemKz0CNO8mccQPXS0TUWBgwUmHoqA9693JED38cybZ7XC9R4wvGnYzw/L9FOOe53BBDRA2JASMVgu7Zjnj19YhXftPmWCRqNmrkVATzXo7S4jdBjTnB9RIRNQYGjJQ7fXALokc+iWTDja5aC9+S1JxUaQTU1HNQOv99CKZLsm8iosbAgJFypQ88iert74bevQSa6xWpRahR01E67z0IF/yhaXBdIxEVHwNGyoVOqtBb7kT1tr+EHjjgeolaSNsYlM99N4LTXg/VxnWNRFRsDBgpc7pvD+I130e85LNuCpqoRZVGoLTw9QjPeAvU6Nmuk4ioeBgwUqb0wc0mUPwMoid+ClS7XS9RC1MBghOuQOnsdyKYfqHrJCIqFgaMlBl9cBOq9/4zElZtIXoqqUU9cSHCc/8G4UkvlI5aPxFRQTBgpEzoztWo3vz/kOxfZxqx6yWiw8m0dOnCDyA8+SVAUHK9RET5Y8BI6TLBYbz1LkR3vBu6h/kViY5HdUxC6eJ/RHjKy0zQ2OZ6iYjyxYCRUiOVW5L1P0P08Cegu7eaDr7ViAZDtY+rjTTOfzVQGul6iYjyw4CRUiFpc5LV19ma0Lp7m+slosFS5ZEIF/4JSme+DRg5zfUSEeWDASP5pxNEy76I+LGvs8wfUT3CdoSnvMJWhlGjZrhOIqLsMWAkv3SM6KFPIFr+X9wJTeRD2Ibw1NfUgsYRU10nEVG2WJOK/In6UX34kyZY/AqDRSJf4griVdchfuTTwMB+10lElC0GjORH5YBdr5g89t82cCQij2SZx8pvI3rkk7ZSEhFR1jglTfWLBxAt/Tyi5V+1gSMRpUQFNt1O6by/hRo713USEaWPI4xUJ203uETLv8ZgkShtOkG87qeIHvp4LVUVEVFGGDDS8GkTLD7yKcTLvmCCxS7XSUSpkqBxwy8QPfolYGCf6yQiShcDRhoeHSFe8TUTLH4JutrrOokofbq2EUbWND72TSDi54+I0seAkYZMR/2IV1+PaNmXTbDY43qJKFOJuWlb+jlEK75tP5NERGliwEhDoxMkW25DtOQz0D3bXScR5UHLhrOH/xPxY181QeOA6yUi8o8BIw1JsvtRRA/+B3T3FtdDRLmK+uzSkPjx70gE6TqJiPxiwEiDpg9uQXTbX0J3rjENZmMiKgo9sB/x8q8g3vgb10NE5BcDRhoU3bsLlZvfiqRrg+shoiKRNDvRkk8j2b3M9RAR+cOAkY5L9+5EdP+/Qe9d4XqIqIj07uWIH7kW+uBm10NE5AcDRjomO9X16JcQP3kjkFRdLxEVVbzpFkQPfsx8dpkblYj8YcBIR6dj6E03IV5zA8D0OUSNQTIZrP+5DRolXyMRkQ8MGOmodOdqRA98FHqg0/UQUSPQSdXc6F2P6LGvuR4iovowYKQj0v37ULnpLUh6dpoGd0QTNRxJt7PiG0i23MHPMBHVjQEjPVP/XkR3vR+aO6KJGpru3oZ4+VfNZ/kJ10NENDwMGOmpBroQSRLgTbe4DiJqXBrJ1rsQPfoVoMJNMEQ0fAwY6fd0jHjjrxCvvQGIWWaMqBnIesbkiR8jXnWd6yEiGjoGjPQ7MgUdLf+6TdItIxNE1Bx0tQfRI9ci2Xav6yEiGhoGjFQjC+Qf+xr03sdcBxE1E13pRnTHX9tE/EREQ8WAkcyVRCPZ8EtEnLIiampJzzZED/47UO12PUREg8OAkZBsvxfV+z7MSi5EzS6JkWy8GfETP+U6ZSIaEgaMLU5qzkYP/gd03x7XQ0TNTHKsxo9/G8m+Va6HiOj4GDC2sriCePlXkOxZ5jqIqBUkex4zQeN3oCsHXQ8R0bExYGxh8eZbED/5a9abJWo1OkG8+vtItt7pOoiIjo0BY4uSnZLJ2htsJQgiakE6RnTfh805YIvrICI6OgaMrSiJkKz/ea3GLPMtErUsfXALqvf8E1A54HqIiI6MAWMLkrqy0fL/gq72uh4ialXJ5tsQr7netYiIjowBY6vRujYNdZDTUERkxP2IVl+PZP8a10FE9EwMGFuM7IyMN99ujjgVTURO52ok635iThDMzUhER8aAsYUkXesRPfol1yIiqtFJFbGsa971iLRqnUREh2HA2CJ0tadWK7pnu+shIvo9vX8d4pXf5gYYIjoipQ13TE0s3nQzot9+yFZ24QgCER1ReSTKl1+LcN5LXUeDSKrQkk826jVfA+Z4ACqpmO/9UDIuEpbN1a5kvreZb6Og28dChe3uPyaiwWDA2AL0QCeie/8Z8dr/M43E9RIRPZMaPw/tr7rZBFcFC6h0ZDfr6QNPIpHckfZ4E9C9FUnfThM0xu78pqHNd3Nxq31Xyjwp82VCR/ulTAAZmOCxNBJqxERg9AkIxpwANdZ8HzfPPP/5QNtY+RuJ6DAMGFtAsvUuVG56M8AyYEQ0CKUL/hals9/lAq0MSZCXVKGSCKh2I9n7OJLdj0DvesR8Xwbdt1d+qPazaQlCqHFzEUw8A2rqOQhnXApIQBm2mcfKtWCTqAUxYGxyunIA1dvegWTjTa6HiOjYVMcktL3kBqgJC1xPimTquL+zFgx2b0Oy837E234LvW+1TfkjQWS+AqjRM6AmLUIw7QIEU8+GGjUdasRkoDw2+6CaKCcMGJtcvOYHqN75HnNSNnfsRESDEYQI578a5cs+CpRGuE6/dM826F1L7MhhYoJDvX8t9MFN5oGCL5spj0Awfr4NptXkxQgmn4lgwmlA+zj3A0TNiQFjM6t0YeDHLzIn4vWug4hoMBTUmFkoP+dTCGZe5vo8qPbaKeZk0y1Idi2F7t5sAsedJkiM3Q80FlUeCTV6tnmt5iKY/SyoOVcjGDtXHqn9AFETYcDYxKJln0d0/0ddi4hoCFSAcPGbUDrvfVBto13n8Oioz852JGuuhz64EVrWU8uu5mahTIAtI7Ft4xHMugylhX8MNfUC20/ULBgwNindswMDP32p3UlIRDQcauyJKF/5Gbt2b8iSKjDQhXj9TxAt/Zw5J+1yDzQ/ZYJtNe08lM55F4LpF9od2XZ3NlEDY8DYjJLInKA/a76+AJg7eyKi4Sqd+f8QnvdeO/06KNVe6M7ViDf+GvG6H0LS3rTsZSZsQ2gCxuC0P0Yw9Vyo0TPNVTd0DxI1FgaMTSjZ8yiqd74Pes9jpsVfLxENnxoxBeXnf8vuDj6muB/xjgegn/wVkk23ImGRgN8LSnaUNpx7FYK5z7cjtxxxpEbDgLHZxBVEy76AaOnnObpIRF6Ep/0Rypd/wrWeRidI9j6GeNX3kGy92ybWZoGAoyiPRDD5LISnvNx8vdK0R7kHiIqPAWOT0Qc2onr7O5HseEhatU4iojqo8oha9ZexJ7keJ+43N6hfRLz6utoaRVm3SMcmG2RMoKgmLkLpgvcjmHGxe4Co2BgwNhWNeP0vUb317cy7SERehQtei/Lln7IBj63dvHelXfoio4s0TEEJ4cLXo3zOXwOSCJzT1FRgDBibSdSLys1vsznOiIh8Uu1j0Pai64HyaMTrfoRo+deAygH3KA2X3VE99WyEsrlo9hX29SUqIgaMTcTWjP7VnwDxgOshIvJEhQhmXmxuTPuR7H6U08+eqY6JCE9+CcLT3wA18XTXS1QcDBibhfk1Vm78QyRb7nQdREQ+KfM/SURtLhm8bKQjMEH55DMQnP5nKJ3yctNucw8Q5Y8BY5NItt+Pyi9ew7WLRESNrmMiSme8CaVFbwLaxrpOonxxhW1T0Igf+yqDRSKiZtC/D9FDn0R07z8CfbtdJ1G+GDA2Ab33cSQ7HnQtIiJqeDpBtPp6VG56M/TuZRwQoNwxYGx4GvGGnwPVg65NRETNQgYDJPtFvOb70NUe10uUPQaMDU53bzUnlAego37XQ0REzUQf3IToof9Esup7QLXb9RJliwFjg5O7z6RzrWsREVEz0r27UH34k4hWfAOaZV8pBwwYG1nUC73zIaB/j+sgIqKmVTmA6MH/QPzol8E8mJQ1BowNTHdvs9PRzIlGRNQiZDPMw59A9Mi10P2drpMofQwYG5U5aSS7l0Hv53Q0EVFL0RrRsi/Wgkam3aGMMGBsVEkFyeZboeOK6yAiopYRR3bndLzym8DAftdJlB4GjI2q2msCxttdg4iIWosGKj2Iln8V8dofmABywPUTpYMBY4OKN94EPcD1K0RErUuCxm5UH/gY4k232qlqorQwYGxEOkG87gbXICKilhb1IbrrvUi2/ZZBI6WGAWMD0vvXIdn+gGsREVGrkx3T0V3vM9eGe10PkV8MGBtQvOEXzMFFRERPkRzYhGjJp6G71rseIn8YMDaauIJkwy9dg4iI6BCNZPv9iFd+G3qgy/UR+cGAscHovSuQ9OxwLSIiosMkVcSrv4dk083mghG7TqL6MWBsMPGOB6Bi1hElIqIj05VuRI98Gnrf466HqH4MGBtJ1Idk1yPQUb/rICIieibd9QSi+z8CzaTe5AkDxgaiD24EDm4yB4nrISIiOrJ4612Il37eXDOYaofqx4CxgST71kBz/SIREQ2GThCt+h8kW29zHUTDx4CxUSQxdOdqFponIqLBG+hCtOTz0P37XAfR8DBgbBBSBjAxASOno4mIaCj03pVI1v+M+XupLgwYG4W5O9T717oGERHR4OjKAURrrofuXON6iIaOAWOD0H17oQ9ucS0iIqLB03seQ7z+Z9BRr+shGhoGjI1A19YvSlodIiKiIUuqSFZ9D+je6jqIhoYBYyNIIiR7lrkGERHR0CV9exAt+zKYZoeGgwFjI5CAcTcDRiIiqk+89gZoDkDQMDBgbAC6dxd013rXIiIiGqakiupDH+cSJxoyBowNINn5oLktrLgWERHR8CU7HkCy7beuRTQ4DBgbQLL9PndERERUp6gP8arrgHjAdRAdHwPGRrB7qTsgIiKqk9ZI9q1AsnuJ6yA6PgaMBaerPYi5fpGIiDzS3duRbLuHy51o0BgwFpzet4ofaCIi8kvyMm77LZKDG10H0bExYCy4ZN9Kd0REROSP3v0oIIMSOnE9REfHgLHgpGg8ERGRb7rai3jrnQDLBdIgMGAsON25wh0RERH5pJFsvgW60uXaREfHgLHIBrqgD253DSIiIr909w7EW+5yLaKjY8BYYPrgJubJIiKiVCVrf+COiI6OAWOBJT3boJPItYiIiPxLdi4Bure5FtGRMWAssp6dNvUBERFRauJ+xBt/5RpER8aAscB07w4oHbsWERFROpL1P3NHREfGgLHAdM8OaI4wEhFRypJ9j9tBCqKjYcBYVHE/0L/XfIqZUJWIiNKlowqS7fe7FtEzMWAsKN2/H7rSLUe1DiIiorRIqcCdD7oG0TMxYCwoPdAJRD2uRURElCIdQ+97vDa7RXQEDBiLqnIQOuIHl4iIsqH7O6GZXoeOggFjUUV95k6v4hpEREQpqxxEcnCzaxA9FQPGgtLVHiBhwEhERNnQA/uB7i2uRfRUDBgLSkW9HGEkIqLsRH3QPdvtekaip2PAWFA66jGfWa5hJCKijOgEunc3IDNcRE/DgLGgdMV8YDnCSEREGdJ9u8z156BrEf0eA8Yi0hqwU9Ks8kJERBmSEUYGjHQEDBiLSEfQVRMwMmk3ERFlaaDTXH+kaATRUzFgLCIdQyWRaxAREWUjGeiqpXUjehoGjEWkEzvKSERElKnKATfDRfRUDBgLSGttYkamNSAioozJ7NbAfl6D6BkYMBaRHWHkh5WIiHIQ9UDBXIeIDsOAsYgkYEy4Q5qIiLKnK9216xDRYRgwFhFHGImIKC9RDwNGegYGjAWkwDWMRESUj2TTLYge+SSild+2x7pzDcBUOy1PadlhQcXSvxeVuz+IZP3PXAcREVG+1MipUJNOQzDpDKjJZyCYeLrtQ1CGViFUWJafqv0wNR0GjEU0sB/V334I8bofug4iIqKCUSY47JiEcNJCwASRwZSzEIw5AWgbB7SPh2o33xUnMpsFA8Yiqnajes8/I179PddBRERUcDaAnAg1Zg6CcSdBjT/FfM1HMHEh1Ni55vHQ/SA1IgaMRRT1oXr/vyFe8Q3XQURE1EhM8BiEUCOmQI2eCWUCyGDaeQimX2qCyHnmYY48NhoGjEUUVxA9+O+IHv2K6yAiImpgEiCWRthpajXlTIQnvwzh3KtN30j3A1R0DBiLwOZdrEBXeqC33I7oiR9Bb7sXmvU8iYioSam2MQhOfjHC+a+BmnwmVKnddHLauqgYMOap2gvdvRXJnmVINt2EZMud0FL4nYiIqFWEbQimn4/w5JeawNFtnOmY6B6komDAmDWdQB/YCL3rQSQ7HzFfDyORHFes7EJERK1Mpq1HTUc47UIEs56NYPazoUbPkgdqj1OuGDBmSB/chHjNDUi23gW9fy10/z73CBERER2iZLf1xIUmcLwc4fxXusCR8sSAMQP6gAkUH/svxE/+Cujv5NpEIiKiwZCNMiMm2aCxtPBPgFEz3QOUNQaMaUki6J7tNpdi9NjXASnmTkREREMnOR7bx6N85v9DIJtkRk4xfdwgkyUGjL4lVeiuDbVanKu+Y443mk6+xERERPVTCCYuQLjojQhmXgaMnm3ixjb3GKWJAaMvspll/1okT96IaP3Pofetsn1ERJQCqV08YhLUyBmA1DhuH1/L6ReUbMJo+7j5rk2AoXQMe6kz52QlGwzjfuhqD7QsEerbDXRvga4cdP/H1BBUYOtZhye90Hy9GGrsibaP0sOA0QNdOYBk7Q8Qr/spkr3LgajfPUJERHWT4GDUTATTLkAw+XQTIM6AKo8C2sbUAkX5Xh4JHbSZHy3VgkQJHsyXvcBJoCjf5LsEjzZorJhzdQ9gAkXdt68WQErQeHAzkt1LkWy/x/zMgPzXVGDye1dTzkZp/qsQzHsZE4GniAFjnXTXE6je+2Ho7ZJou1fOSO4RIiIaNqUQTDkP4Wl/hGDqWXbXrGyAQNhu8/aZH6j9nE8mmEQswWRfLYDs2Ylkyx2IV/+vzZlrfqD2c1Qs5r2iyqOByWeifMEHzI3Fue4B8okB47CYl8ycTKLHv4PowY/zLjQnpQs/aAvcZ6m69AvQu5e6Vo5Gz0L53L+Bah/rOvxJujYiXva5wiWRL533Xrt2KQ260mszGST7Vhbrps8ESKVLP4qg3VwMPZKnGD/6RTuSVpjnKxsYSh02fUrp7HchmHsVYIIAJZsdcmdeowObUF35HSSr/8cEk30ud26B3itUE5QQLvpz8x76q9pNBqepvWHAOFRxP5IdD9VOtlvvhk4i9wBlqn08Ot6wvLZWKUPxhhtRvelNrpWj9klof/Wv7TSdb/rgZlRvf3dtSq4owna0v+4uE0zMdh3+VW/9C8TrfmKOinNKVGPmov0P73Utj8x5q/KbN9kKU7krjYQadyKCKeegtOjPbO69Ql/kKwcQrf0hkg2/QLL3cWCA+XQLx7x/gukXITzjLQhnXgq0+b+xbkUMvYdA9+5EtPRLqN75XsSb72CwmKPSgj/MPFgUwYyL3VHOBvaml6qpbZwJVE5wjWIIJp4OFXa4VjrUpLPseqgiCeY8zx35ZYsGVHtcKycqtLtcSxd8AG1X/zfKl3/c/A4WFTtYFCb4kMC27Rrzb77sIyjJlHnbGPcgFYJOzA3vvaje8R5E937YHN9n+6g+DBgHSUZbqrf/NeJHv2QrthRpFKIV2emqHKiOCQjGn+Ja+dLdm92RZyUTmJnnWSRqyll2ejZNgfk7tKyPK5Bg5rPckV9yDtP95qYjJ8GE+Shf8RmUnvUxlBb/GdTYOaa3wcq/mSAxPOVlCC/6EErP/g8EU88xT6HBnkOzG+hEtOb7qN79d4iWf8WODtPwMWA8nriCeMU3Ub3tXUi23gldZQLu3MmOyBSnJo8nWPBH7ihfyc4l7sgvyWlWuJG28SebP9LNtabGzk397xiqYNJCd+TZ3hWA3cSRsaCM8My3ofyC75pg6+Xm9zpP3nDuwcYku7TVSS9B+ar/QjjvVfY5UoHoBLpzDaKHr0X1t3/vBnxoOBgwHkt/J6oP/juq9/9rbYccl3sWQnjSi+waxryEJzy3ECMJ8cbfuCP/1Mjp5kI4zrUKoGOyOVulG1jYnH5BybUKQHZ+jpzmGh6Z81jSuyvjm1/zXMadhLJM4170D7UlD020GUHyPcpmnfKVn0HJPL+0R8NpGKo9iNf+Hyo3/nFtfbbdtERDwYDxSOSEum8Vqvf8PeLlXwVY+7lQJGWCyvGErEZLMJVfwHqI3vuYuXlO56Snxp8KjEghWBmOoAzVNir9AENGVos0FS8L9WV5gG+StHpgv2tkwAThwaxL0XbVVxHKmswmChSfwQT5pTPejLZrvgE1NtsMDjQ4ev8TqN74ekRLPgfdvY0DQUPAgPHpkgri9T9F9bZ3IF73Y/Nm4kLZIpE0CWrMHPPOzW8aSwftCOa+wLXypQ9ud0d+qbGzoUYUI3iS6Wg1YqprpSuYfaU7yl8w6znuyC89cMC8b7a4Vrrk81o+8+0oX/V1qEmnu97mF8x+NspXfBpq8pmuh4pER/0mYPwUot9+AHrH/RxtHCQGjIerHLAjitH9/wYta3yocCSjv6QaMUe1jhyosIxAUjUUgN7zqDvyS7VLkuRRrpUvNfZkYMQU10pXMOMid5S/tP4tUgpP73vctVLUPh6lc96FwHylkS+02JSdCSmf/z4E48z7l4oniRFvuhXVez6EeO0PwXzKx8eA8RDJrfXwteau47Muoz8VkRo/H2rUdNfKi6rlPyzAerfU8uiF7VCldvNUC7Drc+S0zNZTqvHpJAYfjmDiae7Is0oX0LPNNdIhVTdK57wD4cI3FG4DVWYkbdDs5yA866+AMtPuFJKOkexdieq9/2iu//9p2pxRPBYGjIaudKMqweJjX2MB+gJTJogJRptALe/UJ7IZYfQMm4Ylb/Gmm80bOIU1OPIcx803Z4icdw3Lv0OCxTTW8h2BGjVZ/qw18iTPO41RVdkx2r/XvGXSuzDKLvtw0RtROuNtmf3eCsvcVIYLXofSQsmswJQ7hWWu+9HSL6Lymz+D7tuTzjm1CbR8wChVLeL7P4z4sa/akykV2OhZUNOLMWUoF3NbkSJnSmrfpnSToySvXO67Pc0pqiwbXjJas2oCZLkZyJuti1vyPzKnkxi6c51rpUEhOPGFKF3wt+aQ4xGWCf5LF/59IW4w6diSTbegestbaiUzua7xGVr3E23uIPTOB23Vlujx/+EdRQOwG14kb1sRlEdCjTKBRc7T0lJtSB/Y4Fp+BTL9H+Y7wii/c5urL0NhATY0qSnnmKAxhWDdXASTrXe5hn/BSS9G+TnXmifQ2LkVvTPnifIVn0qllCd5ZOKAZNsDqN79ASRP/tJ8XiruARKtGTDKm2LH/ag+8FHz5ihQvVw6OnMBkvVlxVkPpRBMXJhOnryhMAFjvPNh1/BLjTLPLe8kxJK+aMyJrpENNT3/8o+BlMhLY+lFXEGyZ5lr+BVMvxDlC99fgFHpgho3z9Y2pqLT0HuWo3r/RxA//l3XR6IlA0a9fzWi+/4Fyc6HTCN2vVRoYRuCeS8xB8VZB6QmLc614oyV5oiRTInmPFKk2kYjyHiTUzDxVHeUI5s6KoXR3UonEPW7hj9yI1da/OdQY7MN7p9C1mdW+2yOSamVrfvNc5Xk5Hb3a/4zSJIUXvJQynmDis4EjQe3oPrAvyN68GPmPMs4QbRcwCg7oCu3vsOtUeCboGFISbFp57lGMciUtE3grfIMYs2FUJIwp7HeRjZeTD3fNXIgr6uMspmgMUu1zSY5/k7ldZcE4ikE63pvGul0FIJTXwclOSyzWreYRDazhd79KOIln0PlhqvQ/9XZGPjGPAx863QMfHux+VqE/m+civ6vn2Qem4OB/7sa0UPXItl+P9C31yYwzzqQlIDaJi8v0I0vHYNUh1n2RZt6R45bXUsFjMm+1aj85o3MsdiAgokLapsfikTKgU1aZK7rKUwdDoVU7pDRlBSEsy93RzmQa7lUO1EZrxMNy1CyGz8vYYcdWU3jRiTeeIs78kSC2zGzUTr5JebfnH7qGG2CxGTHQ+Yi/iUM/OC5GPjRC2z51mTfSvcTR6Fje96PHvkEKj97BfqvuwjVO96L+Mkb7cbHzMgo4wlXIpgw33VQ0ck68WTN9Yge/jh0zw7X25paJmBMdj6A6K73Qu95zPVQIymd8XZ3VCzB3GtMIJtvjjUJFnXXk67lVzAlx0oVQdmui0sjcDom+XtnXuYa2VPjTwFSqWyjTcD4K3fsS4BgztVQ0y9w7ZTIRXvbPYju+zdUfvV6GyTqenJJRr2I1/0Q1Zveiurt70b06JegZdQxA1J8AFJ6k6OMDUNHfYhWfhfRQxI0ppvDtMhaImDUu5cgevDjSHYtdT3UaNTMS9xRsdiRgpx3EkveML1/lWt5NnqWO8hBECKYbC6uWQtKUBMXuUb2pJKRGiH5IP2SkoAY8DwSXRphcy6mutZVNnatNcHdXe9HsuY6OxXtjU6QbDeBqLk+RL/9e+i9xxmp9EHyVJogO+ulFlQnEzTG636E6J5/quVqbEFNHzDKmkVJym3XrXCDS0OSeqy+SovZxOw+166aC2aQd73YuA+6d6e9+Plmp0bDnHZKSxAy7iTXyFKAYEx+m5nUyKnmdfdfSk93+U+/VDrllVAp/46iRz6L6r3/YP79T5i3eErn8HgA8ZO/QOXuDyLJYMlSMPeqTKbwyTP7PvkVqre8tXbObTFNHTBqu2D1czYZJ4PFxhWe/gbzp5/pm2Tjb4DuLa7lhyz4z5XkFJXRI7uI3zeVX91sZQK3kf5H2o7LbjqRgC2HKUP5uyWQSKFCit5+rzvyxAT0pQv/zvyTU7qMmOAwevjTdt1hWsnpn8L8fVqWLpmgMe21arKpSdZ+UgMysYQMQEW3/3XLBY1NGzBKub9o6efsugNqYOaiFEw91zXqJPk3t96F2POFM5h2vr3Q56p7G3T/ftfwK5h5hTvKlpJgMac8kLo0Jp8cm7LBRwJG30GYee/HG3/tGn6Es59Ty5OZBrkor/8Z4se+4jqyk0hBhwc+Zv4J6SZtDhfIjTA1JPk8yZrah/6zpdY0NmfAWO1FvOwL9iuNaTrKTjBpIQJPNXV1tdveEcZr/s/1+KFGTEAwId/cfUnnKqB3u2v5FUzNYR2hEZ5wtTvKnhoxCSqH32mtmtEpruVRPGCX5/gULE4vCXWycwmqSz4DPdDlerKVrL0e8cpvu1Y6glnPdkfUkJKq3TgVPXytua7sdp3NrfkCRlkgvfo6RCu/ZY45Dd3olAQNUlfXA31gk03oKyMI2mvJJ8lD9wfuOB+SGiTpTWchdl5TZ7lNhRuqfVw+z7tN/t65ruGP7t1h3vORa9VPjZ2LYGI6qWFkKZGMLsqaxTzFsnO6J52bMGFH0Es5p+Si+kT9tY0wD/57Kgnxi6bpAsZ4082Iln+1lsyYGl4o+Rc95TlM9iw1gdUmc2CCxYOe1zFK0uI8STBQ6TJXW/83SbWNL9nvBFcTF7qjHEguxPYJrpGh8ii76cW3ZO/jULbiiR9SMzq112f/OkTrflx7T+dIRo2iR1OcEpc1ujOe5RrUsGT39Nr/Q/W3H8j9PZu2pgoYtTnRxEs/VwsKqOHZMmOSQNnH+kBZmiBBopviSjbfab/7YsvXeRoJHS47ghqnUPElaEMw5RzXyIhs/hjpZynCcGgVQtuNJxmuTZXnbALzNHbP6u332JE7P8y/c4K/G7mnkLWLkv6svwBTfDqCljrtlW7X4V94glR9oYYn09Nrf4jokWvt+6ZZNU/AWOlCtOyL5mSzxHVQo5PNJGqsp5QdcrE8bJ1JvOb77sgPLbnVTnqRa+Uj2b3MPLE+1/LI58ajQbLl+XKsoKNM8BZIPWcp0ZcVqWwjm0gCz5VtJAizI+uebibKoxBInsgUdkdLLWhZUlQUMpWf7E7xmjLpNHdADU+Cxse/W1sjn0rGivw1R8BoflFVCRbX+d3MQHlSUGNOgOrwswtT9+5Csvf3VX6SA+tNEOlv5EBGhoJZ+VUHEVLNSDZ8eSclEDMuZRYUYORFnrOSkeOs2Mo2/ium2N3zkb8biWDK2eZGzgTTaejdiWTPo66RP0mvYwchUto8GeSxE59SIwm9JTtLvOlWc0JuvpHGpggY41XfQ7Liv9OZjqNc1HapLpRIzPXUR/dLNZQ1rmUkMZL9HhfVy2jLqFmp5M8bNMlVJ/kYfTPPLY11dcdiUxXlTI2aAdWWUtqYI5HAfPJZruGP7t5iy0f6YhN1p1CJRiQ7zE1Pkcia4P695iLjb/3n4Zi8u/lIgvz44U9kUzUoYw0fMMranGjp56ErvtbnUBHIyE4wzdO6OZ1A0unow3ex6SqSLZ7XMY6eCTVxsWvlIzmw0R35pEwgPBJZVnxJJbXMEMmmDlU2zzsrMvU//mTX8Ec2vOhuf7ni7A5yeT+kIFn3I3dUHDI7YStEpUDnlGeU0qShO1ejetffmstMBgnnM9TYAWPP9lquLs/5xShvJkCR9CK+pgOTCHrX06a5TF+y7S5zIAvHPBkx2eaNzJPe+aA78kt1TIIaO8+1UiabP1IawRoS2RkeZrjxRUZyzevslTbv7+7NHmtIm9dC1pb6XmcpbDLku12jOJIDm6H79rqWX7ZKTnmUa1Gz0FIkYs+jqN7yV16Xg+StcQNG80uIHv82kh0PuQ5qFspcjMIZl5gDT9PRcQXxpqdVuZALqaz38ziFq6Su9KgZ5lPl5989HPGmm9yRZzKqNO5E10hZx8R8p/YPo6acmdm/xaap8Z2+SFJIeVyrK6+F96DW0UXdKNC7o5ayKg0mYAxGZrhOljKVbLkd8dLPmnglhbXlOWjMgFEnSLbeiWj195sqeqca2XEcnPwS1/LAnOz1kdYrDuyHPvCka3ggI0QTF0LleAGQ1FKp7NArj87seQXTLjSByQjXypekE5IbgSwEc1LY6FM56HUGxk7TS7qrNGRRL3oYdN9uv0H3YWR+Q+eR75OykVQRyc7pJ35mbojSWQebpYYMGGV6IFpiovYWK/zdMiRpsseLkt67wh09VWJTZixzLT/UpMV2d3ee0liiocJ2qLaxrpWuQIJuOxWcv0A2eATZJC0PZvpP4pz07UG8d5VreSDBs4wAp6GoN/+SjiilHa92Srogo+mUDolX4se+Br1nuWl4XAKVg4YMGKOH/qN2oW/wF5+OLJz/KvOHv8Xg0RM/dkdPYy5QWuoveywhqUZPBzIKrI4m2bnUHXkk0+xto0wgl/4ifTV6FnQaa+SGQ4KjjP4tqax/lbWLB/1thJLlIiqtAMdruU7fzLUmpeuN3IxRc0v2PY5o6RfTW9qQkYYLGOMNN9o0OmnlxaL8hae+1h35oG1d2iMyFwAp/+V1J5vsdJ18hh0lzUuy6TfuyK9g/HxAEmqnSgHtY6HqXb/av8/PBV6Coyw2JdjKNp5z8sn7W3IweiwXqVWQ2s5en7WufZNNDPI7SoWntdpUYLKMbuOvEK/4lj1uVA0VMEoxelvkm5qX1NKVwMQTfWDrMUcQ9b7VQM8O1/IjOOGqXPOrxVvvTuWkZJcJdKS8e1k218hrV+fFOV7/C9jqPh6EJ2RQJ1xGpT2P3GkpUWbOmT7ZEcaURsRURlP/RHmJln7aBI43yYfT9TSWxgkYB/YjWvYlEwCkkWeOiiI86cVepz2TbcfOtZjsXQEtNaY9CiaeCp1nWTupgesxUfMhMgImOfjSFEw8zSbMrley8UabsNqHYEb6FXyCWc9xR/4omzrqHtfyRNbcpTVFn1JuRy9kI5mssZRcrh6/bG5YbtxsGToaQPXef4IuUDWjoVDajrUXnPknxk/8BNF9H7YJmKl5tb3wewhOuMK16jfw81dDH+eiWb78WoQLXmM+Db6mhjQqN70NyYafu3bGzIW37YXXmUDHc5m5pIrKb96MJK3UPUYw/9UoX/JP9aVu0QkGvr0Ipcs+ivCUV7jO4dMHN2PguotcKx2lyz6C0qI3upYfeqALle+dD+1ppFUEk89C+fnfMkF9CpV/qt3o/8aprlEsatIiBKOm+8zaaikdI9611A6IUIuQVEonvgBtz/4PIKUUVWlpiBFG3bMN8dofQPftcj3UlMI2qPEnuYYHVXPnfmCTaxydLRnoNeWBQsnrOswhMoGd3pVCftKgXKvtneKaq2Dk5LrXDGoTeOhKN5Id97ue+qhR6df7lZFV7ySdlMdgsSYxL3BKaw0LPMIomRbiTbeYmyW/X/Hm2xksthpZW7z1LkTrf24+Tv7WF2eh+AGj1Pzdcrv5usO+0NS8wjlXQbX7q92bdK0fVDJgyenp+8Kqpp9v/sioQsjTJRFiW8XGv2DKuSnmJZQqIiPrXiOnD2w2f8TQnWv9nDMCcyMzIsWRAFvZxv9mIr3PPH/fZG1sWhc5GXmZeq5rEDUrEzBWDtrNu8m+I6d8K6rCB4y6ZzuiZV+unaioqQUzLwVK/nak6m2/ha3mchyJFIn3WPFFqLZxwOi88jGaIMk876fUzvZETTrdBHUprc80gagaKYFTfYG23l1LK6RlpNXT+rBgzvPdkX+qPDqV0bXY3Gh7JzuuU0x/E8yrfwkBUSPQex9DIhlfCpqw/kiKHTCaO9nqw9fa3dHU5GQacvQc8470tKDeXNiSXQ8PekF50rXBHXmiFMqL/9w1ciClqPr9179VY83vyHf5OkdG8dSEBa41fMmW2+x3Jb/7vj32uF5pJNU+REk1mbLvUVudyhpaWbQvayPTEs7JYEc6URFojWjt/6VXzjUFhQ4Yk623Q6//qWtRM5PF9IHHWsWyS1hLLr5BLlPXsuTBM5XCztfBkvx7ustj2UNHtU80f6SzhlEqyUjS7rroxCbJtYcDB7xVvUlljaETTFrkfdRWywhzGhsETRBe+1ylQ3bic1qaWka1B5EMivVsdx3FVtyAsdptXshPmjva5ijaTccWyFTnqJmuVT/dtR6QGrCDFK27wfxHftfIqlH5VX2R+rfJvpWu5ZHk4bPTxikojaxvd7SQ80VU28Ck+/cg6fRTFi+15yzGyMi651Hbg8ff7DUcdq3vED5XQ1bqQHDaH7kGUfOTa1V0/0dcq9iKGTCaC3e89gZzsk9h0TYVj4xYjZzqdVou2bUEeigXTZlmq3hex2gufqWTX+JaGZNd31IWzvfaX6UQzk5j2lA2vJSBOt8DWpKwH9rF+7sp6fpvBLTs4B+Rwm5p2fDSMaH2GfAo3v6AO/JMdqCnORpiXodw6rlQ4+a5DqLmlzx5o/0qukIGjLp7s8276KtSAxWbTEOG0yRnoKddxVJirG/3kDd9JJIPzaegjGDmxa6RPTstPYhNP0M27Xx34JEKoMbMlYNae5iSfWvsOrtD7NTsYe3hUiZgtJuyfAs7oNpGm7/A03vfiTf+2h35ZoJvyTyQYhk/NX6erSef3m58ooIxn6nosa/bUrVFVriAUccVJBt+AS07V6k1jJgM+FwjVjkwrOot8er/dUeeSFWM0bPNhS+f/HKScBoD/tebqfH+kytLdZ9gZv0VVWz+ycOXsZgbB1Xtdo3h0yqEkhrhnqnxp5j3v+ck2EkFev8610iBjManuVTI3GiF818JNe1C0/AbSBMVkdRPsbumn/yF+fxWXW/xFG+EUdLoPPkrm3iXWoFCMOYEu+HBF1nsnwyj9FKy/R7zh98cc2rkdKiJp7tWtvS+VdDd/qcPlSTX9kwCMruOtR6y4UWWIRw2+iVBc+Jht7iSf5/sEPdMRlWV3DB5pHt32bKAaUkObITu878D/3BqzByUzn+v3QRD1Apkk170xE+hD/jfrOhLsQJGOeHveMDlUfO7AYEKqtSO8OQXyxXZddQv6dtTG10bIsnZ53tnqQQDweScAsaebeYklMIIY9iGsN7dzE+jZEp6dJ01pKN+KLsM4ffnDlvFR9Y11kven21jXMMfJWt3PW+Msgm7E5+Vi55qyOuDh0l2S7dd9ZXaa0/UAvTOhxBvvAl+K4/5U6iAUXbgRSu/ZV6s4g7JkmdSbm7GJa7hQRJDHdxq3kzDGCnUkb0YelUeZYJGmXLM46KnIemFhvVaHM8JV7kDT2TTR52Bk6R7kbKAh5OcgbbPxw54+ff5rMgiG14kCC11uA4/kh33prN29ZDqQfNaywhjyjf18vpMvwBtL/+l+RyNlo5aP1GzSsw1yMRARS2DXKiAMdl0M/RuzxdsKjQla/w6JrqWBxL07bjPNYZI1s+mkERVTVxQS7GTA5uL0Twv34IZfjfzBJMXmz/rCwh095ZagPw0tb76d4tLyp/AQ2Lx31Gl2qilrHX1RSfQ+2WEMb1qLELvXl7bhZ6BYPIZKD//mwgmzjevVXp1zImKIDm4GfHj33WtYilOwFjpQvzIp8yZiFPRraR0xlvckR+yMzo2Nx7DIksiujbY/w+fbCUPybWXA73zwVRGmwITBPsUzH2hOxq+pHMNcIQlBba2tIegWbWPs+ttfZEbJTXuFNfyRDZ8VU0gl/J5NF7/MyR96SXwfgqpMW1uUMrP+RSCU15ld5YTNTMJGA8VICiSwgSM9gS0nyUAW00w57nuyJPe3XZqcriU7P7s9TsdYJM+d4wzB9lPqdnNPynsaPW9UUNNPccdDZPkm5RUSkeqy7pvhZ+bAEnzIjkTPVHt471WNxK1davPHGX1Tf4eyEhmRuwaV3PjVb7ogyg/+2PcDENNTWZF4iWfrp3XCqQYAaOsXVzxLXPA0cVWInWJlc81YYatH12HWoUUz3d2ko9xynnmu9/yb4Mi04ZpFLcvdUCNqnOTymGC8Se5o2GSdZo2b+szzyGxvCdiD9OnMh0q6w09Bf5a0i35fv/vW33EUdY0REs/546yI5uEJEdj20t/gtLiN5s3jqfa80QFk2y+Hcm2e1yrGAoRMMZP/goYxq5Wamzh6W80f/oddYtXX+eOhkcCRr1vhWv5E55wZW2DQw6SLv8j91qVXJ68+knKGpTrfG2iXrcR4whs3kAPI4yyCWOMuclp9zDKKP9fUj3G83tCyozJezgLyfb7zHtrvWtlyLxf5GazdOmH0faKX0PNvLw2+stNMdREJLVg/Ph3oFNMkTVU+QeM1YMmYLzRfGfexZZiLpi+N05IUCBpmeoiCVT799dG5jyypc4874YdLL1tmJuAjiUouY0qHkw6w7xAdZ6KBg6Ym86jJ2uX3IQ+yO/Ry3SoDIS2j/c7QibrNH3tCB+kWGrg5nZBM+eQSQvR9qL/Qds1X4eafpEJ6GfX/14iKgRJ5r3cpRkshtw/WcmOB6H3PGbOccWaq6d0qTEnel+HlPiqbmETE0sNYo/KIxBMOds1shVv/I35028QIaOCMsrjQzj3ee5o+JK+vYhl08tR6L1+lhlIGUsb6NVLlimYAMcnSR+UpJCo/VjiLbfbqbM82aTqs69A+4v/F+XLr0V41l8gkPKVnK6mBqe7t0FvvsXOoBRBvgGjjAhtvy/dYvZUSOHca6Da/SYsTiThqQfJnmW2nrlvwfxXu6Ns6d5tgOyc9UmmVH0EToaaVOdIpYwKyzrNY2x2ktyEPqiO8VBlD6UeAxPkTDnLNTyR559mScAjMefwaOU3zet/wHXkKGhDMOtZKJ/3HpSe/XGUr/gMghP/P/NL44gjNSYplRybG7KiVH/J9ZOU9O6wAWORaydSOpRMZ3pNj6ERr/+pO66PXcfYKyOMfkflwul+1vwNmQRU3UOvrX1cbWO87JauP1WNhqp02e9HIyddL8x7Vtv3bZ3r5WSE1vcO6b49SDLcuVxj3ls7H0Sy/uf2uBDCdgQTT0M472UoP+eTaHvlTSid/S7vO/uJspDsXYFk58PmIP+1jPkFjOYiprqegN6zzHVQq5DKJ1Jj2eedv113WPW0G/hQgOW74lD7OKhRfkvqDVayvc61nUeg2ieZoGe+aw2XCbza6934kRw/IJa1fVU/+TUlkXTd61ElTUzHJNfwwQRrsrknh5tvGd2NVl3nbdrfG3mNJXfmpIUoXfh+tP/xw2h/yY8QTLugVjkmKMsP1X6WqKhMoBg/+Utz/sp/FD+/gDGp2N3RmmUAW46afiGC8fNcyw+9d6WdHvNF73gwlXUj4eI/d0fZijfe6I48ah8LNXa2awyPmnS6OQvVGXwlMRKpPHIcvpa+yFSyqjNgtDutwzbXqp+W1+DARtfKnt71sAkav5dOCidfbBnSi9D20h+j/bV3oHTu39h1pGq0jHAzcKTiSrbdC92Z9ezBM+UXMPbvRfSkLManliJr32QqboTP0RXzgdp8q01D4Euy/Z7aujjPwjn1b/AYDrvTzvPNmazlq3eULJh6rkuJMnyyzifZeb9rHV2y289shuyU1kF9wZ6a47kWd1I1Nzn+R5GHIl71HUTLviTRq+spKDkHjZphAsZ3ofyCb6N8xadROu+v7RS21zKlRL6Yc1y04huukZ/cAka7c7Pf805UKjzVNg7BhFPNgd90IpJ/DtpfQGSDxTTy2Y2chsBzsubBkJF87xVA5HcowZ65AA+XGneyzUdYD5UMDGr0MNl6hzuqk7nZUXXuwA1nXuaO/FAmYIzNTU6uzHssXv4VRI9+2XUUn2objWDmJSZ4fA9Kl3wYpSs/j9IFfwfleQaEqF7xplty3/ySW8AYrfy2uYoVZJE0ZUbu7O2oUh1BxtPZTSoD+72/n+Jd/tfXKhNgqTnPd60M6Rja9w5aN1JTT/Jpm1qpzuArkQ1Kg/jdSwoYH+8R+R3CBBr1kHV1PmmpciNrGHOmoz5ESz6L6LH/Ni91A53fZb2jVJE54QqEZ74NbS++AW0v/SnCU19nontZ60iUM/MZj9f+0DXykUvAKLt+9L5VrkWtQzY4jAfsmiF/9L7Ha7VtPYuf8LPr+ilMcKRmek5YPhhJBL3DfwJvm8h6xDDzadoKLzJCWedpaLBre2RNajLgGvUJZ1zujoZBAu1UcpAWJECrHED08CeQrPm+fd81GhW2299PMP18lK/4FNr/eAnKF/9zrRSmjx3yRMOUrP1fc2GquFb28gkY1/3EHVFLMYFBMHmROSH7vGPXiPeYG5Bu/wGjlnVxsZ8A43fkNZDkz15TCg2CjhDvfEgOam1PAqms0TG8UnnB2BO9TM/HkpprMLTsfvdTZ7muoL9trPeqP8nW37qjghjYj+ihTyBeZS5wBUk6PFyyrjE8861oe929aHvuFxDMugxq9Oy6lyUQDVXSu9d81u90rexlHjDqgS7Em292LWop5s49POVVruGHlp3RstZQx67Hr2S//zrMatQ0f2X1BkumBys9XneSWx2ToCRFyXDIOrERU11j+JJNg0zYbqflV7tGfQLZ3T1MwaznuCN/Ek85SH2SUf/o/n9G9MBHj5lUvVGoUhuCk16Itud/B+XnfArhGW+FqjuHKNEQxAOIN/wit/rS2QeMu5eaE4mfu3xqMJL3TDa8+DSwP9WFwMnm29yRP7JWqp6AY7h01GPuUP3UVP4dGSmTTSvDWJMayBRf+zjXGh4dDUB3b3Wt45BNGZIuyQM1aro7Grpght+SgHIToHNMqXMsutqLaMU3Ub39nbUiDY20rvFoSu12lDE8929QvvJztU0y3F1NWdBJbUnfYM95nmUeMCbb7234KQoannDu1bUNAx7pnh3Qu9Irzh6vvs4deSSvgVSd8LjxZ1AkuXmX5+BaNgvITudhpJnRbWPrfz/YkatBBiEywrjnUdeok6xzG2ZKIalC4lPt4lHgQMxc5GJz4xXd9g7Ej3/X/BryW4Plk6SVCqZfiJLdJPMDV4YwdI8SpaRnp123n4dsA8ZqjzlhLzdX4eY4YdDQlBa+wR15ImvS+juhB9Kb7rI7sD3md6xRUBMXAyNnunY25Lkk+1a6lkdTznXl8obCvAYSLNa5Dkx3DWXntwmqZE2qp3WpwZyr3dEQyIYXz2mVkl2PuKMCM5/VxAS21bvfj/juD5iL3jbTV/B8jYMlNw8TF6Ltqq/YUoS10WdujKGUmOud3rvCfH7SWYZ1LJkGjEnXenPSkM0JTTAtQUNidx5KSTWPtF2TlnL2+8T8HZ1rXMOfcMoZCOqskjJkktxZ0g95Xv8STjjF/n6HpGOCHZmsV7L9+Am7n0Kmb81Nhg/BMHIp2vWepZGu5Ue88dfuqDFEq69D/w3PQ7z6+7Wp9BwufKkIQoSnvhbtr7gR4ZyroCQjBJFnUtVJKpvJ7FrWMg0YbR643uyfJOUvmHVFbb2bT0kFycZBbngYLvk7NqWwSWvkVEDKw2U8La0GOms5+zxSoyXdyNB2vsuaL0nJU6+hJuPWlQO10S0P1DByKaop55ig0d+yDJuQfe9jrtVABrpQvet9qN72TrvG0dYCb4b1jWLkNJSu/i+EF3wAwYQFrpPIn7zWMWYWMMpuVqnGoQfyL6BN2QtOfY078kfJe2p3ytNxWuoULzGfUM+jIEEZgQke6q6jPETJgU3+d6yWRg05YER5lN0tXhcJloa4gU6b5550ekpgPoyp5WDSIjuF6Y38Ls3r0JBkAf/OBxE99J8mcHxHrfRZkWtRD4GMuJcWvA6lS/8VavKZ0lN7gMgDm3dYNntmPDqf3QhjpctNH3I6uuUoZS6Ufhf6C31wSy2tTppk1ENucmRkyrNwznNtabJMdT7ubYTtdyS35BS5KA6eCjtsmch62FKHQz1hmoDEjmZ5EJRHIBjqbmlJw1JnHerD2TWcvnOFZs18tmRpQfTgv2Pgh9fYSjF2JLjRhW0IZl6Ktqu/ZvPPEnmTREj2PJr+9e9psgsY+zuRsLpLSwpmXJrKep5k8+3uKF0SmCRdG1zLo3GnmItKxiOMvbuhZbe05+k/NePZ7mgwFFAeOfRRyac7uNnEi0PdQGeet2Rp8LHxLihDTR9CAm/Z8CLpVzzupE12PGguGn2u1eBkU+SBjSZw/Bgq112G6OFP2yVM2gbEDTrQIFkExsxG28t+htDujudII/kR71oCFTdpwCg7NHFwk2tRKwlPuNIECJ5H0kzAE0npsSzITum9y82B5yCr1A41wf/I6/Ek/XvNn36nMoY0whiUEEw73zWGTyr8DGd0zW568ZHaKwihhpKA3Y6qms+Br3WrsvPYZp3I9qKRBT2w1wSMH0f/9y5EdM8/124OZQquUZ+rTFG/5IcIZ8lGKQaN5MG+VXaJTZYyCRglK7nUjs56+JTyZ3fPjj2p/tGkp5GKQfpACqN+RyCbRBKZ/k4hu37pdM+phgZDqtdEflNbqTFz3NEg2IDxAtcYPr1niXkeQx9d0zIy6eVEK6NHg3/eSkaUPVS2OUTLej8JfJtls8iRmM9c/Pi3UP3NG1G55a8Q3f8RxCu/A921IZXPY5pklqV02b/b3I1Zb3aj5iMzC8nOh10rG5kEjErSn6SR/42Kb8JpCMbONQd+T5A2n2eWZIQ8hXVVwYz6R9qGKtn5ABD7TZ6v2saYm4JBrs1TIdT4OlPqJNXaho9hLPpOOtf6qTZlp5jH2e+DocznQEnCdk+0ZJxokU2EsvQg2f0Iose+juiBj6Aim2Ru/2vEG26061IbhRp3Ekrn/Q0CuXkgqlOyqwkDRjmpx1lf4KkQwqln1xb6exav/4k7ykaydxV0dwopodrGmYC6/nyEQ5HseQy66nndm2x8GeSooTI/KzWo62GTqUfD3OzRtws2H2XdI3MmUCyPHXTFFykJaQNrT7QEvi2Ypkw2xOhdjyB+4seI7nwPBm64ElUTPCa7V5g3d7a7RodMPiczLkG44A+85+Ok1pPsWuKOspHNlLRMRcs0GLUYc0EdMaWWrNgncwOSbL3TNbKh9z0G9Gx2LZ8UwkVvdMcZkRF/2WHsmZp1pTs6Nm3eD0NO9P10tgLPcEfXTKBYlVGp+iuNSLCoxg8i156MRkqw6LE0pmSdaMWA8Xd0YgN/3b0N8ZrrUfnxNRi47gLENq/j1tpyhSJO1wclhGe+DcHks1wH0fDYohLV7EotZxMwdj1hrlENnvqBhm7kNKgpZ9uLpU82w32c8foluTj1DW8K9HiCWUPZYeyH3pdC9Zqpg7sAluZe446GT6pG6b49rjV0+uA286us/z2k2sdCjZnlWsegSoAEjDK66oNMyVe7zRNp4vWLQ2VeCzk3VH/7QQz87yWo3PpOxOt/hmT3MjeiXKBShOZ90Pa8zwHt9aWWohYn6XV2L3WN9GUSMNqdfNRyJDHzUPPzDUayQ9bgZZ9KRKZypbScb1IpRZngOkvJFv8pidQ4Wat6fMHsy91RHUzAKFPLw6X3r4JKPNzEyoihpMo5jlplG3/r1uxGrBxKgzUMuZA++QtUb307qr/+U0T3/CPipZ9DvP0+75WOhm3UTJTOe69rEA1PsmeZO0pfNiOM3PDSghQC2RHaMcG1/Ym33lVbw5axZPNt5mKTwt8btiOYc5VrZCM2z8W32pTrIKaabT66OtipyAMYeg7G35P8hX5S65SgyqPMwXFG0dvG2U0v3vR32spZdBwy6ti7C/HaG1B9+JOI7no/qje/DdFDn4Tu2W4fz1M4/1UIpma/8Y2ah9632h2lL6OA0f/0FxWbkioHJ74QymOSYqGrvVB2ZCn76SXdvSmdHZmSZmbmpa6Rkcp+/yMtqoxg4vHzEgajZrijYZLlLVF9vweZutRVH6PFCmr0LKiO4ySml1KIUj/cE5vXtjO7C0VTSCK77jPZchuiZV9A5ccvQfX+j9TycuZEtY1F6fQ/dS2ioatV0MtGNlPSXU+6I2oVOigjPOEK1/Koe2vtBJ/HyICMVqRR8UWCDikxZwLHzKTxXGx+xeOMlpgLZL21lO10bHe9aXHM8/eU9DYYP//YSwpkw4u5gfK1Q1rL767S3TwVXrIm546439w0bEP86Bcx8J0zET/29dpGqKzXOcqa1smLoMbNcx1EQ6NtQnu/eXWPJv2AUaZ9BrLNRk75UyMm2U0vvsl62ORgGruVByfedLM78kgCipEzMt81mWy/zx15IvkVJxx7nV4w+7nuaPjkhsFH0nZ9wFPmhtEzgWOVvpR7G3nc1w2BbLzqzu8z0HTM61m99x8x8PPXINlyp1vukt0NqRp7oq0rL+cBoqGSpTly85OF1ANGLeUAi7Q7jTIRLvwT/ydA8z5KZPjdlrbLR7LhF+m8n0dOgZq8yDWykaz/qTvyRAXH3bwTzLzEHQ2fkpRAHgLGeNsD7qg+qn0CUJJ1jEchNac9VLY5RAohJDsfci3yQkZtdz+KiiQDf/gT0H3ZnWNUqQNq0mLzPjr+5imiZ5A13b3D3wA4FOkHjBk9ESqW8OQXuyOPoj4oCRZlSikndhozhfqdqjQCSjYJBX7XfB6LDb4lPYsvcoMgOTePUQYymDDfHQ2T+d0nlYNeyozKWjYvZKNPWfIrHuUGyfxOgykeR4/N7yzeerdrkFd9uxCt/Caqt7/TXLt2u870BdMvAsZlm8CfmoOcdXRGgyhKy4KYFCVP/BiVW/7CtagVqLYJaP/T5ebA8/2I3EnJ6FLOaTFkk4NMv/qWbPwNqvd8CPrgFteTMhPctb/6dqgxM11H/XTnalRuegv0/nWu56naX3t3XWUBdRIjXnMDojvf7XrqodD+pifNr7L+OufRI59GtPRz9qbmGeR1fq15nUd5ep3NTXj/d88xB/ndODU9WSYy/hS0v+j6VJbWPEMSoXrTmxGbcwDRkITtKF/2EYSn/ZHrSE/6I4wpjMZQsanTX2/+SOGtJVOeUlljzJxcv9IIFoWafIYJRv2XUTwqmdrc7zmDQfuEoy7gV5KkuNThWsNk/s1SCMAPE3DJbmMPgilnm7fFUZ6bfd/6qyGdHNhk/mSwmCqZojY3PfbmJ4td1JKeSUahj/YeIjoaWSKV0QhjBgFjfikLKB/ludnmFGwWSsooynq4o01teqYkufH2e1zLD9U22iZsP5Jg6gXmzVFf/Vylzb/ZY8F93bnKHdVHyXTiUXJQ2t9p2OZa9Uu23+uOKFUSNO5ZhnjpZ+ooQzl44ewr7OeHaGhqy3SykHrA6CU5LjUMNXI6MHq2a9GQHBplqHcUbpC05KWTKgE+V6WE7eaid5RyZ5MWod4a0jquAh4rGyRb7nJH9VEjp5g/jjzyHMx5njvyI1n/E3dEaZP3W7zm/2zSfhndTpWMzHu8saDWIMMLqlnS6tRTjYEaj704lv3km2tFwQlXQMnGkUyYQLHa5zeBtwRNMkoSPHNdYDB2ts3PWRfzb5Xk7b7Em29xR3UKO0ygPNY1niqc+Sx35IE5nyYZVnYg8ynp34to2RdTn/ZTbaOO+LkhOha7DaVp8jBKVQZqGeH0803AIztGaTjsLuIMRxkkWPSdyUCNPfmIa/ZU+3jUW/lHd/vdEGSfu4+TrVIIZ1zsGk+lJtVZCvEwUqEm9ZEuega95zFEm251rZSYz4aauNA1iAbLBIxJkwSMsk6KWoOtZDFimj3x0TCFHQgmZpiPsX+fx00kNWrcSVAjnxYwlqTO9CjzYH3rM+XC7ZXdee9pY97My9zBYWS3rSzT8ETvWe6OKFsa0T1/X1sSkaJwev15Sqn16CSbgbn0RxipZajpF0ONZ4mregWn/bE7yoAEjJ1+d0oHsunladOzwaTToOqtIW3YtWQ+ya7r/X5KJAZHGh2S18HjmtR446/dEWVOlm9sTnmUcUyGWRKoeaSbHfF3GDCSNxIsqpFTXYuGK5xxoTtKn5bE3QP7TSTmceTEBEnqabuhlbkQ2nKR9dAJkh2eyxnKxh9Pu65tPfCnCWY+xx15kORb4UVNPA3B5MXev5SUVswwYX09JN+mljQmKTnSe4ioKFJP3B3d8TeIVv+va1HTKo9C+aJ/QLjwDeZdlU1amGZWueG5SPb5SflyPOGpf4DyJf947HrIQ1S57R1I1v3YjuCJ0hlvQ+nCvzN/WR27pKvd6P/Gqa7hi0J44jUoX/MN166HRuU7ZyHp2+Pa5mNx6UcQLn6ja9Wpby8GfvR86O5s6sY+XdsrfmleLv+BnYwaR49+xdy4FD8Fmyy7aXvtXandGCddG1H5PqelaQhUgPCUl6N85eddR3o4wkheSBWLQOrlMlj0IliQ3bS01Hv3XTs3nHy2rZH7OzLiWOcOUH1wqzvyyLxd9UCXHWmsn4Ka9dQRRTVpgTuqX9L1JHSU3yZCKW8YTD7D+5cae6KJQxsjnYyMyKc5yvv0kXmiImHASB6YC2WHVPg4ybWpXuEJJvDIKPjW+1Z4332sJi82T8IFjDKqKMmr66z+k+xd4Y48kgkWE4TpAT+JmYPZl7sjQza8SH1wT/SuB49cepCyE5uAcesdruGfapCpeWpNDBipflL6zFa6YFkrX/SIKV6niI9FRthqlSz8rU5RY+eaQNGNKHZMhppQ/0hbsvVOd+SXrh4Eene4Vn3UhN+n0LH5NEu+Row0kt1LGTDmTTZJda4z39NZx6iDkjsiKh4GjFS/sA2l+a9xDfIhKI1A6aQXu1b6dM8uT9OyNapjovmjdvELOsYhGDvHHg+b1tC7H3ENz2Sn+H4TBPhwWFlENeUc8xL4yUlqk5Xb8l/Z7IY8spT+bgmSGikVlzafk7TyC+f56yU6DgaMVD9zwldTznQN8kJe0+nZ7ZZO9q/1k8D6kKCMQMrlCRllq3OHtI56TdCUzuiajLAmB550rfpIoH9oGlpNWmSee32lEA+RBONZ1DM+prT2RwZt9v3eKCQXo7wf0yC10omKigEj1U1NOdfj1BtZst5v1Ew7epsFveN+W/XFG6UQHCqJZ4JHVef7wwZMPlP/HE52cksA4GOENTSBskuLJKmEbDDkgyRX793tGnlJJ2C09cUbaIRRyfvQ52flMHluaiI6ntQDRo6wN7/SGW+xAQL5FYyeiXDK2a6VLt252vv6ODX9IvO2CBGONYFTnRtesP8JqBSrbCT9+83F2sPzl5HhSWfaz0NtWt5PIJTsexxJTz7pdA5JrcpJ25iGKieq5cYiSqcUm2YpXRqGrOKs1ANGe/dIzctcEIPpF7iGZzIFJqM/coIu8ldaIy+y8eWwTRSp85xaR004tbbxxUO5s2TP0tSmAa2e7UClyzXqEUCNmWOedwdU22jzIni4kZL3mKxftO+1/KiUlgSodqmG00D152XDS0pTx4oBIw2DCrLZcJp+4u77PlxLykpNSc24GO0v+aFr+aX3PY5442/MxbLb9RRT6cy3AhLc+WY+mvHSz6L68CczCRbKl/0HwkVvcK36yfTawLcXof1lP6mt5xsuc4Gu3PI2JOt/KY1an2fB2JNQuvIzCKad73qGyfzOkm13o3rfv6H8nE9CKpnUS9YuRvf+M+KcCyC0v+636aTO6tuNys1vR7L9HtdRbGr8fLRd9RVb+ca3ZMdDqPz0pa5FNAgyi7PwDSg/66OuIz3pB4wPfdyWU6LmVH7OpxEueK1reSTB0vIvo/rgx9PbkehJ2/93HYLZHkvAHUYC5uief4A+uNn1pCc48YVou+brruWB+R0O/OBKtL/0x0BHHSmCoj5UbnoLkjTr+AZllK/+L4Rzn+86hk/S38Srr0fpnHd6KfUmidWrt73TBBMPuJ58tL30pwim1xlQH4FsZqrenPLv1yOpGV6+6qsmcDzZ9fgTr/2R+V3/pWsRDUJQQrj4z1G++J9dR3rS3/TCKemmpqamtMYuqUD37ix8sCjizbe5I/9qtXZnuVa69Jbb5c9awwfZ+HLClXaNWj10fycgaWXSJBsZKj0mxq0/v57qmIRw1qW2jJwPunc39L6VrpUfCVzToModaJRKL5ZsZJIcmynQnfn/nqnxqENFElKW/hpGWcdDTUlNXAQlFTxSoAf2I9m/3rWKLVl9nfkHp7SOceQ08xrL6Fz6m4pk04ful1x//pTPeZc5y9S58aNnu30/pE33ecpF2TYWmHA6/CSyN++rykHoAizL0DsfdEe+KTvN2zDr3U1w6+tm4On0zpRyjVITM9eGjLKUpB8wjqx/SoaKKTzphemdOLu3ImmQk6eWDQn9e1zLM9lUNPlMc0LI5mKqu9a6I0/qmYp2kq51Jpjb6Vrp0fuf8DKiLZs4gvEn2d9d3ZIESXe+u6MP0dt+6478C2ZfkdqonV/m4lw2F+c0Po+y/tVziU5qAVJp7VDO25SlPyXNgLE5SSAzYX5KgYyG7tkBDOxz7eKLt6RXXzaYe3VqgfnTJZvTex7DY94LB81FtD+DEcadD0HF/a5VDxkN9jQirCPo3UtcI19JX3q5MNWkhdCNMC0dlBBMu8BepL2TLAAplRykJibvxTQ2XR5B+iOMHhZ9U/Go8acAkpjY14XxcHEE7H7UNRpD/Pj/uKMUSJ1uXwmgjyPe8HN3VBCJJNWWdC6p7s2zkq71dlq+SCT3YVo1tIdKJwlUXzoj6ap9HIKMco7WRSoYnfgC1/ArkRujtJLTU/OyOV8nu0a6MpiSnmr+lgaqE0qDEkw9B8HYua7ll04GED3xU9dqDEnnqtRK19mcflPOc410aUkO7bNEYL3susqMRprNxVpnMJI5JHF/bYS1CHSMZM9jruGbQrj4je64wMqjEEh+0RTYWukFu2GhRhBAjWiSgNGWBctolydlxdzRjJ4JtI9zbc8qB8xF0k9t38xIfdn961zDL2XuIEtppC46Ep3UdqcXhOQglPWsmSlKcHaIXb+Y/ujqoJgbiWTLLa7hXzjjkswW7w9X6YIPmmtaOnWvky13+S3PSS1BlToym8lNP2A0gomnuyNqCh0ToSYsMAfpvH2S7Q+5owaSVJFsTu9iqqadK5Gja6VIR0j2rHCN/MnoYlqB+JFIDsUiiXektTN5GGSEcd9q+15PhQpRvuTDrlE8atQMlE5JJ6m2rvbamyOuYaShUrKXIKWbmKfLJGBUHqodUHFIjeNgqv8Evockq77tjhpIYgItqVQhpQxTIKl1gizKBNo1cwXa+CIjjL07XCN98eab3VExJOsLtjRjQEb/0xuFDU5+Ua0Wd+EolM7/O6RVwlB3PVFL60Q0RMGkM9xR+rIJGCUnGTUJBZjgRY1KaVdW1Ic4tXxvadLQAwfNST+99XbhaX/kjlIkU9IyopdS4Ds08pp2mW/ZTcnqzrUFee6G3IQUbMSzlu4qvYozqm0sSme+zbzZi5WTMTz5xQhPvMq1fNNIdtwPdG1wbaLBU5Oyi68yCRhDeUJppCGg7AVlhCc81/w+0xkC1/tW2VGuhtS/1wQcq13Dv7TKDz6VCc6ifuhK/muptOyQznL9ojDBYppB/1Bo2ZFcsF2zknNUS0L9tGqbm+tEOOdKG6AVhRozB+HCP7E3yqmQz5sJFrWk1SEaIimgkZVMojgta95sChZqeGEZwZyrXcO/RtsdfTjdsx2J7HRMseqLrSKSMl3tznQa+GiUCd5iuYHImN5fjJEevbc4a0l/TyPpXFPLk5oWE5iVFr+5lrA+jbRdg2b+7tJIlM98G4JZl9baKdDd26B3PGQOCrK5iRqGah+DYNJC10pfNlPSYQlqylmuRY1MtY2DGjvHtTyTKbhNv3aNBiRTmTI6lVb967Ad4UkvcY0U2ZFSzxVfhkGSROsd6U1/Ho3elf3feSTJ5lvdUbFIXki9Z7mJb9LboKFMsBie9Q4E4092PTkI2+wyEGWXgqQUuMoSkK4nkOxLK10RNTM19TzzR3azt9n8TaqEYOq5rkGNLJj3CvNHStPRBzcDaeUyzIiW5M99u13LM6kyMfMS10iP7u8EzEXMHNU68hINQB/Ivp54vPE37ihHJpBIUizFV5eozwaNKs2cgUohnPcilC77CILpF7vO7Egi5PL570Xpwr9HmjWutbm5jFd/3xxwdJGGLpx5mTvKRjYBo1zoJp5mnp2PYvyUp9KCV7sj/5Jtd5uAsbHzkMkmheTARtfyTfJfzkptp+bvyDo+SfGR81pS3bc3lwtpIpt+ZP1knmR3eKXbNYonXv+z2hrLlAWzLkfpWR9FuPANqd2oPl0w5RyUnv1xhGe8DSrtGu6d6xCnmI6Lmpm5Hky9wB1nI7OxTDViamqVQSgjcqc9bp5r+KaRbL274RPX6v69UDLCmMZ0nZSAGjUDanL6aRQkGJC1jLk6kNNaQgmYZXd2jvSBTeYtVKCKO08j+TGjVd93rXQFExegfNGHUL78WnPDlOJaeHN+k7WT5au+jPDEazIJUKP7P2yi7+L+nqm4JL2dGjPbtbKRYcA42V3o8lzETPUI578GKq3p6P5Oc5GWsmwNPjWjTeAr09JpXQTM5yiYmP4iZ931JJDBCNKxJHmlV0pMwJjaKPHg2HQ6Ub9rFVO89NN2vWv6zDWjbQzCU1+N9tfcivKl/2bzktqRdhXaG6nhMf+dVCJrG41wxkVoe8WvUbr0X2obNDNYFyZlFuNt97gW0dCo6Rfa926WMgsYbe4+Sa/DutINKzjpRe4oBZ1r0915maFkyx1ASqNzqjwCwahp6X+OpDa2LUuXn3hTTkm0ZfPV3jw3IZibDhMsp7pG0JPqPf9kX6/MlEchXPznaH/9EpSf/y0bRAbTzkcwaRHUqFnm8TFHD/YksCyPhho9G8HkM+x64PCcd6PtlTej/JIfmRuxdGpEH4ks+Yjvfr9rEQ2ReY8rKZ6R9vKkp1HacMepSzbfhupd78v9QkTD0DYO7a/6TWrpkaJHv4zowY+bKKHYoyqDokK0veY2BONPcR1+yaaM6LcfMp+jdOsel5/3RYTzXmaOcpgViKvo/+8T7Yht9mTDxctQfu4XzGH2z12bQLF601sKu0v6KUodaLvyCwhOfEEur5V9f5hzhmw0010bzU3nFujeXfb9Y644tcftv8t8BSWbmkqNmYtg3EnAyKm2L3M6RrTMnO8e+ZQ58TH3Ig2dGjXTnJ8+j2BGthvCshthNNT4eeZDmk2RbPIrnP0cqPZxruVZPFC7iWiGYFHIGriu9Hb3BpMW1za/pO13F97s2Z3auQSLhoktbB5KSZOUB9nsk/f60cGKBhA99lXz+c04wfohEgyWRpggcA6C2c9GuOAPUTrnXSid9x7z9V6UZKezHMv3c99t0+QEsy4DRs/MJ1g0km33Il79v+az1dgZISg/waTTzDXAvIczlm3AaC5ydthf1p1QQwlmXgqUR7qWX1JZw1aPaCJ6Y3o7H5VMSbenn8A73rfaxEwp5ZQ8DslNlxs7alXJbwOWbPbJef3o4Mn0+UOI13zfvmaFIYGkTE3bNY5yvZFRxvzJSGj8+Heg5Xec1w0RNTaZjpZBgxwG3zINGOWDG86+IvOFmlSnsL12N5NSoK97tkHvfti1mkO07gfmiaWU2Nj8HoIp55nfS8ppqrbfl9s6Or3rEXeUD1umrT/7oE1WCMV7ViDJa8RuOJII8crvILZ5IxkEHVVSRbz+5zYlUWrnBmp6dgPxlLPN+b/N9WQn24DRCGY+yzzhKa5FjSCcdgHU2JPMURp36bq2/ijnNCbeRf3mop/eJp5gzpXmxmuMa6UjObAht9Q68Zbb3VE+dP9+JLJTPGNKAq7KfvMC5DOyO1y6bxfih68tRIWgQkpixE/+BtG9/+Q6iIZp1EyEOVXOyzxgRMdEc7F7nmtQQ5iY4nqJJILeme9oUlp0igl5lWyoyWKHXO9Od5AdHVdzT2uDflkmkUPwE/Wa4CuLVDX+JbseRtUERLmtZywqGVlc9R1Ed/y1Pd8RDZektQunX5DbXpDsA0YjOPU15o98FhzTENnp6NnpBSdSGuvJX7hGc4lWfc8d+adkob9MS6dMcsVlTVUPmD9znrKTpNky6p3xxhcZac89WK6DpJSq3vEe6BxuNIpI8rFGj37FZoBo9KIElD8teUNPfKE5SeazJjefgHHCaQhnPdu1qMhk+769o0mLvUBmP/WXCfO8dCW9i0Rp/qvcUXriHFK7JAe32gtt3nTlIHTGybMlJYzeu8K1GlOy7S5Ub393Lb1NC5P3cLz8q4iWfs68l5psyQ3lIpi8GOG0810re7kEjLLLJ1j8VvudCszcxagRk4Dx812Hf7FMRzfpbkGdVKE7V7mWf2q6OXGkfKeZbL3T/Jnt70fve9yuAc2brMtD9aBrZUMSOuuBTtdqUObznGy5HdU731dLL9WCu4HlZiNe9kVED3wEMMfcEU11M+f68AwTN+U4O5tbxCajVmpqPgs3aZDMOU5SIam2Ua7Dv3j1de6o+SgTMCYb06tWoiS1jt2MlCJzoZO0R1myO6QLUOVE798A3bvbtTIg099Z/n0pSzbdhMod70Wy/Z7ac2sFcpO4ZxkqN70Z0UMfd51E9QvGnYJw7jWulY/8hvhK7Sid+jpz1WNOxsIqdSA85RXmIKVRrKjXTl81K60jJLsetBeRtJQW/bk7So8d8cuK1HGW9W8FCDD0gfVAX4YBnHnuiQk2monecR+qt/4FoiWfafIKXxrJ/icQLfsSBn7959Bbm/e8RjlQAcIz3mwitrLryEd+AaPkkpt+Uab1O2mIzO9IpbheItljAhFzkWxaMjo3cCDVUaogg7XAyebsUtzIVF5hUspEffb3J8FAJmREuglvoOT9Hz3yGVsWNtl0i32ezUR29cfrfozqHe+2gTF6trtHiPxQE+YjmH2Fa+Un30WEUtNTXoSAo4xFFIw9Capjgmv5lzzxQ3fUxPr3Qu9Lbx1jYKu+pPc7EpnuYpfXS4LGohjYZ96o2aRC0dEAdGeOFW7SJMGwufGo3PYORHd9oDaK3Oh0gnj7/aj85KWo3m2e066HC7GUgpqNQjj/1bXa5znLNWBUpQ4EJzzXBiZUPKUz327+TGk6WseIN93kGs1LahIne2WaMaVRqrAD4ckvdY106H4TNGVU91Yf3FioPIRJ1wbz3LPZsa17ijEVnx7zGRjYj2j19zDw3XMQPfgx+/movb4NsilEfj/mhibZdBsG/u8aVH/+SrtmEZUD5rEGeQ7UOGTj6cTTEMx8NlTY7jrzo7TUospT3I/K3R9EsvaGzO7kaXDaXv5LBKPSSRCaHNyC6k1vMsFB8yzyP5pwwR+idPZf2dyJvmmpILH+p4ju/1fXk4LySLS94Lvmxu5E15EeyV0ZL/sCdEFGaoJp56P0rP9AkOJI+yHRup+Y3+OHXatFtI1FeOprEc55LjD25Nr5JoeSZ0dnLo+SSF7SHR3cjGTfSsSrr4feu9w9TpQiSdR9xttQPvfd9jyct/wDRiPZ+aAJHt7aHNMUTUTNuMS8X9NJ2J307ITuXG3Ox81/k2Brf44/1Y6oe2c+vonU4pbXMiVKNqZNWJDazcPhkq71hcrLqUptUFMvyOTuPtm7sjbi1oKUCRLVlHPN11lQY+YgnHEhlNyglNPL0HBUOoYe2A/sX49k91Jb11vvWQG960HzUP75QalFyOji2LkoX/FZe+NaBIUIGGV9S3TfvyB67Ouug4iIWo5cJEsmSBx3Uu1Gq208gpmXmqD9bFtEwNZP95mHTie2Aovu2QHdtcGWN4TctFS67KgiDm4uzGg3tRhzox6e/gaUL/4nW3GtCIoRMBry4Ry44Uqgv8GT1hIRkR9S3KE00qb4kpQiMtotG/GCyYuACafbsqVqxEQTSI6tXVSDNvNVW5ovyzVkyZPNxGC+60q3uc7shDJBYNy5xgSI61z5x8j+jGw6smt1pSxkMS6L1MrM+7z95b+ojbQXRGECRhGv+Caiez5kPqs515ElIiIiykn5wg8iPPuvXKsY8k2r8zTBqa+GmnquaxERERG1FjVxAYJFb3St4ihUwKhKI1E66/8BHRNdDxEREVFrUB3jUb7gA1B5bPg6jkIFjLJeRU2/BOGcq82/jMm8iYiIqFUoBCe/zG70KqJiBYyGXdA8/1VQTOZNRERELUI2c0leUpRHu55iKVzAKMKZlyE88QWF2UpORERElBqp2jXv5SZoPMN1FE8hA0bJxRUuemMtdQIRERFRszIxTzD9PARS5tVnnlHPihkwGmrUDJQv+keoAhTcJiIiIkpFxySUzn4H1JjZrqOYChswCjXtApTOe0+hI24iIiKiYVEKpbP+AmpGMTe6HK7QAaMdpp33CgSnvMx1EBERETWH4KQXo7Toz6AaYGCs2AGjodpGo3zG26HGnex6iIiIiBqbGjsXbRd9yG54aQSFDxiFmnAqSme8zRajN61aJxEREVEjMvFM6fz3AaNmuI7ia4iAUdYwBvNeivDUVwMlptohIiKiBlUehdLpf4bghKtsfNMoGiNgNFT7OISL34Jg+sWuh4iIiKiRKIQzLkZ42h+auGas62sMShvuuCHoAxtR+fnLobt3uh4iIiKi4pNUgW3/3/ehJi5wPY2jYUYYD5FFouWrv2FLCEqkTkRERFR45ZFou/LzDRksioYLGIWUzild/E8maBzveoiIiIiKSbWPR9ul/wo161mup/E0ZMAIFSI88YUIT/9Tu7aRiIiIqIgkWAzPeCuCeS93PY2pMQNG0TYGJRMwBnOvMc+i7DqJiIiICiJsRzj/lQgXvh4ojXCdjalxA0YxchrKF/49wpkXuQ4iIiKiApBqdTMuQnjWX7o80o2t4XZJH4ke6ELl56+B3rfCNBr+6RAREVGDCyaehvIL/weqgZJzH0tjjzA6so6x7fn/jWD6BabRFE+JiIiIGpGMLE45C6Vr/rtpgkXRNNGVGjUL5Uv+lUEjERER5cMEi+HMy1C6/JMIxp7oOptD80RW5peEiQtROv/9UCayt20iIiKiLMjI4vSLEZ7/t3Y6utk0xRrGw+kkht67AtFtf4lk/xOul4iIiCg9asIClJ9zLdTkM6GC0PU2j6YLGA/R+9ej8svXQXdvdT1EREREKRg9C+3P/wbUpMWuo/k07WI/Nf5ktL3gOwimnmueZcn1EhEREXmiAlt9rv3532zqYFE07QijZZ6a3r8G1Qc/hmTz7UA84B4gIiIiGj4VtiE44SqE57+3KdcsPl1zB4yWBI3rED38CcQbfgUkVddPRERENHSq1I5g3stQOvsdUONOlp7aA02sBQJGGWg0T7F/H6L7/wXxmh+4XiIiIqIhUgHCeS9B6eIPQ42YYtqtkZWlJQLG39EJovs+jGjltzk9TURERIMngWFQRmnBH6B0yYdtnehW0loBo0giRKu+i3jpF6C7t5mO1nr6RERENHRq9CyUFr8J4Rlva5lRxcO1XsAo4gEkW26zQWOye6nN3UhERET0DEGIYOp5CM96O8ITnmtHGVtRawaMIolsgu/qQ/+JZPOtrpOIiIjIkbQ5s69A6fz3Qk1aZJqtGSyK1g0YhXnqeqAT8YqvI1ryWRNEcqSRiIiIDKUQLvwTlM57D1THJNtuZa0dMB6iE8Trf2Y3xOjenTaQJCIiohZkAkMJEMuX/guCeS93ncSA8RATNCZb70a05DNIdj0MxBX3ABERETU/BUgy7mnno3zeu6GmXWTXL1INA8anSfY/gWTtDxCvug66b7frJSIiomamRkxCcOofoLTwj6HGnuh66RAGjEdS7UWy/V5Ej37ZfpfRRyIiImpOauq5KJ/711DTLoRqH+t66XAMGI/GvCy6ZyuipZ+vVYeJ+twDRERE1BRKIxAufD1KZ7wVatRMExW19saWY2HAeDxJFfG6H9r0O6p3J3M2EhERNToVQI05AaULP4Bg7gugwjb3AB0NA8ZB0t1bED/8acRbboPu3cGd1ERERA1HQY2cgmD2c1A6+x1Q409x/XQ8DBiHIqki2XIHose/a3dUI+p1DxAREVGhlUcjmHU5wvmvRDj36pat2DJcDBiHSjbAdG9FvPlWxCu+gaRzjXuAiIiICkfyKo472daBDuZcAzV6hnTWHqNBY8A4XEkVum8P4lX/g+jR/wKq3e4BIiIiKgIVtiM8/U8QmmBRjZxu8yzS8DBg9EB3rkb1/n+F3n4vdJW7qYmIiHIjI4phB9T0C1G66B8QTDrdPUD1YMDoia4cRPLkjYjXXI9k3ypgoJMbY4iIiLLUPs4EiItsqpxgztVQ5VHuAaoXA0bPdH8nki23I9l0M5Ktd5n2XgaOREREKVIdExHMuAjhiS+EmnU51Mip7hHyhQFjWvp2I9l+H+J1P7KpeBANuAeIiIjIC0m8Pee5COe9HMHUcwBJvk2pYMCYJh3bqWrduRbRym8h2fAzIK66B4mIiGhYVIDghCsRLn4LwqlnAeUxto/Sw4AxK+ZlTvY9jviRa20ORx31AKwaQ0RENDgqNIHhSAQzL0H53L+Bmnyme4CywIAxa5L8e9cjiNf+EHr3UiTdW4H+fe5BIiIi+j0FtI1GMHo21PQLEC54HdSkxVBMup05Bow50t3b7DrHZOvtSLbdZ9omeAR/HURE1OJsrec5CKZf+LsvNW6e6WfC7bwwYMydhu7bC921Hsme5Ug23Ypkx31AxHyORETUYoISgilnIZhzFYIZl0CNnwfVPpGBYgEwYCwSqR5TOQgc3IJ4w8+QrP8pEnPMtDxERNS8FNTo6TYlTjD/NVBjZgOlUVClDvc4FQEDxiKL+pFsvQPxEz9Bsu1uoNIDnVS4WYaIiBpXEJroowzVNhLBrMsRznsF1KxnmQBxhPsBKiIGjA1CD+yH3nEfks23Id69HOjbY/r2AbYUIX+FRERUVAoojYTqmAA1coqtxKJmXopw9hVA+3j3M1R0DBgbkO7dBd25BrrrCej96+z3pGs9tJ2+TtxPERER5UTqOY+YCjXhVATmS40/pfY1znxJFRauSWw4DBgbnK722KoytrLMgY3Qe1dAS75H8yWjkFz/SEREqZNdzSOnIZh4GjBhAYJJp0ONngWYPulnTefGx4CxmegEOuoHYvkaAA5uRrxrCRLzhb3LaxtoElaaISKiOoVtdnOKmng6wmnnQ8nO5jFzANmoEspXuw0iqXkwYGwhutoNdK6D7lyJeM8KJHtXmKByI1DtNbGmbKQxbwWZ0j70dagtUwd8mxARNS8b3JlzvXw/9CW7l2WDSnk01NgToSbJyOEiBCZIxPj5UKafWgcDxlYno5L9nUDvTiQ924Ce7eb7zlr1mUoXdOWACSiljGEVWupg60hOKXantnYBpeKmGyKiwtKHAkEXANqrflCCCsu17yUT+HWMg2oba75PsmsM1aiZdjo5GDXd9EkeRPnvqZUxYKTjSyLoai8Q99lUP3L6sVPb8tZJKuYbN9oQERWVkmAvaKsFfVJST2aNwnao8kjzfYQNGomOhwEjERERER0Tx5iJiIiI6JgYMBIRERHRMTFgJCIiIqJjYsBIRERERMfEgJGIiIiIjokBIxEREREdEwNGIiIiIjomBoxEREREdEwMGImIiIjomBgwEhEREdExMWAkIiIiomNiwEhEREREx8SAkYiIiIiOiQEjERERER0TA0YiIiIiOiYGjERERER0TAwYiYiIiOiYGDASERER0TExYCQiIiKiY2LASERERETHAPz/xvk6yIYq9DMAAAAASUVORK5CYII=;" vertex="1" parent="1">
          <mxGeometry x="688.12" y="135" width="37" height="22.76" as="geometry" />
        </mxCell>
        <mxCell id="-pFcmsq36QsAqHcXGoiX-28" value="GitLab Runner" style="text;html=1;align=center;verticalAlign=middle;whiteSpace=wrap;rounded=0;" vertex="1" parent="1">
          <mxGeometry x="360" y="382" width="100" height="30" as="geometry" />
        </mxCell>
        <mxCell id="-pFcmsq36QsAqHcXGoiX-40" style="edgeStyle=orthogonalEdgeStyle;rounded=0;orthogonalLoop=1;jettySize=auto;html=1;entryX=0;entryY=0.5;entryDx=0;entryDy=0;" edge="1" parent="1" target="-pFcmsq36QsAqHcXGoiX-7">
          <mxGeometry relative="1" as="geometry">
            <mxPoint x="550" y="200" as="targetPoint" />
            <mxPoint x="560" y="200" as="sourcePoint" />
          </mxGeometry>
        </mxCell>
        <mxCell id="-pFcmsq36QsAqHcXGoiX-34" value="" style="shape=image;verticalLabelPosition=bottom;labelBackgroundColor=default;verticalAlign=top;aspect=fixed;imageAspect=0;image=data:image/png,iVBORw0KGgoAAAANSUhEUgAAAOEAAADhCAMAAAAJbSJIAAAAk1BMVEX19fX///8AAADP2Nz7+/v4+Pibm5uQkJDU3uJ6f4Hz8/RDQ0ONjY3l5eUXFxdVVVVcXFzOzs7IyMjr6+uGhoa/v7/Cys7J0tbc3NyDiYsSEhKqqqra2trj4+NlZWUiIiK1tbUaGho1NTU8PDyAgIAtLS1NTU0mJiZ2dnaco6agoKBqamqtra1JSUk2NjaMkpWwuLto8ngnAAAJuElEQVR4nO2da2OiOBSGhUnUoUVF6tYBr9XartbZ+f+/bmsJSYAAScgFp3m/tQHlMSGXc05OBh6HwOL44lvTdMXzjLUacFzzMbGH96WFXkI4s8zXEbGVELzYxrupA2Ir4dQ2XCZ5xDbC1DZaLmnEFkL4ZpsMSxaxhXCRf35yHJrUr0wnBYgthO/o0zeBB0xqnOmnglpsITxkn/0Ww4FR/fhSiVAOsZkQoo9+98wC1hBKIfIRjkA/CGUQ74xQAvEuCLf/dUC8C8LJ87/yiHdBmPwzlke8E8If8oj3QiiPeDeE0oj3QyiLeEeEkogdCCEADbPVUmnzxXyEcojyhGA1Gs1r6xashsMVKQXr83kp0BDYhFKI0oTg8VZwrKkY76t0lJeC8+3PR37EGkIZRFlC8JSVfDCfGuzQQ2SIMMr+PHIvUeoIJRAlCXNAf8Z8Q+MkK71kpSBfSHMjlmZthFAcUY4QA/pTFiG4FEs9bHI9cjbU2joUR5QiJID+E6sP2vnF+8CQXM9Xi+MM5he6689YHlGG0COAfljtamBcKSX/4UREhH/QTQ9jeUQJQnAkX7Bm9KWkTe7y2+Byi2/haqhxxvIPep/9w59nSj9EEMUJqSaasIY40kY31HgoiogqkcNn0oYoTNgGCGPsqaINdGCZ4Pu4etRxoZk2KVJLSAH6zEkK7kdJG5VDXH8hbtoJp0oJacA1E5DVRhGiYEMNwptR+NCOCBUSUoATZg2SfnRS6WXBci+G+PlxEMZXk4SA8kSx59EeblWM6RxYktvZsz0WZEB13doJA9xkEmYTpdso61WjGuqE34rurVpeRoWEMe4sFswHhCG+gO3oIL4sX8BPAL14no4o/cx0VU84wHW4FepHcTmpw72YJwQ2eab0vId7BiLANVTuR1H5mrSstINdJCjOy5XWYbawzbQqPyPpRxNmG6U7GtaEvReEhUl3uRYB7hCYbRSsJmoA9RIWRsRiLZJ+dMbuRxNFgJoJC/NSGhHGjf0o/Q7yGzOsENa9i15jGwUrRe+gCUL6XUyW2JqG2+iFteBQ9g4aIaQb6luMEKrreloxta7obj7XT0jXYj5S4v8w2yhp2Jx2GtuEFCKaf3p5bA+zH/Xw+qB7EzVESOrsHdkL836GOdbjUiWAZggx4hxZtRf1bZSUdh0mjBIOvNGt4Jw/M3JU1NRRdvGjorgjQ4Sfy7b0Y0me2YuGw1UtQskVdR+EYh5CQf9hPwityRE6QkdoX47QEX53QkhEfymUUw8JvTDKFZIpGoSrSEYrOUadhFTIge8PsQ875HCBMXVlecltEoLiLqjcbh1sfVklPSMMinV1QFW48+W1k0DUSEgZlG6ahFnNjjoQniV6aZ3v4V9fh3Xv4as04ERmoLXQl64fJAFPy571NJ+IYT7yrULy88PBUmo8XA56Nx5+gzlNL+QIHaEjtC9H6Ai/OyEJvyr5LLhVnCnI3KjXirEYoui5IRW8B8JCYF2zdmSqBgc7/vtSPE3USRjQkeUzDLjwRfSWmy7gWiyvyAJoJ6RjoH3ss4ah0HP6/m9U+1DUvIN+Gp1r/OJC8DULNQHCOWyyNRNctl9ZFFqQ3oEVI3P+w7nofSPthLCYUgnt2xJ/0rzHEL1vrr2VlljmeY8hmA1syLIYcGgG9felYE6y/pyoLbJP+8rj1Oo3CQ+G6Qv/ffsnI+MhhEEueoUOBgG3BqDrfW7W5ggdoX05QkfoCO3LEXYjBLiMhm7+DhHRRg4I2FfoJITx4/Uh0/WRhHR7i82DIr2TOFuwemdccPtejWuLNb1ATHJrRCc3d0W5raLWNpIsx/qsGJfCV6HdMXDlq9Q+yAjjWiPORR9hXFwkbZEV46yU0I9gy++2fTZNKLiQ7TOhkVa6HVhspXBNRz/tLfU0W409zedoMTqhXvtEjRZgcVE0WFyP9GhxvFavOI10jhbfYMTvhxyhI3SE9uUIHaEjtC+9nhl2UEVLFAX3hcxPL8draJ3TgIhEAz9ElHfNb9BbSoIvUt7YhA3eiQHXxTRRD5FOK4akh1TGJbpHE3sYV3ZzzDWunkpebsjiZgkZJoTc2ignL5VxAn+vRiuGbKRCJBGaMM1iUkA1ldlEoxVDNtpEJrwkz7hxqZS8arRiSEYMPaAX1vstQJhnWa4u9Z80rvED+kWc4iGgJeprT8K8+M+ow6mxKy/iNNBIOPDmZ3Qi03lORe7FHw1nN+1ITAOEO77znlIqAYW3SqmSz++1EX3ZOJJLhVvWx3ZCN2tzhI6wB3KEjtAR2pdmQvbuSCM7K40QgjiaZ4riwi7ZuYjoe3tGCAs7nYmdQXin87AL4n3sVufOWG6WUGHWCMFs16YIVWaN6CehwqwRPa1Dhdlb+pqxvJg1Iq8GiQw8fe1Lb+MhHtTo8RBEDaMfQ/0dDwd//5ymF3KEjtAR2pcjdITfnbB71gh+f0XFYWGAEML56DHTaE4eBqzTR0XakbhcGOzoEhtZI4IcUCxrRLNITonlS6nofrJGNOuQV1X1SLnwbrJGNCuqdfobzxqxR4RKQ/VxTgnGHgcDWSNOhS88ccfTCCmubfvWskYAwawRzaoPoDKSNSI67SeZ9lcS1wafXieKdEixiQqkhz1V8mooawSIw0xxITYxCBWpmFOCLgmMZY1gGyIEzRic9g12iZuXOkJHaF+O0BE6QvvSPKfBZYXdnsy76Z+FuR2UT5XDvjRnjZjmKmaNmFY1S6mnOs8YV/DpsXzioM61RUhvyN/n53F61Q0DmUic9KnmCi6VD6LXacUo7gxAZ1PDqPbZ0NkOXbMulA5q17nGF82pgH4Db1p7BZfy81wdYXdC4awRKTPCQVjmWmkxLe4W9zR1piichxd2qsStuZ7mNlpsZpk2xawRs6o2KXV8xZl1BZc2JkeL7LDNTKCY34GxXAeFEZ91BZeqx3u6WZsjdIT25QgdoSO0L0fYiRB6cS6P9szAmEtQyS+l17t2mCSZJgfiXQPHbcKl7ZOKA9YteEgFVg5TBbVo7mwEKS/3vHst9jxSQeZYToOECqJNumxD0E+oImKovJztF6GCqK9Fv3uar8i9XHTkXngWPbOpr4Sdoy9VDIdu1uYIHWEP5AgdoSO0L0foCFmE7x32lqtXTrhRQOihTdpvCtY86hRnhM9ok/yhGaGF8B39TJvAU7a1qbPi8U3PU9zAuhDilV9y5EuWZ0K/brpgi8qiEyEUO8/Wht5aji1oIfQU7/jRoI8WgjbCrqEw2jVtA2gl9F5sMzTqpTXosZ1Q9KRYo5q1nx3STuh5HwInxRpVsuN4eh5CDyyOL0n7FxpV8vu44ArL/R+0rHw6rtvMJgAAAABJRU5ErkJggg==;" vertex="1" parent="1">
          <mxGeometry x="240" y="171.78" width="25" height="25" as="geometry" />
        </mxCell>
        <mxCell id="-pFcmsq36QsAqHcXGoiX-38" value="" style="endArrow=none;dashed=1;html=1;rounded=0;exitX=0;exitY=0.5;exitDx=0;exitDy=0;strokeWidth=2;" edge="1" parent="1" source="-pFcmsq36QsAqHcXGoiX-33">
          <mxGeometry width="50" height="50" relative="1" as="geometry">
            <mxPoint x="300" y="201" as="sourcePoint" />
            <mxPoint x="490" y="201" as="targetPoint" />
          </mxGeometry>
        </mxCell>
        <mxCell id="-pFcmsq36QsAqHcXGoiX-41" value="" style="endArrow=none;dashed=1;html=1;rounded=0;exitX=0;exitY=0.5;exitDx=0;exitDy=0;strokeWidth=2;entryX=1;entryY=0.5;entryDx=0;entryDy=0;" edge="1" parent="1" source="-pFcmsq36QsAqHcXGoiX-50" target="-pFcmsq36QsAqHcXGoiX-47">
          <mxGeometry width="50" height="50" relative="1" as="geometry">
            <mxPoint x="300" y="201" as="sourcePoint" />
            <mxPoint x="500" y="200" as="targetPoint" />
          </mxGeometry>
        </mxCell>
        <mxCell id="-pFcmsq36QsAqHcXGoiX-42" value="SAST" style="text;html=1;align=center;verticalAlign=middle;whiteSpace=wrap;rounded=0;" vertex="1" parent="1">
          <mxGeometry x="310" y="209" width="60" height="30" as="geometry" />
        </mxCell>
        <mxCell id="-pFcmsq36QsAqHcXGoiX-43" value="Secret Detection" style="text;html=1;align=center;verticalAlign=middle;whiteSpace=wrap;rounded=0;" vertex="1" parent="1">
          <mxGeometry x="345" y="161.28" width="100" height="30" as="geometry" />
        </mxCell>
        <mxCell id="-pFcmsq36QsAqHcXGoiX-44" value="Dependancy scanning" style="text;html=1;align=center;verticalAlign=middle;whiteSpace=wrap;rounded=0;" vertex="1" parent="1">
          <mxGeometry x="419" y="209" width="87" height="30" as="geometry" />
        </mxCell>
        <mxCell id="-pFcmsq36QsAqHcXGoiX-45" value="" style="endArrow=classic;html=1;rounded=0;" edge="1" parent="1">
          <mxGeometry width="50" height="50" relative="1" as="geometry">
            <mxPoint x="447" y="316" as="sourcePoint" />
            <mxPoint x="447" y="246" as="targetPoint" />
          </mxGeometry>
        </mxCell>
        <mxCell id="-pFcmsq36QsAqHcXGoiX-46" value="" style="endArrow=classic;html=1;rounded=0;" edge="1" parent="1">
          <mxGeometry width="50" height="50" relative="1" as="geometry">
            <mxPoint x="427.58" y="248" as="sourcePoint" />
            <mxPoint x="427.58" y="318" as="targetPoint" />
          </mxGeometry>
        </mxCell>
        <mxCell id="-pFcmsq36QsAqHcXGoiX-48" value=".gitlab-ci.yml" style="text;html=1;align=center;verticalAlign=middle;whiteSpace=wrap;rounded=0;" vertex="1" parent="1">
          <mxGeometry x="210" y="197.73" width="90" height="30" as="geometry" />
        </mxCell>
        <mxCell id="-pFcmsq36QsAqHcXGoiX-49" value="Deploy" style="text;html=1;align=center;verticalAlign=middle;whiteSpace=wrap;rounded=0;" vertex="1" parent="1">
          <mxGeometry x="570" y="196.48" width="50" height="30" as="geometry" />
        </mxCell>
        <mxCell id="-pFcmsq36QsAqHcXGoiX-51" value="" style="endArrow=none;dashed=1;html=1;rounded=0;exitX=0;exitY=0.5;exitDx=0;exitDy=0;strokeWidth=2;entryX=1;entryY=0.5;entryDx=0;entryDy=0;" edge="1" parent="1" target="-pFcmsq36QsAqHcXGoiX-50">
          <mxGeometry width="50" height="50" relative="1" as="geometry">
            <mxPoint x="300" y="201" as="sourcePoint" />
            <mxPoint x="560" y="200" as="targetPoint" />
          </mxGeometry>
        </mxCell>
        <mxCell id="-pFcmsq36QsAqHcXGoiX-31" value="" style="ellipse;whiteSpace=wrap;html=1;aspect=fixed;fillColor=#d5e8d4;strokeColor=#82b366;" vertex="1" parent="1">
          <mxGeometry x="328" y="188" width="23" height="23" as="geometry" />
        </mxCell>
        <mxCell id="-pFcmsq36QsAqHcXGoiX-32" value="" style="ellipse;whiteSpace=wrap;html=1;aspect=fixed;fillColor=#dae8fc;strokeColor=#6c8ebf;" vertex="1" parent="1">
          <mxGeometry x="390" y="187" width="24" height="24" as="geometry" />
        </mxCell>
        <mxCell id="-pFcmsq36QsAqHcXGoiX-33" value="" style="ellipse;whiteSpace=wrap;html=1;aspect=fixed;fillColor=#f8cecc;strokeColor=#b85450;" vertex="1" parent="1">
          <mxGeometry x="450" y="187" width="22.5" height="22.5" as="geometry" />
        </mxCell>
        <mxCell id="-pFcmsq36QsAqHcXGoiX-50" value="" style="ellipse;whiteSpace=wrap;html=1;aspect=fixed;fillColor=#e1d5e7;strokeColor=#9673a6;" vertex="1" parent="1">
          <mxGeometry x="509" y="187.75" width="22.5" height="22.5" as="geometry" />
        </mxCell>
        <mxCell id="-pFcmsq36QsAqHcXGoiX-52" value="Build &amp;amp; Push" style="text;html=1;align=center;verticalAlign=middle;whiteSpace=wrap;rounded=0;" vertex="1" parent="1">
          <mxGeometry x="480.13" y="163.28" width="80.25" height="28" as="geometry" />
        </mxCell>
      </root>
    </mxGraphModel>
  </diagram>
</mxfile>
